<svg width="245" height="138" viewBox="0 0 245 138" fill="none" xmlns="http://www.w3.org/2000/svg">
<g clip-path="url(#clip0_1_772)">
<g clip-path="url(#clip1_1_772)">
<path d="M64.8759 97.1203C65.72 95.758 66.7897 94.6215 68.1519 93.7774C68.4611 93.5852 68.4193 93.4264 68.2438 93.1673C66.8315 91.17 66.7228 89.0556 67.7675 86.8744C67.8343 86.7407 67.9764 86.5986 67.8343 86.4565C67.5 86.1222 67.5585 85.696 67.5585 85.2949C67.5585 83.7404 67.5669 82.1777 67.5585 80.6316C67.5502 79.5702 66.9735 78.7763 66.0375 78.4754C64.9511 78.1244 63.7477 78.442 63.1459 79.2443C62.6362 79.9212 62.5442 80.6483 62.8702 81.4088C63.2128 82.186 63.8229 82.6457 64.6837 82.7209C64.9595 82.7459 65.2352 82.7209 65.511 82.7459C66.096 82.7794 66.4972 83.1972 66.4805 83.7154C66.4637 84.2335 66.0877 84.5929 65.5194 84.6263C63.7895 84.735 62.3102 84.2586 61.3575 82.7209C60.4215 81.25 60.4884 79.7457 61.4077 78.2749C61.4244 78.2414 61.416 78.1996 61.4244 78.1579C61.7336 77.8486 62.0344 77.5478 62.3437 77.2386C63.3047 76.6452 64.3494 76.4196 65.486 76.4864C67.6839 76.6118 69.3386 78.2164 69.4305 80.4143C69.4807 81.6512 69.4556 82.8964 69.4473 84.1416C69.4473 84.3589 69.3888 84.5678 69.3303 84.9439C71.8458 83.3309 74.1941 83.3059 76.5425 84.8352C76.7013 84.6597 76.6177 84.4592 76.6261 84.2669C76.6428 82.9131 76.5759 81.5425 76.6762 80.1887C76.8517 77.6731 79.2001 76.0769 81.8911 76.5616C84.2311 76.9795 85.727 79.3112 85.1253 81.601C84.5988 83.6485 82.5095 84.9857 80.4118 84.6263C79.8937 84.5427 79.6012 84.2168 79.6012 83.6987C79.6012 83.1805 79.9104 82.8546 80.4202 82.7794C80.7127 82.7376 81.0136 82.771 81.3061 82.7459C82.4844 82.654 83.3619 81.7097 83.3619 80.5564C83.3619 79.4198 82.4677 78.4754 81.2894 78.3835C79.4842 78.2498 78.5231 79.144 78.5148 80.9742C78.5148 82.4117 78.5148 83.8491 78.5148 85.2865C78.5064 85.696 78.5733 86.1139 78.2306 86.4565C78.0802 86.607 78.2306 86.7407 78.2975 86.8744C79.3505 89.064 79.2502 91.17 77.8378 93.1673C77.6623 93.4097 77.5955 93.5768 77.9214 93.769C79.2753 94.6215 80.345 95.758 81.1974 97.1119C81.0971 97.3292 80.8798 97.3292 80.696 97.3459C79.2335 97.5548 77.9548 98.1482 76.9603 99.2597C76.8601 99.3767 76.7347 99.4853 76.601 99.5522C74.9463 99.8029 73.2748 99.8531 71.6118 99.7611C70.9098 99.7277 70.191 99.7444 69.5057 99.5606C69.2968 99.4519 69.1297 99.2681 68.9709 99.1093C68.0432 98.1148 66.8816 97.605 65.5695 97.3793C65.3188 97.3459 65.043 97.3877 64.8759 97.1203Z" fill="#9A7863"/>
<path d="M78.8239 110.801C79.3087 111.119 79.785 111.428 80.2781 111.737C80.2279 113.141 79.4842 114.219 78.6317 115.239C77.1107 117.06 75.2972 118.556 73.4001 119.969C73.1996 120.119 72.9906 120.211 72.765 120.036C70.4417 118.281 68.1686 116.475 66.5473 114.002C66.096 113.316 65.8202 112.573 65.8035 111.737C66.2798 111.428 66.7478 111.127 67.2326 110.826C67.4833 110.809 67.6838 110.926 67.8928 111.035C71.3777 112.965 74.8543 112.932 78.3141 110.96C78.4646 110.876 78.5983 110.692 78.8239 110.801Z" fill="#785353"/>
<path d="M76.4589 99.5104C75.8321 100.572 75.339 101.683 75.2137 102.945C75.1301 103.764 75.2972 104.533 75.3808 105.335C74.754 106.046 73.9016 106.23 73.0408 106.221C72.18 106.23 71.3192 106.037 70.7008 105.335C71.1688 103.246 70.7509 101.307 69.6144 99.5188C71.8959 99.711 74.1774 99.7194 76.4589 99.5104Z" fill="#785353"/>
<path d="M70.6924 105.327C71.2524 105.603 71.7789 105.929 72.414 106.029C73.5005 106.213 74.4532 105.862 75.3725 105.327C75.7903 106.664 76.3085 107.934 77.1776 109.054C77.6707 109.698 78.3058 110.199 78.824 110.801C74.963 113.241 71.0936 113.216 67.2159 110.826C68.2104 109.815 69.2299 108.812 69.8567 107.5C70.2077 106.798 70.4167 106.054 70.6924 105.327Z" fill="#9A7863"/>
<path d="M57.4764 111.511C57.2257 111.261 56.975 111.01 56.7243 110.759C55.3119 109.046 54.9943 107.074 55.4372 104.943C56.1977 101.207 59.2983 98.0396 63.1175 97.3292C63.7526 97.2122 64.4392 96.979 65.0743 96.9122C65.0743 96.9122 71.1164 95.1723 72.3784 96.6014C72.8882 96.9607 71.8345 101.264 71.8345 101.264C71.8345 101.264 71.3576 103.931 70.9649 105.444C70.4133 107.667 69.2099 109.472 67.4716 110.926C66.9392 111.287 65.9589 111.754 65.9589 111.754C64.4797 112.548 62.9169 112.991 61.212 112.907C59.808 112.823 58.5628 112.397 57.4764 111.511Z" fill="#C8D4E4"/>
<path d="M88.9167 111.511C89.1674 111.261 89.4181 111.01 89.6688 110.759C91.0812 109.046 91.3987 107.074 90.9558 104.943C90.1953 101.207 87.0948 98.0396 83.2756 97.3292C82.6404 97.2122 81.9539 96.979 81.3187 96.9122C81.3187 96.9122 75.2766 95.1723 74.0147 96.6014C73.5049 96.9607 74.5586 101.264 74.5586 101.264C74.5586 101.264 75.0354 103.931 75.4282 105.444C75.9798 107.667 77.1832 109.472 78.9215 110.926C79.4539 111.287 80.4341 111.754 80.4341 111.754C81.9134 112.548 83.4761 112.991 85.181 112.907C86.585 112.823 87.8302 112.397 88.9167 111.511Z" fill="#C8D4E4"/>
</g>
<g clip-path="url(#clip2_1_772)">
<path d="M73 79C62.5236 79 54 87.523 54 98C54 108.477 62.523 117 73 117C83.477 117 92 108.477 92 98C92 87.523 83.4764 79 73 79ZM57.48 98C57.48 89.4422 64.4422 82.48 73 82.48C76.8558 82.48 80.3856 83.8969 83.1029 86.2337L61.2337 108.103C58.8969 105.386 57.48 101.856 57.48 98ZM73 113.52C69.5502 113.52 66.3608 112.387 63.781 110.476L85.4757 88.7816C87.3867 91.3614 88.5195 94.5508 88.5195 98.0006C88.52 106.558 81.5578 113.52 73 113.52Z" fill="#C73838"/>
</g>
<path d="M94.0132 57.7852C94.0132 57.7455 94.0132 57.6926 94.0132 57.6529C94.2209 56.8986 94.2338 56.1047 94.8567 55.4564C96.0375 54.2258 97.7634 53.9611 99.1648 54.5698C101.41 55.5622 102.617 54.5434 103.797 53.4848C104.109 53.2069 104.096 52.8232 104.083 52.4395C104.005 50.4547 104.329 48.536 105.017 46.6703C105.536 45.281 104.706 44.0107 103.252 43.9445C102.305 43.9048 101.488 43.6137 100.826 42.8727C99.7358 41.6554 99.8785 39.7765 101.176 38.7179C102.409 37.7123 104.342 37.9769 105.212 39.2472C105.393 39.5251 105.536 39.8162 105.666 40.1205C105.925 40.7292 106.354 41.1923 106.925 41.4966C107.586 41.8539 108.222 41.8936 108.845 41.3511C109.598 40.6895 110.454 40.147 111.337 39.6971C111.83 39.4457 112.089 39.0752 112.167 38.5194C112.401 36.9184 112.102 35.5819 110.714 34.5631C109.053 33.3722 108.936 30.911 110.247 29.31C111.025 28.3705 112.011 28.1588 113.088 28.0132C113.218 28.0132 113.348 28.0132 113.478 28.0132C113.737 28.1455 114.036 28.1191 114.295 28.1191C115.761 28.1852 116.618 29.085 117.15 30.3288C117.682 31.5859 117.565 32.8561 116.696 33.9412C115.748 35.1188 115.476 36.0715 116.8 37.8578C117.072 38.2283 117.435 38.3739 117.864 38.3739C119.797 38.3739 121.562 38.9825 123.262 39.8426C123.716 40.0808 124.131 40.0676 124.559 39.8162C125.208 39.4457 125.805 39.0222 126.363 38.5194C126.83 38.1092 126.999 37.5667 127.077 36.9448C127.323 34.9071 129.27 33.703 131.022 34.5101C132.086 34.9997 132.721 35.8466 132.747 37.0771C132.786 38.3474 132.215 39.3398 131.099 39.75C129.555 40.3057 128.79 41.5098 128.102 42.8463C127.816 43.3888 127.816 43.8784 128.167 44.3944C128.79 45.3074 129.179 46.3395 129.581 47.3584C129.919 48.2185 130.425 48.5493 131.32 48.536C132.345 48.5096 133.163 48.1126 133.798 47.2128C134.811 45.7705 136.601 45.1751 138.158 45.6515C139.962 46.2072 140.909 47.4907 140.935 49.449C140.935 49.7269 140.935 50.0048 140.935 50.2694C140.974 52.0028 140.183 53.1937 138.639 53.8156C137.004 54.4772 135.498 54.2258 134.227 52.929C132.838 51.5 131.904 51.9631 130.593 52.5718C130.321 52.7041 130.204 52.9687 130.165 53.2731C130.022 54.3449 129.75 55.3902 129.399 56.4091C129.153 57.15 129.296 57.547 129.932 57.9969C130.58 58.46 131.307 58.5923 132.073 58.6188C133.63 58.6585 134.837 59.9552 134.837 61.5298C134.837 62.8001 134.032 63.8984 132.812 64.2953C131.683 64.6658 130.347 64.2159 129.685 63.1441C129.179 62.3238 128.712 61.4901 127.907 60.9079C127.284 60.4448 127.09 60.4316 126.532 60.9873C125.675 61.8342 124.767 62.6149 123.716 63.1971C123.119 63.5279 122.859 64.0174 122.795 64.6791C122.639 66.333 123.067 67.7753 124.313 68.9133C125.221 69.7337 125.688 70.7261 125.649 71.9963C125.61 73.2004 124.624 74.9074 122.976 74.8809C122.885 74.8809 122.808 74.8809 122.73 74.9471C122.34 74.9471 121.951 74.9471 121.562 74.9471C119.148 74.3913 118.214 72.605 119.109 70.1968C119.732 68.5163 119.369 66.9549 118.603 65.42C118.435 65.0892 118.136 64.9569 117.799 64.9701C116.696 64.9834 115.593 64.9305 114.516 64.7055C114.075 64.6129 113.724 64.8378 113.413 65.1422C112.115 66.3992 111.557 67.987 111.388 69.7469C111.35 70.1836 111.298 70.6202 111.207 71.0569C110.934 72.3668 109.52 73.4122 108.274 73.2534C106.834 73.0814 105.744 71.8772 105.692 70.4879C105.653 69.3499 106.12 68.5163 107.002 67.8547C108.586 66.6771 109.286 65.0363 109.325 63.078C109.338 62.5884 109.157 62.1914 108.78 61.8606C107.768 60.9873 106.912 59.9685 106.198 58.8305C105.848 58.2748 105.419 58.0366 104.784 58.1954C104.576 58.2483 104.355 58.2483 104.135 58.2351C102.681 58.1424 101.656 58.7776 100.969 60.0743C100.398 61.1461 99.4633 61.7415 98.2954 61.9797C96.1024 62.4164 94.1949 60.8682 94.143 58.5923C94.0522 58.3277 94.156 58.0498 94.0132 57.7852Z" fill="#F6BD57"/>
<path d="M111.479 45.3471C112.854 45.3604 113.88 46.4189 113.867 47.8347C113.867 49.2109 112.738 50.3753 111.401 50.3753C110.091 50.3753 108.949 49.2109 108.936 47.8877C108.936 46.4983 110.091 45.3339 111.479 45.3471Z" fill="#F4A34E"/>
<path d="M123.742 48.4037C124.728 48.4037 125.636 49.3432 125.649 50.3621C125.662 51.4074 124.715 52.3601 123.703 52.3468C122.703 52.3204 121.808 51.4074 121.795 50.3885C121.782 49.3564 122.716 48.4037 123.742 48.4037Z" fill="#F4A34E"/>
<path d="M115.943 54.0008C115.943 54.8874 115.242 55.6019 114.386 55.6019C113.529 55.6019 112.751 54.8212 112.751 53.9611C112.751 53.0878 113.503 52.3601 114.412 52.3733C115.229 52.3733 115.93 53.1143 115.943 54.0008Z" fill="#F4A34E"/>
<path d="M119.927 44.9766C119.914 45.7044 119.252 46.3395 118.525 46.3395C117.798 46.3395 117.163 45.6779 117.176 44.9369C117.189 44.1959 117.824 43.5343 118.538 43.5343C119.304 43.5343 119.953 44.2092 119.927 44.9766Z" fill="#F4A34E"/>
<path d="M119.459 60.5639C118.668 60.5639 118.149 60.0214 118.149 59.1878C118.149 58.3674 118.733 57.7852 119.537 57.7984C120.238 57.8117 120.835 58.4468 120.848 59.1613C120.874 59.9155 120.225 60.5639 119.459 60.5639Z" fill="#F4A34E"/>
<path d="M125.831 31.5197C125.831 32.565 125 33.4251 123.988 33.3986C123.002 33.3722 122.184 32.5386 122.184 31.5329C122.184 30.5008 123.041 29.6408 124.04 29.654C125.039 29.6672 125.831 30.5008 125.831 31.5197Z" fill="#F6BD57"/>
<path d="M101.319 34.3513C99.8004 34.3381 98.5547 33.0678 98.5547 31.5197C98.5547 29.9716 99.8134 28.6881 101.319 28.7013C102.824 28.7013 104.083 29.9848 104.096 31.5329C104.108 33.0546 102.824 34.3646 101.319 34.3513Z" fill="#F6BD57"/>
<path d="M98.7882 67.4975C98.7882 66.4521 99.6187 65.5921 100.631 65.6185C101.617 65.6317 102.435 66.4786 102.448 67.4842C102.461 68.5296 101.617 69.3632 100.592 69.3499C99.5668 69.3367 98.7882 68.5296 98.7882 67.4975Z" fill="#F6BD57"/>
<path d="M133.059 73.1475C131.579 73.1475 130.437 71.9699 130.437 70.4614C130.45 68.953 131.605 67.7886 133.084 67.815C134.538 67.8283 135.667 68.9927 135.667 70.4747C135.693 71.9699 134.538 73.1475 133.059 73.1475Z" fill="#F6BD57"/>
<g clip-path="url(#clip3_1_772)">
<path d="M116.73 31.8525C106.321 31.8525 97.8525 40.3203 97.8525 50.7295C97.8525 61.1387 106.32 69.6066 116.73 69.6066C127.139 69.6066 135.607 61.1387 135.607 50.7295C135.607 40.3203 127.138 31.8525 116.73 31.8525ZM101.31 50.7295C101.31 42.2271 108.227 35.3099 116.73 35.3099C120.56 35.3099 124.067 36.7177 126.767 39.0393L105.039 60.767C102.718 58.0674 101.31 54.5604 101.31 50.7295ZM116.73 66.1491C113.302 66.1491 110.133 65.0237 107.57 63.125L129.124 41.5708C131.023 44.1339 132.149 47.3026 132.149 50.7301C132.149 59.2319 125.232 66.1491 116.73 66.1491Z" fill="#C73838"/>
</g>
<path d="M27.0776 82.5053C28.4579 82.5053 29.8296 82.5139 31.2099 82.5053C31.6326 82.5053 31.9863 82.5654 32.1503 83.0121C32.2797 83.3901 32.133 83.6736 31.6585 83.9914C23.0316 83.9914 14.4047 83.9914 5.77786 83.9914C5.54493 83.8454 5.32063 83.6993 5.26024 83.3987C5.16535 82.8918 5.5018 82.5139 6.0798 82.5139C7.52912 82.5053 8.97843 82.5053 10.4277 82.5053C10.5399 82.428 10.6693 82.4108 10.7987 82.4108C13.4385 82.428 16.0697 82.3592 18.7009 82.4022C19.9691 82.385 21.2372 82.385 22.5054 82.4022C23.8771 82.3764 25.2487 82.3936 26.629 82.3936C26.7843 82.3936 26.9396 82.4022 27.0776 82.5053Z" fill="#785353"/>
<path d="M38.56 40.2749C37.0158 41.5549 35.532 42.9036 34.1862 44.3983C31.4428 47.4479 29.2602 50.8583 27.5262 54.5607C25.5162 58.8559 24.1704 63.3659 23.3249 68.0219C23.1352 69.0785 23.0057 70.1351 22.8505 71.2003C22.7728 71.3206 22.8936 71.4494 22.8505 71.5697C22.3415 72.36 21.7376 73.0902 21.2717 73.9063C21.22 74.0008 21.1251 74.164 20.9871 73.9664C20.7886 72.9957 20.8145 72.0078 20.7024 71.0285C20.3745 68.271 19.762 65.5736 18.9252 62.9278C18.8562 62.7216 18.7872 62.524 18.7872 62.3007C18.8821 60.5826 19.2444 58.9075 19.7017 57.2581C20.0812 55.8751 20.6334 54.5607 21.2372 53.2636C21.3063 53.1261 21.358 52.9715 21.5133 52.8942C21.8239 52.3788 22.1258 51.8633 22.445 51.3565C25.1366 47.0012 28.9669 43.9602 33.5737 41.8212C34.9799 41.1683 36.4378 40.6357 37.9389 40.2491C38.0769 40.2148 38.215 40.1976 38.3616 40.1632C38.4565 40.1375 38.56 40.1031 38.56 40.2749Z" fill="#5ABA64"/>
<path d="M18.8821 62.2491C18.9684 62.9621 19.2531 63.615 19.4515 64.3022C20.0208 66.2866 20.4436 68.2882 20.7196 70.3413C20.8835 71.5697 20.9612 72.7981 21.0474 74.0266C21.1682 74.1898 21.0647 74.3272 20.9957 74.4647C19.8224 76.681 19.1495 79.0348 18.9166 81.526C18.908 81.6634 18.908 81.818 18.7354 81.8782C18.5198 81.8438 18.537 81.6634 18.5198 81.5088C18.2523 77.9524 17.2516 74.6107 15.647 71.4323C15.3796 70.8996 15.0086 70.4186 14.8275 69.8344C14.8361 69.654 14.9396 69.4736 14.8447 69.2932C14.2753 61.33 12.1186 53.8649 7.75341 47.0269C8.1675 47.1902 8.41768 47.4651 8.69374 47.697C11.4026 49.9563 13.6887 52.5763 15.5694 55.5572C15.6298 55.6517 15.7074 55.7376 15.7764 55.8235C16.225 56.2788 16.4666 56.8629 16.7685 57.4041C17.4759 58.7099 18.097 60.0586 18.6233 61.4416C18.7268 61.7079 18.7613 61.9914 18.8821 62.2491Z" fill="#68BB6B"/>
<path d="M14.9137 69.8173C15.0949 70.2983 15.3968 70.7193 15.6384 71.1745C16.8893 73.5799 17.7865 76.114 18.2782 78.7856C18.4508 79.722 18.6233 80.6583 18.6319 81.6205C18.6319 81.7064 18.6405 81.7923 18.7182 81.8524C18.8821 82.0758 18.8821 82.2905 18.7182 82.5139C15.9576 82.5396 13.197 82.5568 10.4364 82.5139C10.4364 82.4881 10.445 82.4709 10.4623 82.4537C10.6262 82.2991 10.8418 82.3335 11.0316 82.3335C12.0927 82.3335 13.1538 82.3335 14.2149 82.3335C14.6635 82.3335 14.6981 82.2905 14.5687 81.8696C14.1459 80.4608 13.5075 79.1636 12.5413 78.0383C12.4378 77.918 12.3257 77.8063 12.3343 77.6345C12.2135 76.2944 11.9202 74.9887 11.5751 73.6915C10.5571 69.8516 8.90941 66.3382 6.36448 63.28C5.48454 62.2234 4.50107 61.2612 3.38821 60.4108C4.35442 60.4537 7.84831 62.3522 9.84112 64.0445C11.7563 65.6681 13.4299 67.5064 14.7412 69.6455C14.8275 69.6798 14.862 69.7571 14.9137 69.8173Z" fill="#6EC277"/>
<path d="M18.8821 62.2491C18.537 61.8368 18.468 61.2956 18.2696 60.8231C17.5794 59.148 16.7771 57.533 15.8368 55.9781C15.8109 55.9352 15.8023 55.8751 15.785 55.8149C16.2423 54.4834 16.4666 53.1004 16.5615 51.7001C16.8375 47.843 16.225 44.0976 15.1035 40.4123C15.0776 40.3178 15.0604 40.2234 15.0086 40.0344C18.5715 43.6853 20.7455 47.9203 21.4874 52.8684C20.9871 54.0539 20.4263 55.205 20.0381 56.4334C19.4515 58.3405 19.0201 60.2647 18.8821 62.2491Z" fill="#91CF96"/>
<path d="M12.3084 77.6259C13.4817 78.8544 14.215 80.3233 14.6981 81.9297C14.8533 82.4451 14.8533 82.4451 14.3271 82.4537C13.0331 82.4537 11.739 82.4537 10.445 82.4537C10.2983 80.0656 9.56506 77.9094 7.93458 76.0968C7.64126 75.779 7.31344 75.5127 6.98562 75.2292C7.0115 75.023 7.14953 75.1347 7.24443 75.1433C8.98706 75.3581 10.5226 76.0281 11.8339 77.1878C11.9978 77.3253 12.1531 77.4713 12.3084 77.6259Z" fill="#8CD19A"/>
<path d="M14.9137 69.8173C14.8275 69.7915 14.7671 69.7314 14.7412 69.6455C14.8879 69.5595 14.7843 69.4049 14.8361 69.2932C14.9569 69.4565 14.8965 69.6455 14.9137 69.8173Z" fill="#ACD9AE"/>
<path d="M18.7096 82.5053C18.7096 82.2819 18.7096 82.0672 18.7096 81.8438C18.8993 81.5346 18.8131 81.1738 18.8562 80.8473C19.0719 79.1121 19.5291 77.4455 20.1934 75.8391C20.4436 75.2206 20.7541 74.6279 21.0388 74.0265C21.5823 73.1675 22.1344 72.3256 22.7642 71.5267C22.816 71.4666 22.8591 71.3979 22.9367 71.3549C25.3436 68.606 28.2768 66.6474 31.8052 65.565C31.486 65.8485 31.1582 66.1148 30.8562 66.4069C28.8203 68.3569 27.5349 70.7536 26.5687 73.3565C26.1718 74.4131 25.8785 75.5041 25.6024 76.5951C25.6111 76.7583 25.5421 76.8871 25.4213 77.0074C23.972 78.3905 23.0661 80.0656 22.7124 82.0414C22.6866 82.2132 22.6607 82.385 22.514 82.5053C21.2459 82.5053 19.9777 82.5053 18.7096 82.5053Z" fill="#50AF5C"/>
<path d="M22.5054 82.5053C22.7556 80.8989 23.2904 79.4127 24.2912 78.1156C24.6017 77.7118 24.9209 77.2995 25.3091 76.9645C25.4299 76.8614 25.5162 76.7411 25.5938 76.6123C25.7405 76.7068 25.7922 76.5521 25.8699 76.5006C27.578 75.2034 29.5363 74.5935 31.6413 74.3702C31.7362 74.3616 31.8569 74.2499 31.8828 74.4475C30.6319 75.0574 29.683 76.0023 28.941 77.1449C27.8713 78.777 27.2588 80.581 27.0776 82.5139C25.5507 82.5053 24.0323 82.5053 22.5054 82.5053Z" fill="#68BB6B"/>
<path d="M19 46C8.52358 46 0 54.523 0 65C0 75.477 8.523 84 19 84C29.477 84 38 75.477 38 65C38 54.523 29.4764 46 19 46ZM3.47996 65C3.47996 56.4422 10.4422 49.48 19 49.48C22.8558 49.48 26.3856 50.8969 29.1029 53.2337L7.23368 75.1029C4.89688 72.3856 3.47996 68.8558 3.47996 65ZM19 80.52C15.5502 80.52 12.3608 79.3873 9.78101 77.4762L31.4757 55.7816C33.3867 58.3614 34.5195 61.5508 34.5195 65.0006C34.52 73.5578 27.5578 80.52 19 80.52Z" fill="#C73838"/>
<g clip-path="url(#clip4_1_772)">
<path d="M201.73 125.127C216.278 118.503 230.825 111.879 245.372 105.256C246.46 104.457 246.512 103.457 245.907 102.351C245.462 101.374 245.005 100.37 244.56 99.3931C243.429 96.9097 242.311 94.4542 241.181 91.9709C239.199 87.618 237.217 83.2651 235.235 78.9123C233.786 75.7313 232.338 72.5504 230.89 69.3694C225.134 56.7294 219.379 44.0893 213.624 31.4493C212.5 30.984 211.425 30.3283 210.115 30.7898C209.997 32.0898 208.965 32.4925 207.986 32.9383C195.984 38.4028 184.011 43.8546 172.01 49.3191C170.975 49.7904 169.955 50.221 168.97 50.8039C168.159 51.1733 167.152 51.2612 166.865 52.3355C168.178 55.8137 169.883 59.1135 171.405 62.5304C172.305 64.5801 173.232 66.617 174.187 68.6412C174.304 68.8237 174.452 68.925 174.655 69.0009C175.583 69.1847 176.359 68.663 177.114 68.3191C183.925 65.2517 190.738 62.1158 197.536 59.0206C198.04 58.7913 198.571 58.5493 199.1 58.3758C199.726 58.192 200.201 58.3461 200.552 58.8938C200.824 59.3427 201.027 59.7892 201.243 60.2635C206.427 71.6479 211.623 83.0603 216.807 94.4447C217.849 96.7327 217.803 96.8547 215.537 97.8864C208.599 101.045 201.633 104.217 194.695 107.376C193.912 107.733 192.996 107.947 192.686 108.897C193.118 110.587 193.997 112.073 194.708 113.636C196.129 116.83 197.605 119.998 199.053 123.179C199.488 124.43 200.093 125.535 201.73 125.127Z" fill="#BCD5D1"/>
<path d="M174.414 68.8415C180.512 82.2349 186.623 95.6562 192.721 109.05C200.834 105.356 208.894 101.619 217.032 97.9806C218.375 97.3692 218.601 96.8281 217.979 95.4609C212.345 83.2369 206.755 70.9596 201.234 58.6847C200.624 57.3454 200.054 57.1331 198.712 57.7445C190.652 61.4815 182.527 65.1475 174.414 68.8415Z" fill="#DEF4EF"/>
<path d="M192.042 25.8131C191.379 25.5426 191.264 24.9208 191.01 24.3628C189.041 20.0378 187.072 15.7128 185.115 11.4158C180.275 13.6194 175.408 15.8358 170.568 18.0394C171.419 19.9089 172.271 21.7784 173.109 23.62C174.22 24.0574 175.098 23.3883 175.955 22.897C176.852 22.4209 177.661 22.12 178.368 23.0784C178.917 23.8391 178.492 24.9085 177.406 25.6388C176.546 26.1986 175.305 26.292 174.89 27.4579C175.637 29.1727 176.412 30.8748 177.159 32.5896C177.698 33.2538 178.354 32.9888 178.97 32.7085C182.996 30.9428 186.996 29.1213 190.971 27.244C191.571 27.0044 192.202 26.6836 192.042 25.8131Z" fill="#DEF4EF"/>
<path d="M174.903 27.4859C175.966 27.0019 177.095 26.5888 178.079 26.0059C179.331 25.2677 179.69 23.7567 179.041 22.7043C178.378 21.6925 177.135 21.4838 175.967 22.1838L173.058 23.5086C173.642 24.7921 174.278 26.1872 174.903 27.4859Z" fill="#BDD5D1"/>
<path d="M192.042 25.813L177.144 32.6302C175.547 33.4248 173.845 34.0647 172.429 35.1814C167.784 38.7783 166.327 46.1119 169.186 51.2782C175.552 48.3461 181.902 45.4546 188.268 42.5225C195.374 39.2871 202.495 36.0111 209.626 32.8315C210.829 32.2838 211.233 31.7627 210.478 30.6242C207.289 25.8442 203 23.2492 197.072 24.028C195.29 24.2669 193.728 25.2138 192.042 25.813Z" fill="#F39D00"/>
</g>
</g>
<defs>
<clipPath id="clip0_1_772">
<rect width="245" height="138" fill="white"/>
</clipPath>
<clipPath id="clip1_1_772">
<rect width="46" height="46" fill="white" transform="translate(50 75)"/>
</clipPath>
<clipPath id="clip2_1_772">
<rect width="38" height="38" fill="white" transform="translate(54 79)"/>
</clipPath>
<clipPath id="clip3_1_772">
<rect width="37.7541" height="37.7541" fill="white" transform="translate(97.8525 31.8525)"/>
</clipPath>
<clipPath id="clip4_1_772">
<rect width="51.7639" height="110.496" fill="white" transform="matrix(-0.9101 0.414388 0.414388 0.9101 201.328 4)"/>
</clipPath>
</defs>
</svg>
