<svg width="248" height="138" viewBox="0 0 248 138" fill="none" xmlns="http://www.w3.org/2000/svg">
<path d="M183.012 61.0044C183.582 60.9496 184.05 61.418 183.996 61.9879C183.643 65.6627 181.916 77.9903 174.229 85.6778C169.194 90.7124 161.776 91.4569 157.659 87.3405C153.543 83.2243 154.288 75.8059 159.322 70.7712C167.01 63.0838 179.337 61.3566 183.012 61.0044Z" fill="#91CF96"/>
<path d="M96.0044 69.9878C95.9496 69.4182 96.418 68.9498 96.9879 69.0043C100.663 69.357 112.99 71.084 120.678 78.7713C125.712 83.806 126.457 91.2244 122.34 95.3406C118.224 99.4569 110.806 98.7124 105.771 93.6779C98.0838 85.9902 96.3566 73.6627 96.0044 69.9878Z" fill="#91CF96"/>
<path d="M98.0043 36.0218C97.9497 35.4325 98.418 34.9479 98.9878 35.0045C102.663 35.3691 114.99 37.1557 122.678 45.1083C127.712 50.3165 128.457 57.9906 124.341 62.2489C120.224 66.5072 112.806 65.7369 107.771 60.5288C100.084 52.5764 98.3568 39.8237 98.0043 36.0218Z" fill="#91CF96"/>
<path d="M173.621 26.6789C174.208 26.6085 174.704 27.0814 174.662 27.672C174.387 31.4812 172.902 44.2725 165.139 52.4105C160.055 57.7401 152.401 58.6912 148.044 54.5346C143.686 50.378 144.275 42.688 149.359 37.3582C157.121 29.2199 169.828 27.1329 173.621 26.6789Z" fill="#91CF96"/>
<path d="M172.5 73.9999C171.816 73.3228 170.709 73.3228 170.025 73.9999L141.75 100.016V70.3743C141.75 68.0585 142.661 65.8819 144.314 64.2459L159.475 44.4511C160.158 43.7741 160.158 42.677 159.475 42C158.791 41.323 157.684 41.323 157 42L141.839 61.7942C139.525 64.0851 138.25 67.1321 138.25 70.3745V72.2921C138.219 72.2607 138.193 72.2263 138.161 72.1951L116.975 51.5487C116.291 50.8716 115.183 50.8716 114.5 51.5487C113.816 52.2257 113.816 53.3227 114.5 53.9998L135.687 74.647C137.339 76.2823 138.25 78.459 138.25 80.7747V108.683L112.975 84.0488C112.291 83.3717 111.183 83.3717 110.5 84.0488C109.816 84.7258 109.816 85.8228 110.5 86.4999L138.25 113.584V125H141.75V104.918L172.5 76.451C173.184 75.7737 173.184 74.6771 172.5 73.9999Z" fill="#5ABA63"/>
<path d="M172.937 136.448C166.692 129.067 154.289 124.034 140 124.034C125.71 124.034 113.307 129.067 107.062 136.448" fill="#9A7863"/>
<path d="M149.135 124.754C146.21 124.293 143.155 124.034 140 124.034C125.711 124.034 113.307 129.067 107.062 136.448H125.332C130.198 130.697 138.812 126.384 149.135 124.754Z" fill="#8C695C"/>
<path d="M178.793 138H101.207C100.349 138 99.6553 137.305 99.6553 136.448C99.6553 135.591 100.349 134.896 101.207 134.896H178.793C179.651 134.896 180.345 135.591 180.345 136.448C180.345 137.305 179.651 138 178.793 138Z" fill="#785353"/>
</svg>
