<svg width="248" height="138" viewBox="0 0 248 138" fill="none" xmlns="http://www.w3.org/2000/svg">
<path d="M44 50.2028C44 50.0798 44 49.9743 44 49.8513C44.245 47.5138 45.6103 46.0375 47.6231 44.9654C50.0385 43.6825 52.4014 42.2765 54.7994 40.9935C56.2346 40.2202 57.0222 39.1657 56.8647 37.4961C56.8297 37.0919 56.8472 36.6701 56.8822 36.2658C56.8997 35.9143 56.9522 35.5628 57.3548 35.4047C57.7574 35.2816 58.1599 35.2816 58.5625 35.2816C64.321 35.2816 70.062 35.2816 75.8205 35.2816C76.223 35.2816 76.6431 35.2641 77.0282 35.3871C77.5183 35.5453 77.6583 35.9495 77.6933 36.424C77.7283 37.004 77.7283 37.6015 77.7108 38.1815C77.6408 40.2729 78.5334 41.8723 80.2662 42.9619C82.1215 44.1219 84.0819 45.106 85.9722 46.1957C87.0049 46.7932 88.0726 47.3381 89.0877 47.9708C90.0504 48.5683 90.558 49.4646 90.628 50.5894C90.698 51.6439 90.663 52.6984 90.6455 53.7529C90.628 54.1044 90.593 54.4735 90.1904 54.6317C89.7529 54.7371 89.3153 54.702 88.8777 54.702C74.4727 54.702 60.0678 54.702 45.6803 54.702C45.1902 54.702 44.6826 54.8074 44.2275 54.5438C43.93 53.7881 44.1575 52.9972 44.0875 52.2239C44.035 51.5385 44.1925 50.8531 44 50.2028Z" fill="#F6BD57"/>
<path d="M93.2014 103.807C93.2014 106.302 93.2364 108.815 93.2189 111.311C93.2014 112.735 92.2387 113.455 91.101 114C76.171 114 61.2234 114 46.2933 114C44.7181 113.631 44.158 112.963 44.1055 111.417C44.1055 111.258 44.158 111.118 44.263 110.995C44.8056 110.573 45.4357 110.696 46.0308 110.696C57.3027 110.696 68.5747 110.696 79.8466 110.696C81.8594 110.696 83.8723 110.608 85.8676 110.714C88.2305 110.837 90.1209 108.763 90.0684 106.531C90.0508 105.968 90.0508 105.424 90.0859 104.861C90.1034 104.474 90.1034 104.088 90.3659 103.771C91.3111 103.35 92.2562 103.297 93.2014 103.807Z" fill="#F4A34E"/>
<path d="M44 103.807C44 87.4092 44 70.9941 44 54.5967C44.0525 54.5791 44.1224 54.5791 44.1749 54.5615C44.2623 54.6318 44.3323 54.7197 44.3847 54.8427C44.5421 55.2997 44.5071 55.7742 44.5071 56.2311C44.5071 71.5565 44.5071 86.8819 44.5071 102.19C44.5071 102.594 44.5246 103.016 44.4372 103.42C44.4022 103.525 44.3672 103.631 44.2973 103.736C44.2273 103.824 44.1224 103.859 44 103.807Z" fill="#FCF1D5"/>
<path d="M44.1574 111.557C44.1049 111.557 44.0525 111.557 44 111.54C44 108.956 44 106.39 44 103.807C44.0525 103.807 44.1224 103.807 44.1749 103.807C44.4896 104.088 44.4896 104.475 44.4896 104.861C44.5071 106.584 44.4896 108.306 44.4896 110.011C44.4896 110.433 44.3847 110.819 44.1924 111.188C44.1924 111.311 44.1749 111.434 44.1574 111.557Z" fill="#FBE4BD"/>
<path d="M44.1754 54.5969C44.1227 54.5969 44.0701 54.5969 44 54.5969C44 53.1381 44 51.6618 44 50.2031C44.3507 50.8534 44.1227 51.5564 44.1578 52.2242C44.1929 52.9448 44.1754 53.683 44.1929 54.4035C44.2455 54.4738 44.2455 54.5441 44.1754 54.5969Z" fill="#FBE5BD"/>
<path d="M44.1748 54.5967C44.1748 54.5264 44.1923 54.4736 44.1923 54.4033C56.1819 54.4033 68.1714 54.4209 80.1435 54.4209C83.5566 54.4209 86.9697 54.4209 90.3827 54.4209C90.8203 54.0343 91.3629 54.1397 91.8705 54.1046C92.7982 54.0694 92.8507 54.0167 92.8682 53.1204C92.8857 52.5404 92.8507 51.9604 92.8857 51.3804C92.9032 51.0114 92.8682 50.6247 93.2182 50.3435C93.4808 51.7144 93.3057 53.0852 93.3057 54.4385C93.3057 54.8779 93.2182 55.3172 93.2182 55.739C93.2182 71.3983 93.2182 87.0577 93.2182 102.735C93.2182 103.086 93.2007 103.438 93.2007 103.789C92.2731 103.807 91.3279 103.807 90.4002 103.824C90.3652 103.789 90.3127 103.736 90.2777 103.701C89.9802 103.156 90.0677 102.559 90.0677 101.979C90.0677 86.9346 90.0677 71.8904 90.0677 56.8287C90.0677 54.7197 90.2602 54.913 88.1248 54.913C74.0699 54.913 60.015 54.913 45.9601 54.913C45.3475 54.9306 44.6999 55.0536 44.1748 54.5967C44.1923 54.5967 44.1748 54.5967 44.1748 54.5967Z" fill="#F8CD84"/>
<path d="M93.2184 50.3437C93.2009 51.451 93.1659 52.5406 93.1834 53.6478C93.2009 54.2805 92.9734 54.4739 92.3783 54.4211C91.7132 54.386 91.0481 54.4036 90.3829 54.4036C90.3829 53.2085 90.3829 51.9958 90.3829 50.8007C90.3654 49.6056 89.8754 48.6741 88.8077 48.0766C86.1472 46.5827 83.4693 45.1064 80.8088 43.6125C78.6034 42.3823 77.3082 40.6248 77.4307 37.971C77.4657 37.1977 77.6233 36.3892 77.2732 35.6335C77.3257 35.6159 77.3957 35.5983 77.4482 35.5808C78.3759 35.159 79.3035 35.1238 80.2137 35.6159C80.2312 36.3716 80.2662 37.1449 80.2312 37.9007C80.1787 39.3594 80.8438 40.326 82.0865 41.0114C84.817 42.5053 87.5475 44.0343 90.2604 45.5809C92.0982 46.6178 93.0959 48.2172 93.2184 50.3437Z" fill="#F4A34E"/>
<path d="M44.2098 111.188C44.1923 108.728 44.1923 106.267 44.1748 103.807L44.1923 103.824C44.6824 103.367 45.2775 103.49 45.8551 103.49C53.3989 103.49 60.9602 103.49 68.504 103.49C75.2601 103.49 82.0338 103.49 88.79 103.49C89.3326 103.49 89.9102 103.403 90.3827 103.807V103.842C90.3127 105.09 90.4703 106.338 90.2777 107.603C89.9802 109.378 87.9848 111.065 85.9545 111.065C72.4422 110.995 58.9298 111.03 45.4175 111.03C44.9974 111.013 44.5774 110.942 44.2098 111.188Z" fill="#F6BD57"/>
<path d="M90.3827 103.789C82.7163 103.789 75.05 103.806 67.3662 103.806C59.6299 103.806 51.9111 103.806 44.1747 103.806C44.1747 95.7395 44.1572 87.655 44.1572 79.5881C44.1572 71.2575 44.1572 62.9094 44.1572 54.5789C59.1398 54.5789 74.1399 54.5789 89.1224 54.5789C90.3477 54.5789 90.3477 54.5789 90.3477 55.8091C90.3827 71.8199 90.3827 87.8132 90.3827 103.789Z" fill="#FADD94"/>
<path d="M69.1549 84.1558C68.9856 84.1558 68.8145 84.1523 68.6435 84.1437L67.8612 84.1075L67.8251 83.322C67.691 80.4182 68.6951 77.7362 70.6535 75.7697C72.6119 73.8042 75.2803 72.7916 78.1741 72.9297L78.9563 72.9668L78.9933 73.7523C79.1274 76.6562 78.1225 79.3374 76.1649 81.3038C74.3225 83.1536 71.8492 84.1558 69.1549 84.1558Z" fill="#91CF96"/>
<path d="M69.097 76.6105L68.3319 76.2782C65.6127 75.0982 63.448 72.8142 62.3906 70.0122C61.322 67.1774 61.4449 64.0939 62.7371 61.329L63.0913 60.571L63.8564 60.9034C66.5747 62.0834 68.7403 64.3674 69.7968 67.1694C70.8662 70.0042 70.7433 73.0877 69.4512 75.8525L69.097 76.6105Z" fill="#91CF96"/>
<path d="M68.6621 88.461H68.6707H68.6621ZM68.191 89.3356C65.4959 89.3356 63.0234 88.3334 61.1811 86.4835C59.2236 84.5171 58.2186 81.8351 58.3527 78.9312L58.3888 78.1457L59.171 78.1095C62.0664 77.9739 64.734 78.9831 66.6924 80.9495C68.6508 82.9159 69.6549 85.5979 69.5208 88.501L69.4847 89.2874L68.7015 89.3236C68.5306 89.3312 68.3603 89.3356 68.191 89.3356Z" fill="#91CF96"/>
<path d="M68.6719 96.6568C68.1974 96.6568 67.8123 96.27 67.8123 95.7936V75.0763C67.8123 74.5999 68.1974 74.2131 68.6719 74.2131C69.1464 74.2131 69.5316 74.5999 69.5316 75.0763V95.7936C69.5316 96.27 69.1464 96.6568 68.6719 96.6568Z" fill="#5ABA63"/>
<path d="M68.6722 84.1557C68.4521 84.1557 68.232 84.0711 68.0644 83.9028C67.7282 83.5652 67.7282 83.0197 68.0644 82.6822L73.2303 77.4951C73.5664 77.1576 74.1106 77.1576 74.4458 77.4951C74.782 77.8318 74.782 78.3782 74.4458 78.7157L69.28 83.9028C69.1123 84.0711 68.8923 84.1557 68.6722 84.1557Z" fill="#5ABA63"/>
<path d="M68.6717 76.3499C68.3158 76.3499 67.9831 76.1263 67.8593 75.7689L65.1728 67.9914C65.0171 67.5408 65.2545 67.0496 65.7032 66.8925C66.1511 66.7354 66.6411 66.9745 66.7976 67.426L69.4841 75.2036C69.6397 75.6541 69.4024 76.1454 68.9537 76.3015C68.86 76.3344 68.7654 76.3499 68.6717 76.3499Z" fill="#5ABA63"/>
<path d="M68.6723 89.3352C68.4522 89.3352 68.2322 89.2506 68.0645 89.0823L62.9064 83.903C62.5703 83.5654 62.5703 83.0198 62.9064 82.6824C63.2426 82.3448 63.7859 82.3448 64.122 82.6824L69.2801 87.8617C69.6163 88.1993 69.6163 88.7448 69.2801 89.0823C69.1125 89.2506 68.8924 89.3352 68.6723 89.3352Z" fill="#5ABA63"/>
<path d="M109.319 50.2028C109.319 50.0798 109.319 49.9743 109.319 49.8513C109.564 47.5138 110.929 46.0375 112.942 44.9654C115.357 43.6825 117.72 42.2765 120.118 40.9935C121.553 40.2202 122.341 39.1657 122.183 37.4961C122.148 37.0919 122.166 36.6701 122.201 36.2658C122.218 35.9143 122.271 35.5628 122.673 35.4047C123.076 35.2816 123.479 35.2816 123.881 35.2816C129.64 35.2816 135.381 35.2816 141.139 35.2816C141.542 35.2816 141.962 35.2641 142.347 35.3871C142.837 35.5453 142.977 35.9495 143.012 36.424C143.047 37.004 143.047 37.6015 143.029 38.1815C142.959 40.2729 143.852 41.8722 145.585 42.9619C147.44 44.1218 149.4 45.106 151.291 46.1957C152.323 46.7932 153.391 47.3381 154.406 47.9708C155.369 48.5683 155.877 49.4646 155.947 50.5894C156.017 51.6439 155.982 52.6984 155.964 53.7529C155.947 54.1044 155.912 54.4735 155.509 54.6317C155.071 54.7371 154.634 54.702 154.196 54.702C139.791 54.702 125.386 54.702 110.999 54.702C110.509 54.702 110.001 54.8074 109.546 54.5438C109.249 53.7881 109.476 52.9972 109.406 52.2239C109.354 51.5385 109.511 50.8531 109.319 50.2028Z" fill="#F6BD57"/>
<path d="M158.52 103.807C158.52 106.302 158.555 108.815 158.537 111.311C158.52 112.735 157.557 113.455 156.42 114C141.49 114 126.542 114 111.612 114C110.037 113.631 109.477 112.963 109.424 111.417C109.424 111.258 109.477 111.118 109.582 110.995C110.124 110.573 110.754 110.696 111.349 110.696C122.621 110.696 133.893 110.696 145.165 110.696C147.178 110.696 149.191 110.608 151.186 110.714C153.549 110.837 155.439 108.763 155.387 106.531C155.369 105.968 155.369 105.424 155.404 104.861C155.422 104.474 155.422 104.088 155.685 103.771C156.63 103.35 157.575 103.297 158.52 103.807Z" fill="#F4A34E"/>
<path d="M109.319 103.806C109.319 87.4089 109.319 70.9939 109.319 54.5964C109.371 54.5789 109.441 54.5789 109.493 54.5613C109.581 54.6316 109.651 54.7195 109.703 54.8425C109.861 55.2994 109.826 55.774 109.826 56.2309C109.826 71.5563 109.826 86.8817 109.826 102.189C109.826 102.594 109.843 103.016 109.756 103.42C109.721 103.525 109.686 103.631 109.616 103.736C109.546 103.824 109.441 103.859 109.319 103.806Z" fill="#FCF1D5"/>
<path d="M109.476 111.557C109.424 111.557 109.371 111.557 109.319 111.54C109.319 108.956 109.319 106.39 109.319 103.807C109.371 103.807 109.441 103.807 109.493 103.807C109.808 104.088 109.808 104.474 109.808 104.861C109.826 106.583 109.808 108.306 109.808 110.011C109.808 110.432 109.703 110.819 109.511 111.188C109.511 111.311 109.493 111.434 109.476 111.557Z" fill="#FBE4BD"/>
<path d="M109.494 54.5966C109.441 54.5966 109.389 54.5966 109.319 54.5966C109.319 53.1379 109.319 51.6616 109.319 50.2029C109.669 50.8532 109.441 51.5562 109.476 52.224C109.511 52.9446 109.494 53.6827 109.511 54.4033C109.564 54.4736 109.564 54.5439 109.494 54.5966Z" fill="#FBE5BD"/>
<path d="M109.493 54.5964C109.493 54.5261 109.511 54.4734 109.511 54.4031C121.5 54.4031 133.49 54.4207 145.462 54.4207C148.875 54.4207 152.288 54.4207 155.701 54.4207C156.139 54.034 156.682 54.1395 157.189 54.1043C158.117 54.0692 158.169 54.0164 158.187 53.1201C158.204 52.5401 158.169 51.9602 158.204 51.3802C158.222 51.0111 158.187 50.6245 158.537 50.3433C158.799 51.7141 158.624 53.085 158.624 54.4382C158.624 54.8776 158.537 55.317 158.537 55.7388C158.537 71.3981 158.537 87.0574 158.537 102.734C158.537 103.086 158.519 103.437 158.519 103.789C157.592 103.806 156.647 103.806 155.719 103.824C155.684 103.789 155.631 103.736 155.596 103.701C155.299 103.156 155.386 102.559 155.386 101.979C155.386 86.9344 155.386 71.8902 155.386 56.8284C155.386 54.7194 155.579 54.9128 153.443 54.9128C139.389 54.9128 125.334 54.9128 111.279 54.9128C110.666 54.9303 110.018 55.0534 109.493 54.5964C109.511 54.5964 109.493 54.5964 109.493 54.5964Z" fill="#F8CD84"/>
<path d="M158.537 50.3432C158.52 51.4505 158.485 52.5401 158.502 53.6473C158.52 54.28 158.292 54.4734 157.697 54.4206C157.032 54.3855 156.367 54.4031 155.702 54.4031C155.702 53.208 155.702 51.9953 155.702 50.8002C155.684 49.6051 155.194 48.6736 154.126 48.0761C151.466 46.5822 148.788 45.1059 146.127 43.612C143.922 42.3818 142.627 40.6243 142.749 37.9705C142.784 37.1972 142.942 36.3887 142.592 35.633C142.644 35.6154 142.714 35.5978 142.767 35.5803C143.694 35.1585 144.622 35.1233 145.532 35.6154C145.55 36.3711 145.585 37.1444 145.55 37.9002C145.497 39.3589 146.162 40.3255 147.405 41.0109C150.136 42.5048 152.866 44.0338 155.579 45.5804C157.417 46.6174 158.415 48.2167 158.537 50.3432Z" fill="#F4A34E"/>
<path d="M133.998 24.0512C134.996 24.0512 135.993 24.0512 136.973 24.0512C137.323 24.4027 137.271 24.8597 137.271 25.2815C137.288 26.9687 137.271 28.6735 137.271 30.3607C137.271 30.7122 137.271 31.0637 137.323 31.4152C137.393 31.9073 137.656 32.206 138.164 32.2763C138.689 32.3466 139.074 32.1533 139.301 31.6612C139.476 31.2746 139.459 30.8703 139.459 30.4485C139.476 28.7262 139.459 27.0038 139.459 25.2815C139.459 24.8421 139.406 24.4027 139.756 24.0512C140.982 24.0864 142.242 23.8403 143.449 24.1918C143.117 24.6664 143.047 25.1936 143.047 25.756C143.047 28.568 143.047 31.3624 143.047 34.1744C143.047 34.6314 143.099 35.1059 142.854 35.5453C142.784 35.6507 142.679 35.6859 142.574 35.6683C136.746 35.6507 130.917 35.6507 125.089 35.6332C124.214 35.6332 123.339 35.6332 122.463 35.6332C122.463 32.6981 122.411 29.7631 122.446 26.8105C122.481 25.176 123.741 24.0512 125.421 24.0512C125.666 24.5258 125.544 25.0354 125.544 25.51C125.561 27.0917 125.544 28.6735 125.544 30.2376C125.544 30.677 125.561 31.1164 125.719 31.5382C125.911 32.0654 126.297 32.3115 126.857 32.2763C127.417 32.2412 127.679 31.8897 127.819 31.4152C127.907 31.0812 127.889 30.7122 127.889 30.3782C127.889 28.691 127.889 26.9863 127.889 25.2991C127.889 24.8597 127.837 24.4203 128.187 24.0512C129.185 24.0512 130.182 24.0512 131.162 24.0512C131.512 24.4027 131.46 24.8597 131.46 25.2815C131.477 26.9687 131.46 28.6735 131.46 30.3607C131.46 30.7122 131.46 31.0637 131.512 31.4152C131.582 31.9073 131.845 32.206 132.353 32.2763C132.878 32.3466 133.263 32.1533 133.49 31.6612C133.665 31.2746 133.648 30.8703 133.648 30.4485C133.665 28.7262 133.648 27.0038 133.648 25.2815C133.7 24.8597 133.648 24.4027 133.998 24.0512Z" fill="#5F5260"/>
<path d="M145.532 35.6157C144.605 35.5981 143.677 35.5981 142.767 35.5805C142.767 32.0656 142.767 28.5506 142.749 25.0356C142.749 24.4907 142.802 24.0865 143.484 24.1744C144.745 24.561 145.55 25.4925 145.55 26.7579C145.567 29.7281 145.532 32.6631 145.532 35.6157Z" fill="#4D3E4F"/>
<path d="M128.222 24.051C128.222 26.3182 128.222 28.6029 128.222 30.8701C128.222 32.0476 127.784 32.61 126.892 32.6276C125.824 32.6628 125.316 32.1707 125.264 30.9228C125.211 29.6047 125.211 28.3042 125.264 26.986C125.299 26.0018 125.054 25.0001 125.421 24.051C126.367 24.051 127.294 24.051 128.222 24.051Z" fill="#4D3E4F"/>
<path d="M133.998 24.051C133.998 26.3885 134.015 28.726 133.998 31.0634C133.998 32.1004 133.49 32.6452 132.563 32.6452C131.6 32.6452 131.197 32.2585 131.197 31.2392C131.18 28.849 131.197 26.4412 131.197 24.051C132.143 24.051 133.07 24.051 133.998 24.051Z" fill="#4D3E4F"/>
<path d="M139.774 24.051C139.774 26.3885 139.792 28.726 139.774 31.0634C139.774 32.1004 139.267 32.6452 138.339 32.6452C137.376 32.6452 136.974 32.2585 136.974 31.2392C136.956 28.849 136.974 26.4412 136.974 24.051C137.919 24.051 138.847 24.051 139.774 24.051Z" fill="#4D3E4F"/>
<path d="M109.528 111.188C109.511 108.728 109.511 106.267 109.493 103.807L109.511 103.824C110.001 103.367 110.596 103.49 111.174 103.49C118.717 103.49 126.279 103.49 133.823 103.49C140.579 103.49 147.352 103.49 154.109 103.49C154.651 103.49 155.229 103.402 155.701 103.807V103.842C155.631 105.089 155.789 106.337 155.596 107.603C155.299 109.378 153.303 111.065 151.273 111.065C137.761 110.995 124.248 111.03 110.736 111.03C110.316 111.012 109.896 110.942 109.528 111.188Z" fill="#F6BD57"/>
<path d="M155.701 103.789C148.035 103.789 140.369 103.807 132.685 103.807C124.948 103.807 117.23 103.807 109.493 103.807C109.493 95.7397 109.476 87.6552 109.476 79.5883C109.476 71.2578 109.476 62.9096 109.476 54.5791C124.458 54.5791 139.458 54.5791 154.441 54.5791C155.666 54.5791 155.666 54.5791 155.666 55.8094C155.701 71.8202 155.701 87.8134 155.701 103.789Z" fill="#FADD94"/>
<path d="M124.391 63.4116C123.12 72.3635 126.043 75.7212 134.978 76.9401C136.25 67.9883 133.327 64.6306 124.391 63.4116Z" fill="#81C784"/>
<path d="M134.36 76.3297C141.757 81.4746 146.053 80.3483 151.137 72.8608C143.739 67.7159 139.443 68.8421 134.36 76.3297Z" fill="#81C784"/>
<path d="M132.374 98.4832C131.929 98.4832 131.545 98.1464 131.491 97.6869C130.488 89.1615 132.487 78.147 134.249 74.6034C134.47 74.1592 135.006 73.9776 135.443 74.2034C135.882 74.4282 136.059 74.9716 135.838 75.4158C134.362 78.3825 132.261 89.0106 133.258 97.4738C133.317 97.9686 132.968 98.4182 132.479 98.4768C132.444 98.4815 132.408 98.4832 132.374 98.4832Z" fill="#4CAF50"/>
<path d="M174.637 50.2028C174.637 50.0798 174.637 49.9743 174.637 49.8513C174.882 47.5138 176.247 46.0375 178.26 44.9654C180.675 43.6825 183.038 42.2765 185.436 40.9935C186.871 40.2202 187.659 39.1657 187.501 37.4961C187.466 37.0919 187.484 36.6701 187.519 36.2658C187.536 35.9143 187.589 35.5628 187.992 35.4047C188.394 35.2816 188.797 35.2816 189.199 35.2816C194.958 35.2816 200.699 35.2816 206.457 35.2816C206.86 35.2816 207.28 35.2641 207.665 35.3871C208.155 35.5453 208.295 35.9495 208.33 36.424C208.365 37.004 208.365 37.6015 208.348 38.1815C208.277 40.2729 209.17 41.8723 210.903 42.9619C212.758 44.1219 214.719 45.106 216.609 46.1957C217.642 46.7932 218.709 47.3381 219.724 47.9708C220.687 48.5683 221.195 49.4646 221.265 50.5894C221.335 51.6439 221.3 52.6984 221.282 53.7529C221.265 54.1044 221.23 54.4735 220.827 54.6317C220.39 54.7371 219.952 54.702 219.514 54.702C205.109 54.702 190.704 54.702 176.317 54.702C175.827 54.702 175.319 54.8074 174.864 54.5438C174.567 53.7881 174.794 52.9972 174.724 52.2239C174.672 51.5385 174.829 50.8531 174.637 50.2028Z" fill="#F6BD57"/>
<path d="M223.838 103.807C223.838 106.302 223.873 108.815 223.856 111.311C223.838 112.735 222.875 113.455 221.738 114C206.808 114 191.86 114 176.93 114C175.355 113.631 174.795 112.963 174.742 111.417C174.742 111.258 174.795 111.118 174.9 110.995C175.442 110.573 176.072 110.696 176.668 110.696C187.939 110.696 199.211 110.696 210.483 110.696C212.496 110.696 214.509 110.608 216.504 110.714C218.867 110.837 220.758 108.763 220.705 106.531C220.688 105.968 220.688 105.424 220.723 104.861C220.74 104.474 220.74 104.088 221.003 103.771C221.948 103.35 222.893 103.297 223.838 103.807Z" fill="#F4A34E"/>
<path d="M174.637 103.807C174.637 87.4092 174.637 70.9941 174.637 54.5967C174.689 54.5791 174.759 54.5791 174.812 54.5615C174.899 54.6318 174.969 54.7197 175.021 54.8427C175.179 55.2997 175.144 55.7742 175.144 56.2311C175.144 71.5565 175.144 86.8819 175.144 102.19C175.144 102.594 175.161 103.016 175.074 103.42C175.039 103.525 175.004 103.631 174.934 103.736C174.864 103.824 174.759 103.859 174.637 103.807Z" fill="#FCF1D5"/>
<path d="M174.794 111.557C174.742 111.557 174.689 111.557 174.637 111.54C174.637 108.956 174.637 106.39 174.637 103.807C174.689 103.807 174.759 103.807 174.812 103.807C175.126 104.088 175.126 104.474 175.126 104.861C175.144 106.583 175.126 108.306 175.126 110.011C175.126 110.432 175.021 110.819 174.829 111.188C174.829 111.311 174.812 111.434 174.794 111.557Z" fill="#FBE4BD"/>
<path d="M174.812 54.5966C174.759 54.5966 174.707 54.5966 174.637 54.5966C174.637 53.1379 174.637 51.6616 174.637 50.2029C174.987 50.8532 174.759 51.5562 174.795 52.224C174.83 52.9446 174.812 53.6827 174.83 54.4033C174.882 54.4736 174.882 54.5439 174.812 54.5966Z" fill="#FBE5BD"/>
<path d="M174.812 54.5964C174.812 54.5261 174.829 54.4734 174.829 54.4031C186.819 54.4031 198.808 54.4207 210.78 54.4207C214.193 54.4207 217.606 54.4207 221.019 54.4207C221.457 54.034 222 54.1395 222.507 54.1043C223.435 54.0692 223.487 54.0164 223.505 53.1201C223.522 52.5401 223.487 51.9602 223.522 51.3802C223.54 51.0111 223.505 50.6245 223.855 50.3433C224.117 51.7141 223.942 53.085 223.942 54.4382C223.942 54.8776 223.855 55.317 223.855 55.7388C223.855 71.3981 223.855 87.0574 223.855 102.734C223.855 103.086 223.837 103.437 223.837 103.789C222.91 103.806 221.965 103.806 221.037 103.824C221.002 103.789 220.949 103.736 220.914 103.701C220.617 103.156 220.704 102.559 220.704 101.979C220.704 86.9344 220.704 71.8902 220.704 56.8284C220.704 54.7194 220.897 54.9128 218.762 54.9128C204.707 54.9128 190.652 54.9128 176.597 54.9128C175.984 54.9303 175.337 55.0534 174.812 54.5964C174.829 54.5964 174.812 54.5964 174.812 54.5964Z" fill="#F8CD84"/>
<path d="M223.855 50.3435C223.838 51.4507 223.803 52.5404 223.82 53.6476C223.838 54.2803 223.61 54.4736 223.015 54.4209C222.35 54.3857 221.685 54.4033 221.02 54.4033C221.02 53.2082 221.02 51.9956 221.02 50.8005C221.002 49.6054 220.512 48.6739 219.444 48.0763C216.784 46.5825 214.106 45.1062 211.446 43.6123C209.24 42.382 207.945 40.6245 208.067 37.9707C208.102 37.1974 208.26 36.389 207.91 35.6332C207.962 35.6157 208.032 35.5981 208.085 35.5805C209.013 35.1587 209.94 35.1236 210.85 35.6157C210.868 36.3714 210.903 37.1447 210.868 37.9004C210.815 39.3591 211.481 40.3258 212.723 41.0112C215.454 42.5051 218.184 44.0341 220.897 45.5807C222.735 46.6176 223.733 48.2169 223.855 50.3435Z" fill="#F4A34E"/>
<path d="M199.316 24.0512C200.314 24.0512 201.311 24.0512 202.291 24.0512C202.642 24.4027 202.589 24.8597 202.589 25.2815C202.607 26.9687 202.589 28.6735 202.589 30.3607C202.589 30.7122 202.589 31.0637 202.642 31.4152C202.712 31.9073 202.974 32.206 203.482 32.2763C204.007 32.3466 204.392 32.1533 204.619 31.6612C204.794 31.2746 204.777 30.8703 204.777 30.4485C204.794 28.7262 204.777 27.0038 204.777 25.2815C204.777 24.8421 204.724 24.4027 205.074 24.0512C206.3 24.0864 207.56 23.8403 208.768 24.1918C208.435 24.6664 208.365 25.1936 208.365 25.756C208.365 28.568 208.365 31.3624 208.365 34.1744C208.365 34.6314 208.418 35.1059 208.172 35.5453C208.102 35.6507 207.997 35.6859 207.892 35.6683C202.064 35.6507 196.235 35.6507 190.407 35.6332C189.532 35.6332 188.657 35.6332 187.781 35.6332C187.781 32.6981 187.729 29.7631 187.764 26.8105C187.799 25.176 189.059 24.0512 190.739 24.0512C190.985 24.5258 190.862 25.0354 190.862 25.51C190.88 27.0917 190.862 28.6735 190.862 30.2376C190.862 30.677 190.88 31.1164 191.037 31.5382C191.23 32.0654 191.615 32.3115 192.175 32.2763C192.735 32.2412 192.997 31.8897 193.137 31.4152C193.225 31.0812 193.207 30.7122 193.207 30.3782C193.207 28.691 193.207 26.9863 193.207 25.2991C193.207 24.8597 193.155 24.4203 193.505 24.0512C194.503 24.0512 195.5 24.0512 196.48 24.0512C196.831 24.4027 196.778 24.8597 196.778 25.2815C196.796 26.9687 196.778 28.6735 196.778 30.3607C196.778 30.7122 196.778 31.0637 196.831 31.4152C196.901 31.9073 197.163 32.206 197.671 32.2763C198.196 32.3466 198.581 32.1533 198.808 31.6612C198.983 31.2746 198.966 30.8703 198.966 30.4485C198.983 28.7262 198.966 27.0038 198.966 25.2815C199.018 24.8597 198.966 24.4027 199.316 24.0512Z" fill="#5F5260"/>
<path d="M210.85 35.6157C209.923 35.5981 208.995 35.5981 208.085 35.5806C208.085 32.0656 208.085 28.5506 208.067 25.0356C208.067 24.4907 208.12 24.0865 208.803 24.1744C210.063 24.561 210.868 25.4925 210.868 26.7579C210.885 29.7281 210.85 32.6631 210.85 35.6157Z" fill="#4D3E4F"/>
<path d="M193.54 24.0513C193.54 26.3184 193.54 28.6032 193.54 30.8704C193.54 32.0479 193.103 32.6103 192.21 32.6279C191.142 32.663 190.635 32.1709 190.582 30.9231C190.53 29.605 190.53 28.3044 190.582 26.9863C190.617 26.0021 190.372 25.0003 190.74 24.0513C191.685 24.0513 192.612 24.0513 193.54 24.0513Z" fill="#4D3E4F"/>
<path d="M199.316 24.0513C199.316 26.3887 199.334 28.7262 199.316 31.0637C199.316 32.1006 198.808 32.6454 197.881 32.6454C196.918 32.6454 196.516 32.2588 196.516 31.2394C196.498 28.8492 196.516 26.4415 196.516 24.0513C197.461 24.0513 198.388 24.0513 199.316 24.0513Z" fill="#4D3E4F"/>
<path d="M205.092 24.0513C205.092 26.3887 205.11 28.7262 205.092 31.0637C205.092 32.1006 204.585 32.6454 203.657 32.6454C202.695 32.6454 202.292 32.2588 202.292 31.2394C202.274 28.8492 202.292 26.4415 202.292 24.0513C203.237 24.0513 204.165 24.0513 205.092 24.0513Z" fill="#4D3E4F"/>
<path d="M174.847 111.188C174.829 108.728 174.829 106.267 174.812 103.807L174.829 103.824C175.319 103.367 175.914 103.49 176.492 103.49C184.036 103.49 191.597 103.49 199.141 103.49C205.897 103.49 212.671 103.49 219.427 103.49C219.969 103.49 220.547 103.402 221.019 103.807V103.842C220.949 105.089 221.107 106.337 220.914 107.603C220.617 109.378 218.622 111.065 216.591 111.065C203.079 110.995 189.567 111.03 176.054 111.03C175.634 111.012 175.214 110.942 174.847 111.188Z" fill="#F6BD57"/>
<path d="M221.019 103.789C213.353 103.789 205.687 103.806 198.003 103.806C190.267 103.806 182.548 103.806 174.811 103.806C174.811 95.7395 174.794 87.655 174.794 79.5881C174.794 71.2575 174.794 62.9094 174.794 54.5789C189.777 54.5789 204.777 54.5789 219.759 54.5789C220.984 54.5789 220.984 54.5789 220.984 55.8091C221.019 71.8199 221.019 87.8132 221.019 103.789Z" fill="#FADD94"/>
<path d="M196.513 69.0046C196.527 69.0046 196.541 69.0046 196.559 69.0046C196.638 69.0696 196.684 69.1578 196.73 69.2506C197.6 71.0236 198.295 72.8616 198.795 74.7784C199.193 76.3008 199.461 77.8417 199.623 79.4059C199.739 80.543 199.743 81.6894 199.725 82.8312C199.693 84.9569 199.443 87.0548 198.808 89.0923C198.559 89.8906 198.239 90.6611 197.716 91.3294C197.471 91.645 197.161 91.8539 196.79 91.9838C196.758 91.9838 196.73 91.9838 196.698 91.9838C196.573 91.9467 196.453 91.9467 196.328 91.9838C196.295 91.9838 196.267 91.9838 196.235 91.9838C195.675 91.7936 195.319 91.3712 195.022 90.8931C194.462 89.9788 194.152 88.967 193.912 87.932C193.634 86.7484 193.476 85.5463 193.384 84.3349C193.301 83.2767 193.268 82.2185 193.305 81.1649C193.407 78.589 193.814 76.0641 194.583 73.5996C195.046 72.119 195.61 70.6848 196.295 69.297C196.351 69.1857 196.397 69.0696 196.513 69.0046Z" fill="#785353"/>
<path d="M196.79 91.9837C196.887 91.8213 197.086 91.8213 197.225 91.7145C197.744 91.3154 198.054 90.7723 198.318 90.1968C198.794 89.1618 199.063 88.0664 199.271 86.9525C199.387 86.3259 199.456 85.6947 199.53 85.0635C199.692 83.6897 199.674 82.3065 199.655 80.9281C199.641 80.1066 199.549 79.2897 199.447 78.4728C199.317 77.4099 199.118 76.3656 198.873 75.326C198.651 74.3884 198.378 73.4695 198.058 72.5598C197.637 71.3762 197.147 70.2205 196.586 69.0927C196.573 69.0648 196.573 69.0323 196.563 69.0045C196.772 68.9813 196.929 69.088 197.082 69.2134C198.276 70.1788 199.373 71.2416 200.373 72.4066C200.442 72.4855 200.493 72.583 200.595 72.6387C200.72 72.6944 200.785 72.815 200.868 72.9171C201.595 73.8361 202.266 74.7922 202.812 75.8319C202.849 75.9015 202.895 75.9618 202.932 76.0268C203.719 77.5538 204.261 79.1551 204.441 80.8677C204.515 81.5593 204.524 82.2555 204.45 82.9517C204.261 85.1749 203.576 87.2171 202.21 89.004C202.081 89.1757 201.942 89.3428 201.794 89.496C201.719 89.5749 201.641 89.6491 201.618 89.7605C201.456 89.7976 201.335 89.8905 201.215 90.0019C200.178 90.9673 198.984 91.6217 197.577 91.8723C197.364 91.9094 197.137 91.8909 196.934 91.9837C196.883 91.9837 196.836 91.9837 196.79 91.9837Z" fill="#9A7863"/>
<path d="M196.512 69.0045C195.823 70.3551 195.244 71.7475 194.777 73.1863C194.314 74.6158 193.957 76.0686 193.731 77.5538C193.606 78.3753 193.513 79.1968 193.444 80.023C193.36 81.0626 193.333 82.1069 193.374 83.1419C193.416 84.2141 193.508 85.2862 193.68 86.3491C193.837 87.3238 194.032 88.2845 194.346 89.2221C194.578 89.9183 194.846 90.6006 195.309 91.1854C195.536 91.4685 195.786 91.733 196.133 91.8769C196.184 91.9001 196.235 91.914 196.239 91.979C196.179 91.979 196.114 91.979 196.054 91.979C195.744 91.9233 195.429 91.928 195.119 91.8584C193.374 91.4499 192.009 90.466 190.912 89.0828C189.602 87.4398 188.903 85.5322 188.653 83.4576C188.621 83.193 188.644 82.9192 188.598 82.6546C188.598 82.5293 188.598 82.4086 188.598 82.2833C188.635 82.0512 188.635 81.8192 188.598 81.5871C188.598 81.5082 188.598 81.4339 188.598 81.355C188.699 81.1044 188.672 80.8306 188.709 80.5706C189.037 78.1247 190.051 75.9664 191.463 73.9707C192.736 72.1698 194.258 70.6011 195.971 69.2087C196.128 69.0834 196.295 68.9766 196.512 69.0045Z" fill="#9A7863"/>
<path d="M188.598 81.5872C188.672 81.8192 188.672 82.0513 188.598 82.2834C188.598 82.0513 188.598 81.8192 188.598 81.5872Z" fill="#DEC3A0"/>
<path d="M196.327 91.9836C196.452 91.914 196.573 91.9186 196.698 91.9836C196.573 91.9836 196.452 91.9836 196.327 91.9836Z" fill="#CAA87D"/>
<path d="M201.613 89.7605C201.446 89.6538 201.631 89.5888 201.663 89.547C201.816 89.3428 202.001 89.1711 202.159 88.9669C203.168 87.658 203.802 86.1774 204.154 84.5669C204.269 84.0424 204.334 83.5087 204.385 82.9749C204.524 82.7197 204.746 82.534 204.94 82.3251C206.445 80.6868 207.736 78.8906 208.824 76.9505C209.689 75.4049 210.411 73.7897 210.971 72.1049C211.008 71.9889 211.032 71.8636 211.115 71.7661C211.124 71.7615 211.133 71.7522 211.143 71.7476C211.305 71.8775 211.36 72.0539 211.383 72.2535C211.564 73.9104 211.578 75.5674 211.43 77.229C211.277 78.8952 210.957 80.5289 210.36 82.0977C209.009 85.6344 206.621 88.1268 203.024 89.3985C202.561 89.5563 202.094 89.6956 201.613 89.7605Z" fill="#8C695C"/>
<path d="M202.853 76.0176C202.575 75.5581 202.326 75.0801 202.029 74.6298C201.622 74.0125 201.192 73.4185 200.733 72.8429C200.682 72.778 200.636 72.7037 200.59 72.6387C201.96 72.0864 203.385 71.7522 204.848 71.5619C206.459 71.3484 208.069 71.3206 209.689 71.4273C210.018 71.4505 210.351 71.483 210.68 71.5202C210.856 71.5387 211.022 71.6037 211.143 71.7522L211.134 71.7661C211.078 71.8543 210.985 71.8729 210.897 71.9007C209.597 72.3185 208.343 72.8429 207.121 73.4602C205.727 74.1611 204.404 74.9779 203.145 75.9016C203.052 75.9573 202.983 76.0547 202.853 76.0176Z" fill="#8C695C"/>
<path d="M202.854 76.0176C203.34 75.6788 203.821 75.3307 204.316 75.0104C205.719 74.0961 207.181 73.2978 208.727 72.648C209.514 72.3184 210.31 72.0121 211.125 71.7615C210.893 72.5876 210.574 73.3813 210.25 74.1703C209.935 74.9361 209.569 75.6741 209.181 76.4028C208.477 77.7256 207.686 78.988 206.783 80.1808C206.089 81.1045 205.344 81.9817 204.552 82.8218C204.501 82.8775 204.436 82.9239 204.381 82.9749C204.362 82.65 204.432 82.3298 204.427 82.0049C204.409 80.3386 204.062 78.742 203.4 77.2104C203.228 76.8112 203.039 76.4167 202.854 76.0176Z" fill="#785353"/>
<rect x="57" y="29" width="23" height="7" fill="#F4A34E"/>
<rect x="56" y="35" width="25" height="1" fill="#F6BD57"/>
<rect x="56" y="33" width="25" height="1" fill="#F6BD57"/>
<rect x="56" y="31" width="25" height="1" fill="#F6BD57"/>
<rect x="56" y="29" width="25" height="1" fill="#F6BD57"/>
<path d="M73.8562 14.0262C74.793 14.3694 75.7298 14.7126 76.6501 15.0498C76.8579 15.5003 76.6514 15.9113 76.5063 16.3073C75.9424 17.8976 75.3395 19.4923 74.7591 21.0765C74.6381 21.4065 74.5172 21.7366 74.4456 22.0847C74.3421 22.5708 74.4858 22.9417 74.9382 23.1823C75.4071 23.429 75.8352 23.3799 76.2181 22.9961C76.5155 22.6933 76.6381 22.3077 76.7832 21.9116C77.3921 20.3004 77.9682 18.6772 78.5607 17.0599C78.7118 16.6474 78.8137 16.2168 79.2633 16.0071C80.4016 16.4616 81.6696 16.6641 82.6826 17.4096C82.2071 17.7408 81.96 18.2118 81.7666 18.7398C80.7992 21.3802 79.8379 24.0041 78.8706 26.6445C78.7134 27.0735 78.5995 27.5372 78.2182 27.8654C78.1162 27.9403 78.0055 27.9372 77.9129 27.8846C72.4462 25.8631 66.9734 23.858 61.5067 21.8365C60.685 21.5354 59.8632 21.2344 59.0415 20.9333C60.0512 18.1774 61.0115 15.4035 62.0601 12.6431C62.6552 11.1204 64.2255 10.4978 65.8032 11.0758C65.8701 11.6057 65.5797 12.0421 65.4164 12.4877C64.8887 13.9789 64.3282 15.4581 63.7901 16.9268C63.639 17.3394 63.5042 17.758 63.5071 18.2082C63.5065 18.7695 63.7834 19.133 64.3214 19.2927C64.8594 19.4523 65.2268 19.2126 65.5215 18.8152C65.7186 18.5318 65.8291 18.1792 65.944 17.8657C66.5244 16.2814 67.1108 14.6807 67.6912 13.0965C67.8424 12.6839 67.9442 12.2533 68.3999 12.0272C69.3367 12.3704 70.2735 12.7136 71.1938 13.0508C71.4016 13.5012 71.1951 13.9122 71.05 14.3083C70.486 15.8985 69.8831 17.4932 69.3027 19.0775C69.1818 19.4075 69.0609 19.7376 68.9893 20.0857C68.8857 20.5718 69.0295 20.9427 69.4819 21.1833C69.9508 21.43 70.3788 21.3809 70.7618 20.9971C71.0591 20.6943 71.1817 20.3087 71.3268 19.9126C71.9358 18.3014 72.5118 16.6782 73.1043 15.0609C73.2987 14.6829 73.4066 14.2358 73.8562 14.0262Z" fill="#5F5260"/>
<path d="M80.7085 28.8528C79.8435 28.5172 78.9725 28.1981 78.1239 27.8685C79.3331 24.568 80.5423 21.2675 81.735 17.961C81.9224 17.4495 82.1108 17.088 82.7215 17.4053C83.7718 18.2019 84.2074 19.3535 83.7721 20.5416C82.7668 23.3366 81.7242 26.0804 80.7085 28.8528Z" fill="#4D3E4F"/>
<path d="M68.4328 12.0394C67.6529 14.1682 66.8669 16.3135 66.087 18.4423C65.6819 19.548 65.0776 19.9255 64.2334 19.635C63.2188 19.3007 62.9114 18.664 63.2914 17.4743C63.6955 16.2185 64.1429 14.9974 64.6457 13.7777C65.0171 12.8657 65.1316 11.8407 65.8032 11.076C66.6907 11.4012 67.5618 11.7203 68.4328 12.0394Z" fill="#4D3E4F"/>
<path d="M73.8566 14.0264C73.0525 16.2212 72.2648 18.422 71.4443 20.6108C71.0876 21.5844 70.4235 21.9214 69.5525 21.6023C68.6486 21.2711 68.4036 20.7696 68.7543 19.8124C69.5601 17.5621 70.4048 15.3073 71.227 13.063C72.1145 13.3881 72.9856 13.7072 73.8566 14.0264Z" fill="#4D3E4F"/>
<path d="M79.2804 16.0134C78.4763 18.2082 77.6887 20.4091 76.8681 22.5979C76.5114 23.5715 75.8474 23.9085 74.9763 23.5893C74.0724 23.2582 73.8274 22.7566 74.1781 21.7995C74.9839 19.5492 75.8286 17.2944 76.6509 15.05C77.5383 15.3752 78.4094 15.6943 79.2804 16.0134Z" fill="#4D3E4F"/>
</svg>
