<svg width="245" height="138" viewBox="0 0 245 138" fill="none" xmlns="http://www.w3.org/2000/svg">
<path d="M171.968 92.0995C171.968 90.185 172.501 88.6945 173.569 87.6279C174.636 86.5614 176.123 86.0281 178.028 86.0281C179.981 86.0281 181.486 86.5534 182.543 87.6039C183.6 88.6491 184.128 90.1157 184.128 92.0035C184.128 93.374 183.896 94.4992 183.432 95.3791C182.973 96.2537 182.306 96.9363 181.43 97.4269C180.56 97.9122 179.474 98.1548 178.172 98.1548C176.848 98.1548 175.752 97.9442 174.882 97.5229C174.017 97.1016 173.315 96.435 172.776 95.5231C172.237 94.6112 171.968 93.47 171.968 92.0995ZM175.594 92.1155C175.594 93.2993 175.813 94.1499 176.251 94.6672C176.694 95.1845 177.294 95.4431 178.052 95.4431C178.831 95.4431 179.434 95.1898 179.861 94.6832C180.288 94.1766 180.502 93.2673 180.502 91.9555C180.502 90.8516 180.278 90.0463 179.829 89.5397C179.386 89.0278 178.783 88.7718 178.02 88.7718C177.289 88.7718 176.702 89.0304 176.259 89.5477C175.816 90.065 175.594 90.9209 175.594 92.1155Z" fill="#EE4A13"/>
<path d="M156.364 128.48C156.364 126.565 156.897 125.075 157.965 124.008C159.032 122.942 160.519 122.408 162.424 122.408C164.377 122.408 165.882 122.934 166.939 123.984C167.996 125.03 168.524 126.496 168.524 128.384C168.524 129.754 168.292 130.88 167.828 131.759C167.369 132.634 166.702 133.317 165.826 133.807C164.956 134.293 163.87 134.535 162.568 134.535C161.244 134.535 160.148 134.325 159.278 133.903C158.413 133.482 157.711 132.815 157.172 131.903C156.633 130.992 156.364 129.85 156.364 128.48ZM159.99 128.496C159.99 129.68 160.209 130.53 160.647 131.048C161.09 131.565 161.69 131.823 162.448 131.823C163.227 131.823 163.83 131.57 164.257 131.064C164.684 130.557 164.898 129.648 164.898 128.336C164.898 127.232 164.674 126.427 164.225 125.92C163.782 125.408 163.179 125.152 162.416 125.152C161.685 125.152 161.098 125.411 160.655 125.928C160.212 126.445 159.99 127.301 159.99 128.496Z" fill="#EE4A13"/>
<path d="M113.02 21.0714C113.02 19.1569 113.553 17.6664 114.621 16.5998C115.688 15.5333 117.174 15 119.08 15C121.033 15 122.538 15.5253 123.595 16.5758C124.652 17.6211 125.18 19.0876 125.18 20.9754C125.18 22.3459 124.948 23.4711 124.483 24.351C124.024 25.2256 123.357 25.9082 122.482 26.3988C121.612 26.8841 120.526 27.1268 119.224 27.1268C117.9 27.1268 116.803 26.9161 115.934 26.4948C115.069 26.0735 114.367 25.4069 113.828 24.495C113.289 23.5831 113.02 22.4419 113.02 21.0714ZM116.646 21.0874C116.646 22.2713 116.865 23.1218 117.302 23.6391C117.745 24.1564 118.346 24.415 119.104 24.415C119.883 24.415 120.486 24.1617 120.913 23.6551C121.34 23.1485 121.553 22.2393 121.553 20.9274C121.553 19.8235 121.329 19.0183 120.881 18.5116C120.438 17.9997 119.835 17.7437 119.072 17.7437C118.341 17.7437 117.753 18.0024 117.31 18.5196C116.868 19.0369 116.646 19.8928 116.646 21.0874Z" fill="#EE4A13"/>
<path d="M113.02 110.282H116.521L121.091 116.99V110.282H124.626V122.408H121.091L116.546 115.75V122.408H113.02V110.282Z" fill="#EE4A13"/>
<path d="M140.76 62.6409H144.16L148.597 69.3495V62.6409H152.029V74.7676H148.597L144.184 68.1087V74.7676H140.76V62.6409Z" fill="#EE4A13"/>
<path d="M141.627 102.737L145.077 102.521C145.152 103.081 145.304 103.508 145.534 103.801C145.907 104.276 146.441 104.513 147.135 104.513C147.652 104.513 148.05 104.393 148.328 104.153C148.61 103.908 148.752 103.625 148.752 103.305C148.752 103.001 148.618 102.729 148.352 102.489C148.085 102.249 147.466 102.023 146.494 101.809C144.904 101.452 143.77 100.978 143.092 100.386C142.409 99.7937 142.067 99.0391 142.067 98.1218C142.067 97.5192 142.241 96.9513 142.588 96.418C142.94 95.8794 143.466 95.4581 144.165 95.1541C144.869 94.8448 145.833 94.6902 147.055 94.6902C148.554 94.6902 149.697 94.9702 150.481 95.5301C151.271 96.0847 151.741 96.97 151.89 98.1858L148.472 98.3858C148.381 97.8579 148.189 97.4739 147.895 97.2339C147.607 96.994 147.207 96.874 146.694 96.874C146.273 96.874 145.955 96.9646 145.742 97.1459C145.528 97.3219 145.422 97.5379 145.422 97.7939C145.422 97.9805 145.51 98.1485 145.686 98.2978C145.857 98.4525 146.262 98.5965 146.903 98.7298C148.488 99.0711 149.622 99.4177 150.305 99.7697C150.993 100.116 151.492 100.548 151.802 101.066C152.117 101.583 152.274 102.161 152.274 102.801C152.274 103.553 152.066 104.247 151.65 104.881C151.234 105.516 150.652 105.998 149.905 106.329C149.157 106.654 148.216 106.817 147.079 106.817C145.083 106.817 143.7 106.433 142.932 105.665C142.163 104.897 141.728 103.921 141.627 102.737Z" fill="#EE4A13"/>
<path d="M113.02 125.873H116.77V130.117H120.868V125.873H124.634V138H120.868V133.095H116.77V138H113.02V125.873Z" fill="#EE4A13"/>
<path d="M203.296 69.7336L205.683 70.4547C205.523 71.1237 205.271 71.6826 204.926 72.1313C204.581 72.58 204.152 72.9185 203.639 73.1469C203.13 73.3752 202.48 73.4894 201.69 73.4894C200.732 73.4894 199.948 73.3512 199.339 73.0748C198.733 72.7943 198.21 72.3036 197.769 71.6025C197.328 70.9014 197.107 70.004 197.107 68.9103C197.107 67.4521 197.494 66.3323 198.268 65.5511C199.046 64.7659 200.145 64.3733 201.564 64.3733C202.674 64.3733 203.546 64.5976 204.18 65.0463C204.817 65.495 205.291 66.1841 205.599 67.1135L203.194 67.6484C203.109 67.3799 203.021 67.1836 202.929 67.0594C202.777 66.8511 202.59 66.6909 202.37 66.5787C202.149 66.4665 201.903 66.4104 201.63 66.4104C201.013 66.4104 200.539 66.6588 200.211 67.1556C199.962 67.5242 199.838 68.1031 199.838 68.8923C199.838 69.8698 199.986 70.5408 200.283 70.9054C200.58 71.266 200.997 71.4462 201.534 71.4462C202.055 71.4462 202.448 71.3 202.713 71.0076C202.981 70.7151 203.176 70.2904 203.296 69.7336Z" fill="#EE4A13"/>
<path d="M207.025 64.5235H209.749V67.6063H212.726V64.5235H215.462V73.3332H212.726V69.7696H209.749V73.3332H207.025V64.5235Z" fill="#EE4A13"/>
<path d="M218.099 72.6529L216.71 72.4041C216.825 71.9618 217.046 71.6229 217.374 71.3873C217.703 71.1518 218.169 71.034 218.77 71.034C219.46 71.034 219.96 71.1626 220.268 71.4198C220.575 71.677 220.729 72.0003 220.729 72.3897C220.729 72.618 220.667 72.8248 220.542 73.0099C220.417 73.1949 220.228 73.3572 219.975 73.4966C220.18 73.5471 220.336 73.606 220.444 73.6733C220.62 73.7814 220.756 73.9245 220.852 74.1023C220.951 74.2778 221 74.4881 221 74.7333C221 75.041 220.919 75.3367 220.758 75.6203C220.597 75.9015 220.365 76.1191 220.062 76.2729C219.759 76.4243 219.361 76.5001 218.867 76.5001C218.386 76.5001 218.006 76.4436 217.727 76.3306C217.451 76.2176 217.222 76.053 217.042 75.8366C216.864 75.6179 216.726 75.3439 216.63 75.0146L218.099 74.8199C218.157 75.1155 218.246 75.321 218.366 75.4364C218.489 75.5494 218.644 75.6059 218.831 75.6059C219.029 75.6059 219.192 75.5338 219.322 75.3895C219.454 75.2453 219.521 75.053 219.521 74.8126C219.521 74.5675 219.457 74.3776 219.329 74.243C219.204 74.1084 219.033 74.041 218.817 74.041C218.702 74.041 218.543 74.0699 218.341 74.1276L218.416 73.0784C218.498 73.0904 218.562 73.0964 218.608 73.0964C218.8 73.0964 218.96 73.0351 219.088 72.9125C219.218 72.7899 219.282 72.6445 219.282 72.4762C219.282 72.3152 219.234 72.1866 219.138 72.0904C219.042 71.9943 218.91 71.9462 218.741 71.9462C218.568 71.9462 218.427 71.9991 218.319 72.1049C218.211 72.2082 218.137 72.3909 218.099 72.6529Z" fill="#EE4A13"/>
<path d="M172.088 20.3603L174.475 21.0814C174.315 21.7504 174.062 22.3093 173.718 22.758C173.373 23.2067 172.944 23.5452 172.431 23.7736C171.921 24.0019 171.272 24.1161 170.482 24.1161C169.524 24.1161 168.74 23.9779 168.131 23.7015C167.525 23.421 167.002 22.9303 166.561 22.2292C166.12 21.5281 165.899 20.6307 165.899 19.537C165.899 18.0788 166.286 16.959 167.06 16.1778C167.838 15.3926 168.937 15 170.356 15C171.466 15 172.338 15.2243 172.972 15.673C173.609 16.1217 174.083 16.8108 174.391 17.7402L171.986 18.2751C171.901 18.0067 171.813 17.8103 171.721 17.6862C171.569 17.4778 171.382 17.3176 171.162 17.2054C170.941 17.0932 170.695 17.0372 170.422 17.0372C169.805 17.0372 169.331 17.2855 169.003 17.7823C168.754 18.1509 168.63 18.7298 168.63 19.519C168.63 20.4965 168.778 21.1675 169.075 21.5321C169.372 21.8927 169.789 22.0729 170.326 22.0729C170.847 22.0729 171.24 21.9267 171.505 21.6343C171.773 21.3418 171.968 20.9172 172.088 20.3603Z" fill="#EE4A13"/>
<path d="M175.817 15.1502H178.541V18.233H181.518V15.1502H184.254V23.9599H181.518V20.3963H178.541V23.9599H175.817V15.1502Z" fill="#EE4A13"/>
<path d="M186.891 23.2796L185.502 23.0308C185.617 22.5885 185.838 22.2496 186.166 22.0141C186.495 21.7785 186.961 21.6607 187.562 21.6607C188.252 21.6607 188.752 21.7893 189.06 22.0465C189.367 22.3037 189.521 22.627 189.521 23.0164C189.521 23.2448 189.459 23.4515 189.334 23.6366C189.209 23.8216 189.02 23.9839 188.767 24.1233C188.972 24.1738 189.128 24.2327 189.236 24.3C189.412 24.4082 189.548 24.5512 189.644 24.7291C189.743 24.9045 189.792 25.1148 189.792 25.36C189.792 25.6677 189.711 25.9634 189.55 26.247C189.389 26.5282 189.157 26.7458 188.854 26.8996C188.551 27.051 188.153 27.1268 187.659 27.1268C187.178 27.1268 186.798 27.0703 186.519 26.9573C186.243 26.8443 186.014 26.6797 185.834 26.4633C185.656 26.2446 185.518 25.9706 185.422 25.6413L186.891 25.4466C186.949 25.7422 187.038 25.9477 187.158 26.0631C187.281 26.1761 187.436 26.2326 187.623 26.2326C187.821 26.2326 187.984 26.1605 188.114 26.0162C188.246 25.872 188.313 25.6797 188.313 25.4394C188.313 25.1942 188.249 25.0043 188.121 24.8697C187.996 24.7351 187.825 24.6678 187.609 24.6678C187.494 24.6678 187.335 24.6966 187.133 24.7543L187.208 23.7051C187.29 23.7171 187.354 23.7231 187.4 23.7231C187.592 23.7231 187.752 23.6618 187.88 23.5392C188.01 23.4166 188.074 23.2712 188.074 23.1029C188.074 22.9419 188.026 22.8133 187.93 22.7171C187.834 22.621 187.702 22.5729 187.533 22.5729C187.36 22.5729 187.219 22.6258 187.111 22.7316C187.003 22.8349 186.929 23.0176 186.891 23.2796Z" fill="#EE4A13"/>
<path fill-rule="evenodd" clip-rule="evenodd" d="M64.3951 51.6124C63.8587 51.3029 63.1978 51.3029 62.6614 51.6124L35.8669 67.0699C35.3305 67.3794 35 67.9513 35 68.5702V99.4853C35 100.104 35.3305 100.676 35.8669 100.986L62.6614 116.443C63.1978 116.753 63.8587 116.753 64.3951 116.443L91.1896 100.986C91.7261 100.676 92.0565 100.104 92.0565 99.4853V68.5702C92.0565 67.9513 91.7261 67.3794 91.1896 67.0699L64.3951 51.6124ZM64.3951 55.0779C63.8587 54.7684 63.1978 54.7684 62.6614 55.0779L38.8698 68.803C38.3334 69.1125 38.0029 69.6844 38.0029 70.3033V97.7536C38.0029 98.3725 38.3334 98.9445 38.8698 99.2539L62.6614 112.979C63.1978 113.289 63.8587 113.289 64.3951 112.979L88.1866 99.2539C88.7231 98.9445 89.0535 98.3725 89.0535 97.7536V70.3033C89.0535 69.6844 88.7231 69.1125 88.1866 68.803L64.3951 55.0779Z" fill="#5181B8"/>
<path d="M40.2013 72.8186C40.2013 71.9815 40.8805 71.3028 41.7184 71.3028C42.5562 71.3028 43.2354 71.9815 43.2354 72.8186V95.7729C43.2354 96.6101 42.5562 97.2887 41.7184 97.2887C40.8805 97.2887 40.2013 96.6101 40.2013 95.7729V72.8186Z" fill="#5181B8"/>
<path d="M113.886 31.2412C113.886 30.404 114.566 29.7253 115.404 29.7253C116.241 29.7253 116.921 30.404 116.921 31.2412V52.463C116.921 53.3002 116.241 53.9789 115.404 53.9789C114.566 53.9789 113.886 53.3002 113.886 52.463V31.2412Z" fill="#5181B8"/>
<path d="M119.955 31.2412C119.955 30.404 120.634 29.7253 121.472 29.7253C122.31 29.7253 122.989 30.404 122.989 31.2412V52.463C122.989 53.3002 122.31 53.9789 121.472 53.9789C120.634 53.9789 119.955 53.3002 119.955 52.463V31.2412Z" fill="#5181B8"/>
<path d="M172.835 31.2412C172.835 30.404 173.514 29.7253 174.352 29.7253C175.189 29.7253 175.869 30.404 175.869 31.2412V52.463C175.869 53.3002 175.189 53.9789 174.352 53.9789C173.514 53.9789 172.835 53.3002 172.835 52.463V31.2412Z" fill="#5181B8"/>
<path d="M83.9488 96.3142C84.6744 95.8957 85.6022 96.1441 86.0211 96.8691C86.44 97.5941 86.1914 98.5212 85.4658 98.9398L65.5711 110.417C64.8455 110.835 63.9177 110.587 63.4988 109.862C63.0799 109.137 63.3285 108.21 64.0541 107.791L83.9488 96.3142Z" fill="#5181B8"/>
<path d="M64.0541 60.8272C63.3285 60.4086 63.0799 59.4816 63.4988 58.7565C63.9177 58.0315 64.8456 57.7831 65.5711 58.2017L85.4659 69.6788C86.1914 70.0974 86.44 71.0245 86.0211 71.7495C85.6022 72.4745 84.6744 72.7229 83.9488 72.3043L64.0541 60.8272Z" fill="#5181B8"/>
<path d="M119.087 54.3358C119.812 53.9172 120.061 52.9902 119.642 52.2651C119.223 51.5401 118.295 51.2917 117.57 51.7103L90.9274 67.08C90.2018 67.4986 89.9532 68.4256 90.3721 69.1507C90.791 69.8757 91.7188 70.1241 92.4444 69.7055L119.087 54.3358Z" fill="#5181B8"/>
<path d="M174.94 53.8977C175.665 53.4791 175.914 52.552 175.495 51.827C175.076 51.102 174.148 50.8535 173.423 51.2721L155.077 61.8557C154.351 62.2743 154.103 63.2014 154.522 63.9264C154.941 64.6514 155.868 64.8998 156.594 64.4813L174.94 53.8977Z" fill="#5181B8"/>
<path d="M117.801 54.3358C117.075 53.9172 116.827 52.9902 117.246 52.2651C117.665 51.5401 118.592 51.2917 119.318 51.7103L137.928 62.4462C138.653 62.8648 138.902 63.7919 138.483 64.5169C138.064 65.2419 137.136 65.4903 136.411 65.0717L117.801 54.3358Z" fill="#5181B8"/>
<path d="M174.148 53.8977C173.423 53.4791 173.174 52.552 173.593 51.827C174.012 51.102 174.94 50.8535 175.665 51.2721L194.275 62.008C195.001 62.4266 195.249 63.3537 194.831 64.0787C194.412 64.8037 193.484 65.0521 192.758 64.6335L174.148 53.8977Z" fill="#5181B8"/>
<path d="M110.876 110.546C111.601 110.965 111.85 111.892 111.431 112.617C111.012 113.342 110.084 113.591 109.359 113.172L89.8048 101.891C89.0792 101.473 88.8306 100.546 89.2495 99.8208C89.6685 99.0958 90.5963 98.8474 91.3219 99.266L110.876 110.546Z" fill="#5181B8"/>
<path d="M137.087 103.746C137.812 103.328 138.74 103.576 139.159 104.301C139.578 105.026 139.33 105.953 138.604 106.372L127.987 112.497C127.261 112.915 126.333 112.667 125.914 111.942C125.496 111.217 125.744 110.29 126.47 109.871L137.087 103.746Z" fill="#5181B8"/>
<path d="M166.251 90.7315C167.063 90.5259 167.888 91.017 168.094 91.8285C168.3 92.6401 167.808 93.4646 166.996 93.6703L155.112 96.6797C154.3 96.8854 153.475 96.3942 153.269 95.5827C153.063 94.7712 153.555 93.9466 154.367 93.7409L166.251 90.7315Z" fill="#5181B8"/>
<path d="M161.644 117.965C162.053 118.696 161.792 119.619 161.06 120.028C160.329 120.437 159.405 120.176 158.996 119.445L153.011 108.754C152.602 108.023 152.863 107.1 153.594 106.691C154.325 106.282 155.25 106.543 155.659 107.274L161.644 117.965Z" fill="#5181B8"/>
<path d="M167.985 95.9287C168.797 95.7231 169.622 96.2142 169.828 97.0257C170.034 97.8372 169.542 98.6618 168.73 98.8675L156.846 101.877C156.034 102.083 155.209 101.591 155.003 100.78C154.797 99.9684 155.288 99.1438 156.101 98.9381L167.985 95.9287Z" fill="#5181B8"/>
<path d="M157.068 120.984C157.478 121.715 157.216 122.638 156.485 123.047C155.754 123.456 154.83 123.195 154.421 122.464L148.436 111.773C148.027 111.042 148.288 110.119 149.019 109.71C149.75 109.301 150.675 109.562 151.084 110.293L157.068 120.984Z" fill="#5181B8"/>
<path d="M145.094 78.882C145.094 78.0449 145.773 77.3662 146.611 77.3662C147.449 77.3662 148.128 78.0449 148.128 78.882V91.132C148.128 91.9691 147.449 92.6478 146.611 92.6478C145.773 92.6478 145.094 91.9691 145.094 91.132V78.882Z" fill="#5181B8"/>
</svg>
