<svg width="101" height="97" fill="none" xmlns="http://www.w3.org/2000/svg"><g clip-path="url(#a)" fill="#512A00"><path d="M100.265 83.963C91.766 91.59 78.528 94.46 67.579 96.016c-11.032 1.558-26.231 2.378-35.056-6.067-6.538-6.314-6.292-17.22-1.635-24.599 5.557-8.61 18.305-7.133 26.558-3.853-.327.737-.736 1.475-1.062 2.213-4.495-2.132-8.662-4.51-10.868-9.183-1.717-3.69-1.798-8.282-1.226-12.217.572-3.854 1.716-7.872 5.475-9.594 4.249-2.05 8.825-1.312 13.074.246 9.56 3.608 16.915 12.135 22.39 20.499 3.187 4.838 4.004 10.413 6.374 15.579 2.043 4.51 5.066 10.085 8.743 13.365 1.144 1.066-.408 2.952-1.634 1.886-4.494-4.1-8.335-11.07-10.296-16.809-1.634-4.674-2.778-9.183-5.638-13.283-2.534-3.772-5.557-7.626-8.744-10.823-5.311-5.248-18.55-14.76-25.168-6.806-2.779 3.362-2.942 9.675-2.125 13.775 1.144 5.904 5.557 8.774 10.623 11.07 1.471.656.409 2.787-1.062 2.213-8.253-3.28-20.266-4.263-24.596 5.166-4.331 9.511-.9 19.515 8.988 23.287 9.316 3.607 20.43 2.46 30.072.82 9.07-1.476 20.592-4.346 27.537-10.66 1.308-.902 3.106.738 1.962 1.722Z"/><path d="M100.183 84.209c-2.778 1.066-7.6-1.722-10.05-2.624-5.476-2.05-10.706-4.182-15.935-6.806-10.705-5.33-20.592-12.217-30.153-19.268-9.56-7.134-17.978-15.252-25.25-24.68-3.514-4.593-7.028-9.266-10.215-14.104C5.475 11.971 3.432 6.477.246 1.967-.654.657 1.39-.655 2.288.575 5.148 4.51 6.864 9.347 9.48 13.529c2.779 4.51 5.966 8.692 9.152 12.955 6.946 9.348 14.71 17.547 23.943 24.763 8.989 7.051 18.794 14.103 28.927 19.433 4.413 2.295 8.907 4.591 13.483 6.395 2.533.984 5.148 1.886 7.681 2.87 1.553.574 5.067 2.624 6.701 1.968 1.553-.574 2.288 1.722.817 2.296Z"/><path d="M52.544 59.693c3.514 5.247 5.802 11.069 8.662 16.645 1.47 2.951 3.35 5.657 4.903 8.527 1.47 2.706 3.105 5.822 5.148 8.118 1.062 1.147-.572 3.033-1.635 1.885-3.922-4.427-6.864-10.413-9.724-15.579-3.35-5.985-5.638-12.38-9.397-18.12-.899-1.476 1.144-2.788 2.043-1.476Zm8.661 7.133h-.245c.408-.656.817-1.23 1.226-1.886 2.696 5.002 6.619 9.757 10.296 13.94 3.35 3.77 6.374 8.199 10.541 11.15 1.144.82-.163 2.706-1.307 2.05-.082 0-.164-.082-.246-.082-1.389-.738-.326-2.952 1.063-2.214.081 0 .163.082.245.082-.409.656-.899 1.394-1.308 2.05C77.058 88.72 73.544 83.8 70.03 79.7c-3.514-4.018-7.19-8.691-9.724-13.447-.49-.902.164-2.05 1.226-1.886h.245c1.47.246.98 2.624-.572 2.46ZM89.641 89.62c-2.615-1.476-4.821-4.591-6.782-6.887a41.83 41.83 0 0 0-3.677-3.936c-.736-.656-1.145-1.066-1.226-2.132-.164-1.558 2.288-1.804 2.451-.164 0 .41 1.635 1.558 1.961 1.886.818.82 1.553 1.722 2.288 2.706a57.407 57.407 0 0 0 3.024 3.28c.899.902 1.961 2.46 3.105 3.116 1.226.737.163 2.951-1.144 2.131Z"/><path d="M81.307 76.42c0 .081 0 .163-.082.245-.408-.492-.899-.984-1.307-1.476 1.226-.164 2.37-.655 3.514-.901 1.225-.246 2.451-.41 3.677-.82.817-.246 1.634-.574 2.451-.902.49-.164 1.39-.246 1.798-.574 1.226-.984 2.533 1.066 1.39 2.05-.491.41-1.308.573-1.88.737-.98.328-1.962.738-3.024 1.066-1.144.328-2.288.492-3.432.738-1.47.328-2.86.82-4.33 1.066-.818.082-1.472-.738-1.308-1.476 0-.082 0-.164.082-.246.326-1.476 2.778-1.066 2.451.492ZM62.595 64.202c5.23-.574 10.378-1.066 15.608-1.804 3.432-.492 6.945-.738 10.377-.574 1.553.082 1.145 2.542-.408 2.46-3.596-.164-7.436.328-11.032.738-4.82.574-9.56 1.066-14.382 1.64-1.552.164-1.716-2.296-.163-2.46ZM52.624 59.2c9.724-3.28 20.265-6.231 30.398-7.707-.245.738-.49 1.394-.735 2.132-.082-.082-.164-.082-.164-.164-1.226-1.066.409-2.87 1.634-1.886.082.082.082.164.164.246.817.738.327 1.968-.736 2.132-9.969 1.476-20.183 4.345-29.744 7.543-1.47.492-2.288-1.804-.817-2.296Zm-5.718-6.56c1.553-1.475 3.922-2.05 5.884-2.787 3.023-1.148 6.292-1.886 9.315-3.034 5.23-1.886 9.56-1.968 15.2-1.722 1.552.082 1.797 2.542.163 2.46-4.903-.164-9.316-.328-13.974 1.394-2.288.902-4.657 1.476-6.945 2.296-2.125.738-6.13 1.475-7.763 3.115-1.144 1.066-3.024-.574-1.88-1.721Zm-1.146-7.789-.244-.246c-.572-.492-.49-1.476.163-1.968 1.961-1.23 4.331-1.886 6.374-2.952a37.244 37.244 0 0 1 6.537-2.541c1.88-.574 3.922-1.066 5.884-1.066 1.552 0 2.778.656 4.249.82 1.552.164 1.144 2.623-.409 2.46-1.225-.164-2.37-.738-3.595-.82-2.125-.164-4.413.656-6.456 1.312-2.043.655-3.84 1.475-5.801 2.46-1.717.901-3.76 1.393-5.394 2.46.082-.657.082-1.313.164-1.969l.245.246c1.144.984-.49 2.788-1.716 1.804Zm13.565 51.083c-4.985-4.1-7.437-9.84-9.316-15.825-1.144-3.608-2.615-7.133-4.086-10.66-.98-2.46-1.307-6.64-3.187-8.609-1.062-1.148.49-3.034 1.635-1.886 1.47 1.558 1.96 3.854 2.615 5.822 1.062 3.362 2.533 6.56 3.84 9.84 2.615 7.05 4.086 14.349 10.215 19.35 1.062 1.148-.49 3.034-1.716 1.968Zm-13.073-.41c-4.004-3.526-6.537-8.773-8.09-13.775-1.88-6.068-2.942-12.791-4.25-19.023-.163-.902.41-1.804 1.39-1.64.082 0 .163 0 .245.082 1.553.328 1.144 2.706-.408 2.46-.082 0-.164 0-.245-.082.49-.574.898-1.066 1.389-1.64 1.144 5.248 2.451 10.495 3.513 15.825 1.144 5.822 3.514 11.971 8.09 15.99 1.226.983-.408 2.869-1.634 1.803Z"/></g><defs><clipPath id="a"><path fill="#fff" transform="matrix(-1 0 0 1 101 0)" d="M0 0h101v97H0z"/></clipPath></defs></svg>