<svg width="199" height="147" fill="none" xmlns="http://www.w3.org/2000/svg"><g clip-path="url(#a)" fill="#79C800"><path d="M.817 132.111H.584c-1.517-.233.467 2.217.933 2.451 21.708 10.503 48.667 13.771 72.358 10.737 27.426-3.501 61.854-14.705 75.742-40.731 5.485-10.27 8.403-24.391 7.002-35.945-1.4-11.437-9.803-19.723-19.84-24.742-10.736-5.368-21.824-3.384-32.911-.35-6.652 1.868-12.137 5.135-17.972 8.637-6.77 4.201-13.421 8.052-19.023 13.888-6.186 6.302-12.254 12.837-18.09 19.606-5.368 6.185-10.036 12.954-15.288 19.14-5.135 5.952-9.337 12.371-14.822 18.206-2.567 2.684-5.485 5.252-8.636 7.119-3.034 1.751-6.185 1.751-9.453 2.801.7.817 1.4 1.751 2.217 2.568.234-.117.467-.234.7-.467 1.167-.701-1.283-3.268-2.217-2.568-.233.117-.467.234-.7.467-1.284.817 1.167 2.918 2.217 2.568 4.085-1.168 7.47-1.401 11.087-3.852 5.135-3.501 9.687-8.052 13.538-12.954 7.47-9.337 14.238-19.023 21.94-28.243C66.29 70.14 86.48 49.95 113.323 44.348c14.821-3.034 33.844 1.517 39.329 17.623 3.852 11.087.351 26.492-4.084 36.996-10.854 25.675-41.431 36.529-66.523 42.014a122.547 122.547 0 0 1-45.165 1.4c-11.787-1.867-24.741-4.785-35.478-10.037.35.817.583 1.634.933 2.451h.234c1.284.234-.7-2.451-1.75-2.684Z"/><path d="M5.952 136.546c10.037-2.568 19.957-5.485 30.11-7.586 9.92-2.101 19.724-4.435 29.177-7.819 18.906-6.886 37.229-16.806 53.568-28.477 16.922-12.137 31.744-26.842 45.398-42.247 13.071-14.822 25.092-30.46 34.662-47.85.583-1.166-2.101-3.267-2.568-2.333-9.569 17.389-21.59 33.027-34.661 47.849-13.188 14.822-27.426 29.06-43.531 40.847-16.573 12.254-35.479 22.407-54.969 29.526-9.57 3.502-19.373 5.719-29.176 7.82-10.154 2.217-20.074 5.018-30.11 7.586-1.168.35.933 2.917 2.1 2.684Z"/><path d="M21.24 137.83c-.116 0-.116.116-.233.116-.817.584 1.517 3.035 2.334 2.451 6.77-4.084 14.122-7.119 20.307-11.904.584-.467-.467-1.634-.7-1.867-2.45-1.984-5.835-3.151-8.753-4.085-2.217-.817-4.435-1.634-6.652-2.334-1.167-.467-3.034-.35-4.085-.817-2.1-.933-.933 1.751.234 2.334 2.45 1.051 5.368 1.517 7.936 2.334 3.034 1.051 7.469 1.751 10.036 3.968a32.21 32.21 0 0 1-.7-1.867c-5.952 4.668-13.188 7.703-19.723 11.671l2.45 2.451c.117 0 .117-.117.234-.117.7-.584-1.634-3.035-2.684-2.334Z"/><path d="M38.514 144.482c5.952-5.485 12.137-11.087 18.556-16.105 1.867-1.401 6.185-3.385 5.368-6.302-.233-.701-1.284-1.751-2.1-1.751-6.886.467-13.772-2.568-19.607-5.719-3.618-1.867-7.352-2.684-11.087-4.084-1.75-.701-.233 2.1.584 2.451.116 0 .233.116.35.116 2.1.934.933-1.75-.234-2.334-.117 0-.233-.117-.35-.117.233.817.467 1.634.584 2.451 2.684 1.051 5.835 1.634 8.52 2.801 2.683 1.167 5.017 3.035 7.818 4.085 4.552 1.867 10.154 3.384 15.055 3.034l-2.1-1.75c.35 1.283-7.82 6.885-8.637 7.702-4.901 4.552-10.27 8.52-15.171 13.071-1.05.934 1.517 3.385 2.45 2.451Z"/><path d="M52.284 145.765c1.75 1.051 2.684-.116 4.084-1.4 3.852-3.618 7.47-7.703 10.97-11.788 3.502-4.084 7.12-8.169 10.388-12.37 1.283-1.634 2.45-3.035 1.517-5.135-.817-1.634-2.1-1.868-3.618-2.335-5.018-1.633-9.803-3.384-14.822-5.368-7.819-3.151-15.755-6.302-23.808-8.52.35.817.7 1.751.934 2.568.233 0 .467.117.7.117 1.867.467.117-2.334-.933-2.568-.234 0-.467-.116-.7-.116-1.985-.467 0 2.334.933 2.567 12.254 3.384 23.341 9.57 35.478 13.071 1.401.467 2.802.117 2.802 1.401.116.816-1.401 2.217-1.868 2.917-2.684 3.268-5.602 6.302-8.286 9.57-1.167 1.401-12.72 15.639-14.005 14.938-1.984-.933-.817 1.868.234 2.451Z"/><path d="M72.825 145.066c5.719-7.82 11.437-15.872 17.273-23.692 2.45-3.267 4.785-6.652 6.535-10.386.7-1.284 3.151-4.902 3.035-6.653-.117-.933-1.284-2.1-2.218-1.984-3.618.117-7.82-2.1-11.32-2.917-5.019-1.167-9.92-3.151-14.939-4.435-4.434-1.167-8.052-3.034-12.604-3.501-4.318-.467-8.636-.35-12.954-.7.583.933 1.05 1.75 1.634 2.684h.933c1.517 0-.467-2.684-1.634-2.684h-.933c-1.634 0 .583 2.567 1.634 2.684 3.968.35 8.052.233 12.02.583 5.602.467 11.204 2.801 16.573 4.318 4.668 1.4 9.22 2.918 13.888 4.202 3.034.817 6.068 2.567 9.22 2.451-.7-.701-1.518-1.401-2.218-1.984.117 1.283-3.968 7.702-4.435 8.636-1.867 3.501-4.318 6.419-6.535 9.686-5.019 7.236-10.387 14.239-15.522 21.358-.817.933 1.867 3.267 2.567 2.334Z"/><path d="M95.583 140.631c8.053-7.586 10.503-16.689 14.821-26.376 2.101-4.668 3.502-9.219 5.136-14.004 1.05-3.268 3.968-6.77 3.968-10.27 0-.817-1.401-2.101-2.218-1.984-5.718.583-11.554-1.4-17.039-2.568-5.602-1.284-11.087-1.05-16.689-1.984-5.835-.934-11.554-2.1-17.272-3.151-4.085-.7-9.103-.817-12.838 1.05-1.167.584 1.167 3.151 2.218 2.568 5.485-2.684 11.553-.934 17.155.117 5.252 1.05 10.62 2.1 15.989 2.45 5.485.35 10.62 1.05 15.989 2.218 4.785 1.05 9.453 2.45 14.354 1.984-.7-.7-1.517-1.4-2.217-1.984-.117 3.384-3.501 7.82-4.318 11.087-1.167 4.435-2.801 8.403-4.668 12.604-4.202 9.453-6.769 18.673-14.589 26.025-1.167.584 1.284 3.035 2.218 2.218Z"/><path d="M116.24 133.395c1.517-3.851 4.085-7.469 5.719-11.204 2.217-5.135 3.384-10.62 5.018-15.872a162.43 162.43 0 0 0 3.851-14.821c.817-3.501 3.385-6.419 2.801-10.154-.116-.933-1.283-2.1-2.217-1.983-3.034.233-6.419-1.634-9.337-2.335-3.034-.7-6.185-.817-9.336-.933a216.732 216.732 0 0 1-17.506-1.75c-6.302-.818-12.487-2.335-18.906-2.102-6.186.234-12.488 2.218-18.44 3.618.7.817 1.4 1.75 2.218 2.568.116-.117.35-.234.466-.234 1.168-.7-1.167-3.15-2.217-2.567-.117.117-.35.233-.467.233-1.284.817 1.167 2.801 2.218 2.568 6.535-1.4 13.304-3.618 19.956-3.501 6.42.116 13.305 1.517 19.607 2.567 5.135.817 10.62 1.05 15.755 1.284 4.202.117 7.819.817 11.787 2.1 1.751.584 3.852 1.284 5.836 1.168-.7-.7-1.517-1.4-2.218-1.984.467 3.034-1.634 4.318-2.45 7.002-.584 1.867-.467 3.851-.934 5.835-.934 4.669-2.568 9.103-3.968 13.538-1.401 4.668-2.451 9.453-4.435 14.005-1.751 3.851-4.201 7.352-5.719 11.204-.35.933 2.451 3.034 2.918 1.75Z"/><path d="M135.845 121.607c.584-2.684 1.751-5.135 2.334-7.819.7-3.151.467-6.536 1.284-9.687 1.284-5.251 2.684-10.503 3.734-15.872 1.518-7.586 1.518-17.856-7.235-19.723-11.437-2.45-23.108-3.618-34.779-4.785-11.32-1.05-22.99-5.368-33.378 1.284-.816.583 1.05 2.1 1.401 2.334.117 0 .233.117.35.117 1.984 1.05.817-1.75-.233-2.334-.117 0-.234-.117-.35-.117.466.817.933 1.517 1.4 2.334 9.337-6.069 20.19-2.45 30.344-1.284 10.27 1.284 20.54 2.1 30.693 3.968 1.634.35 6.069.35 7.236 1.284 1.751 1.4 1.984 5.835 2.101 7.936.35 4.902-1.284 8.87-2.101 13.538-.817 4.435-2.101 8.636-2.568 13.071-.583 4.785-2.1 8.986-3.151 13.654-.116 1.401 2.568 3.385 2.918 2.101Z"/><path d="M150.317 102.818c3.968-6.07 5.135-15.64 3.851-22.758-.817-4.201-1.634-8.87-2.918-12.954-.817-2.218-1.634-3.151-3.618-4.202-8.402-4.435-17.739-7.936-26.842-10.62-9.57-2.801-18.206-5.719-28.126-3.385-.584.117-.234.934-.117 1.284.117.117.117.35.234.467.583 1.167 3.384 2.1 2.334.117-.117-.117-.117-.35-.234-.467 0 .467 0 .817-.116 1.284 9.219-2.218 17.272.35 26.025 3.034 7.586 2.334 15.055 4.902 22.174 8.286 3.151 1.517 4.902 1.167 5.835 4.435 1.051 3.501 1.984 7.47 2.685 11.087 1.167 6.769.233 15.872-3.618 21.707-.817 1.401 1.867 3.618 2.451 2.685Z"/></g><defs><clipPath id="a"><path fill="#fff" d="M0 0h198.983v146.466H0z"/></clipPath></defs></svg>