<svg width="245" height="138" fill="none" xmlns="http://www.w3.org/2000/svg"><g clip-path="url(#a)"><g clip-path="url(#b)"><path d="M64.876 97.12c.844-1.362 1.914-2.499 3.276-3.343.31-.192.267-.35.092-.61-1.412-1.997-1.521-4.111-.477-6.293.067-.133.21-.275.067-.417-.334-.335-.276-.761-.276-1.162 0-1.555.009-3.117 0-4.663-.008-1.062-.585-1.856-1.52-2.157-1.087-.35-2.29-.033-2.892.77-.51.676-.602 1.403-.276 2.164.343.777.953 1.237 1.814 1.312.276.025.551 0 .827.025.585.033.986.451.97.97-.017.518-.393.877-.962.91-1.73.109-3.209-.367-4.162-1.905-.935-1.471-.869-2.975.05-4.446.017-.034.009-.075.017-.117l.92-.92c.96-.593 2.005-.818 3.142-.752 2.198.126 3.853 1.73 3.944 3.928.05 1.237.026 2.482.017 3.728 0 .217-.058.426-.117.802 2.516-1.613 4.864-1.638 7.213-.109.158-.175.075-.376.083-.568.017-1.354-.05-2.724.05-4.078.176-2.516 2.524-4.112 5.215-3.627 2.34.418 3.836 2.75 3.234 5.039-.526 2.047-2.615 3.385-4.713 3.025-.518-.083-.81-.41-.81-.927 0-.519.308-.844.818-.92.293-.041.594-.008.886-.033 1.178-.092 2.056-1.036 2.056-2.19 0-1.136-.894-2.08-2.073-2.172-1.805-.134-2.766.76-2.774 2.59v4.313c-.009.409.058.827-.284 1.17-.15.15 0 .284.067.417 1.052 2.19.952 4.296-.46 6.293-.176.243-.242.41.083.602 1.354.852 2.424 1.989 3.276 3.343-.1.217-.317.217-.501.234-1.462.209-2.741.802-3.736 1.914-.1.117-.225.225-.359.292-1.655.25-3.326.301-4.99.21-.701-.034-1.42-.018-2.105-.201-.21-.11-.376-.293-.535-.452-.928-.994-2.09-1.504-3.401-1.73-.251-.033-.527.009-.694-.259Z" fill="#9A7863"/><path d="M78.824 110.801c.485.318.961.627 1.454.936-.05 1.404-.794 2.482-1.646 3.502-1.521 1.821-3.335 3.317-5.232 4.73-.2.15-.41.242-.635.067-2.323-1.755-4.596-3.561-6.218-6.034-.451-.686-.727-1.429-.743-2.265.476-.309.944-.61 1.429-.911.25-.017.45.1.66.209 3.485 1.93 6.961 1.897 10.421-.075.15-.084.284-.268.51-.159ZM76.459 99.51c-.627 1.062-1.12 2.173-1.245 3.435-.084.819.083 1.588.167 2.39-.627.711-1.48.895-2.34.886-.861.009-1.722-.184-2.34-.886.468-2.089.05-4.028-1.087-5.816 2.282.192 4.563.2 6.845-.009Z" fill="#785353"/><path d="M70.692 105.327c.56.276 1.087.602 1.722.702 1.087.184 2.04-.167 2.959-.702.417 1.337.935 2.607 1.805 3.727.493.644 1.128 1.145 1.646 1.747-3.861 2.44-7.73 2.415-11.608.025.994-1.011 2.014-2.014 2.64-3.326.352-.702.56-1.446.836-2.173Z" fill="#9A7863"/><path d="m57.476 111.511-.752-.752c-1.412-1.713-1.73-3.685-1.287-5.816.76-3.736 3.861-6.903 7.68-7.614.636-.117 1.322-.35 1.957-.417 0 0 6.042-1.74 7.304-.31.51.359-.543 4.662-.543 4.662s-.477 2.667-.87 4.18c-.552 2.223-1.755 4.028-3.493 5.482-.533.361-1.513.828-1.513.828-1.48.794-3.042 1.237-4.747 1.153-1.404-.084-2.65-.51-3.736-1.396Zm31.441 0 .752-.752c1.412-1.713 1.73-3.685 1.287-5.816-.76-3.736-3.861-6.903-7.68-7.614-.636-.117-1.322-.35-1.957-.417 0 0-6.042-1.74-7.304-.31-.51.359.544 4.662.544 4.662s.476 2.667.87 4.18c.55 2.223 1.754 4.028 3.492 5.482.533.361 1.513.828 1.513.828 1.48.794 3.042 1.237 4.747 1.153 1.404-.084 2.65-.51 3.736-1.396Z" fill="#C8D4E4"/></g><g clip-path="url(#c)"><path d="M73 79c-10.476 0-19 8.523-19 19s8.523 19 19 19 19-8.523 19-19-8.524-19-19-19ZM57.48 98c0-8.558 6.962-15.52 15.52-15.52 3.856 0 7.386 1.417 10.103 3.754l-21.87 21.869A15.447 15.447 0 0 1 57.48 98ZM73 113.52c-3.45 0-6.64-1.133-9.219-3.044l21.695-21.694A15.438 15.438 0 0 1 88.519 98c.001 8.557-6.961 15.519-15.519 15.519Z" fill="#C73838"/></g><path d="M94.013 57.785v-.132c.208-.754.22-1.548.844-2.197a3.837 3.837 0 0 1 4.308-.886c2.245.992 3.452-.027 4.632-1.085.312-.278.299-.662.286-1.045-.078-1.985.246-3.904.934-5.77.519-1.389-.311-2.66-1.765-2.726-.947-.04-1.764-.33-2.426-1.071-1.09-1.218-.947-3.096.35-4.155 1.233-1.006 3.166-.741 4.036.53.181.277.324.568.454.873a2.743 2.743 0 0 0 1.259 1.376c.661.357 1.297.397 1.92-.146.753-.661 1.609-1.204 2.492-1.654.493-.251.752-.622.83-1.178.234-1.6-.065-2.937-1.453-3.956-1.661-1.19-1.778-3.652-.467-5.253.778-.94 1.764-1.151 2.841-1.297h.39c.259.132.558.106.817.106 1.466.066 2.323.966 2.855 2.21.532 1.257.415 2.527-.454 3.612-.948 1.178-1.22 2.13.104 3.917.272.37.635.516 1.064.516 1.933 0 3.698.608 5.398 1.469.454.238.869.225 1.297-.027.649-.37 1.246-.794 1.804-1.297.467-.41.636-.952.714-1.574.246-2.038 2.193-3.242 3.945-2.435 1.064.49 1.699 1.337 1.725 2.567.039 1.27-.532 2.263-1.648 2.673-1.544.556-2.309 1.76-2.997 3.096-.286.543-.286 1.032.065 1.548.623.913 1.012 1.946 1.414 2.964.338.86.844 1.191 1.739 1.178 1.025-.026 1.843-.423 2.478-1.323 1.013-1.443 2.803-2.038 4.36-1.562 1.804.556 2.751 1.84 2.777 3.798v.82c.039 1.734-.752 2.925-2.296 3.547-1.635.661-3.141.41-4.412-.887-1.389-1.429-2.323-.966-3.634-.357-.272.132-.389.397-.428.701a16.226 16.226 0 0 1-.766 3.136c-.246.741-.103 1.138.533 1.588.648.463 1.375.595 2.141.622 1.557.04 2.764 1.336 2.764 2.91a2.89 2.89 0 0 1-2.025 2.766 2.727 2.727 0 0 1-3.127-1.15c-.506-.821-.973-1.655-1.778-2.237-.623-.463-.817-.476-1.375.08-.857.846-1.765 1.627-2.816 2.21-.597.33-.857.82-.921 1.481-.156 1.654.272 3.096 1.518 4.234.908.82 1.375 1.813 1.336 3.083-.039 1.204-1.025 2.911-2.673 2.885-.091 0-.168 0-.246.066h-1.168c-2.414-.556-3.348-2.342-2.453-4.75.623-1.68.26-3.242-.506-4.777-.168-.33-.467-.463-.804-.45-1.103.013-2.206-.04-3.283-.264-.441-.093-.792.132-1.103.436-1.298 1.257-1.856 2.845-2.025 4.605-.038.437-.09.873-.181 1.31-.273 1.31-1.687 2.355-2.933 2.196-1.44-.172-2.53-1.376-2.582-2.765-.039-1.138.428-1.972 1.31-2.633 1.584-1.178 2.284-2.819 2.323-4.777.013-.49-.168-.887-.545-1.217a13.331 13.331 0 0 1-2.582-3.03c-.35-.556-.779-.794-1.414-.636a2.125 2.125 0 0 1-.649.04c-1.454-.093-2.479.543-3.166 1.84-.571 1.071-1.506 1.666-2.674 1.905-2.193.436-4.1-1.112-4.152-3.388-.09-.264.013-.542-.13-.807Z" fill="#F6BD57"/><path d="M111.479 45.347c1.375.013 2.401 1.072 2.388 2.488 0 1.376-1.129 2.54-2.466 2.54-1.31 0-2.452-1.164-2.465-2.487 0-1.39 1.155-2.554 2.543-2.54Zm12.263 3.057c.986 0 1.894.94 1.907 1.958.013 1.045-.934 1.998-1.946 1.985-1-.027-1.895-.94-1.908-1.959-.013-1.032.921-1.984 1.947-1.984ZM115.943 54c0 .887-.701 1.602-1.557 1.602-.857 0-1.635-.78-1.635-1.64 0-.874.752-1.602 1.661-1.589.817 0 1.518.741 1.531 1.628Zm3.984-9.023c-.013.727-.675 1.363-1.402 1.363-.727 0-1.362-.662-1.349-1.403.013-.741.648-1.403 1.362-1.403.766 0 1.415.675 1.389 1.443Zm-.468 15.587c-.791 0-1.31-.543-1.31-1.376 0-.82.584-1.403 1.388-1.39.701.014 1.298.649 1.311 1.363.026.755-.623 1.403-1.389 1.403Z" fill="#F4A34E"/><path d="M125.831 31.52c0 1.045-.831 1.905-1.843 1.879a1.876 1.876 0 0 1-1.804-1.866c0-1.032.857-1.892 1.856-1.879.999.013 1.791.847 1.791 1.866Zm-24.512 2.831c-1.519-.013-2.764-1.283-2.764-2.831s1.258-2.832 2.764-2.819c1.505 0 2.764 1.284 2.777 2.832.012 1.522-1.272 2.832-2.777 2.818Zm-2.531 33.147c0-1.046.83-1.906 1.843-1.88.986.014 1.804.86 1.817 1.866a1.835 1.835 0 0 1-1.856 1.866c-1.025-.013-1.804-.82-1.804-1.852Zm34.271 5.649c-1.48 0-2.622-1.177-2.622-2.686.013-1.508 1.168-2.672 2.647-2.646 1.454.013 2.583 1.178 2.583 2.66.026 1.495-1.129 2.672-2.608 2.672Z" fill="#F6BD57"/><g clip-path="url(#d)"><path d="M116.73 31.852c-10.409 0-18.877 8.468-18.877 18.878 0 10.409 8.467 18.877 18.877 18.877 10.409 0 18.877-8.468 18.877-18.877 0-10.41-8.469-18.877-18.877-18.877ZM101.31 50.73c0-8.503 6.917-15.42 15.42-15.42 3.83 0 7.337 1.408 10.037 3.73l-21.728 21.727a15.35 15.35 0 0 1-3.729-10.038Zm15.42 15.42a15.338 15.338 0 0 1-9.16-3.025l21.554-21.554a15.336 15.336 0 0 1 3.025 9.16c0 8.5-6.917 15.418-15.419 15.418Z" fill="#C73838"/></g><path d="M27.078 82.505c1.38 0 2.752.009 4.132 0 .423 0 .776.06.94.507.13.378-.017.662-.491.98H5.777c-.233-.147-.457-.293-.518-.593-.095-.507.242-.885.82-.885 1.45-.009 2.898-.009 4.348-.009a.632.632 0 0 1 .37-.094c2.64.017 5.272-.052 7.903-.009a140.26 140.26 0 0 1 3.804 0c1.372-.026 2.744-.008 4.124-.008.155 0 .31.008.449.111Z" fill="#785353"/><path d="M38.56 40.275c-1.544 1.28-3.028 2.629-4.374 4.123-2.743 3.05-4.926 6.46-6.66 10.163-2.01 4.295-3.356 8.805-4.201 13.46-.19 1.058-.32 2.114-.474 3.18-.078.12.043.248 0 .369-.51.79-1.113 1.52-1.58 2.336-.051.095-.146.258-.284.06-.198-.97-.172-1.958-.285-2.938-.328-2.757-.94-5.454-1.777-8.1-.069-.206-.138-.404-.138-.627.095-1.718.457-3.394.915-5.043.38-1.383.931-2.697 1.535-3.994.07-.138.121-.293.276-.37.31-.515.613-1.03.932-1.538 2.692-4.355 6.522-7.396 11.129-9.535a25.435 25.435 0 0 1 4.365-1.572c.138-.034.276-.051.423-.086.094-.025.198-.06.198.112Z" fill="#5ABA64"/><path d="M18.882 62.25c.086.712.371 1.365.57 2.052a42.248 42.248 0 0 1 1.268 6.04c.164 1.228.241 2.456.327 3.685.121.163.018.3-.051.438-1.174 2.216-1.846 4.57-2.08 7.061-.008.137-.008.292-.18.352-.216-.034-.199-.215-.216-.37-.268-3.556-1.268-6.897-2.873-10.076-.267-.532-.638-1.013-.82-1.598.01-.18.113-.36.018-.54-.57-7.964-2.726-15.43-7.092-22.267.415.163.665.438.94.67a33.3 33.3 0 0 1 6.876 7.86c.06.095.138.18.207.267.449.455.69 1.039.992 1.58a33.476 33.476 0 0 1 1.855 4.038c.104.266.138.55.26.807Z" fill="#68BB6B"/><path d="M14.914 69.817c.18.481.483.902.724 1.358 1.251 2.405 2.149 4.939 2.64 7.61.173.937.345 1.873.354 2.836 0 .085.008.171.086.231.164.224.164.438 0 .662-2.76.026-5.521.043-8.282 0 0-.026.009-.043.026-.06.164-.155.38-.12.57-.12h3.183c.449 0 .483-.044.354-.464-.423-1.41-1.062-2.706-2.028-3.832-.103-.12-.215-.232-.207-.403-.12-1.34-.414-2.646-.759-3.944-1.018-3.84-2.666-7.353-5.21-10.411a18.428 18.428 0 0 0-2.977-2.87c.966.044 4.46 1.942 6.453 3.635 1.915 1.623 3.589 3.461 4.9 5.6.087.035.121.112.173.172Z" fill="#6EC277"/><path d="M18.882 62.25c-.345-.413-.414-.954-.612-1.427a35.366 35.366 0 0 0-2.433-4.845c-.026-.043-.035-.103-.052-.163.457-1.332.682-2.715.776-4.115.276-3.857-.336-7.602-1.457-11.288-.026-.094-.044-.189-.095-.378 3.563 3.651 5.736 7.886 6.478 12.834-.5 1.186-1.06 2.337-1.449 3.565-.587 1.907-1.018 3.832-1.156 5.816Z" fill="#91CF96"/><path d="M12.308 77.626c1.174 1.228 1.907 2.697 2.39 4.304.155.515.155.515-.37.524h-3.883c-.147-2.388-.88-4.545-2.51-6.357-.294-.318-.622-.584-.95-.868.026-.206.165-.094.26-.086 1.742.215 3.278.885 4.589 2.045.164.137.32.283.474.438Z" fill="#8CD19A"/><path d="M14.914 69.817a.248.248 0 0 1-.173-.171c.147-.087.043-.241.095-.353.12.163.06.352.078.524Z" fill="#ACD9AE"/><path d="M18.71 82.505v-.661c.19-.31.103-.67.146-.997a19.281 19.281 0 0 1 1.337-5.008c.25-.618.561-1.211.846-1.813.543-.858 1.095-1.7 1.725-2.5.052-.06.095-.128.173-.171 2.407-2.749 5.34-4.708 8.868-5.79-.319.284-.647.55-.949.842-2.036 1.95-3.321 4.347-4.287 6.95-.397 1.056-.69 2.147-.967 3.238.01.163-.06.292-.18.412-1.45 1.383-2.356 3.059-2.71 5.034-.025.172-.051.344-.198.464H18.71Z" fill="#50AF5C"/><path d="M22.505 82.505c.25-1.606.785-3.092 1.786-4.39.31-.403.63-.816 1.018-1.15.12-.104.207-.224.285-.353.146.095.198-.06.276-.111 1.708-1.298 3.666-1.907 5.771-2.13.095-.01.216-.121.242.077-1.251.61-2.2 1.554-2.942 2.697a11.654 11.654 0 0 0-1.863 5.369c-1.527-.009-3.046-.009-4.573-.009Z" fill="#68BB6B"/><path d="M19 46C8.524 46 0 54.523 0 65s8.523 19 19 19 19-8.523 19-19-8.524-19-19-19ZM3.48 65c0-8.558 6.962-15.52 15.52-15.52 3.856 0 7.386 1.417 10.103 3.754L7.233 75.103A15.448 15.448 0 0 1 3.48 65ZM19 80.52c-3.45 0-6.64-1.133-9.219-3.044l21.695-21.694A15.438 15.438 0 0 1 34.52 65c0 8.557-6.962 15.519-15.52 15.519Z" fill="#C73838"/><g clip-path="url(#e)"><path d="m201.73 125.127 43.642-19.871c1.088-.799 1.14-1.799.535-2.905l-1.347-2.958-3.379-7.422a1656079.761 1656079.761 0 0 0-10.291-22.602l-17.266-37.92c-1.124-.465-2.199-1.12-3.509-.66-.118 1.3-1.15 1.703-2.129 2.15l-35.976 16.38c-1.035.471-2.055.902-3.04 1.485-.811.37-1.818.457-2.105 1.532 1.313 3.478 3.018 6.778 4.54 10.194.9 2.05 1.827 4.087 2.782 6.111a.874.874 0 0 0 .468.36c.928.184 1.704-.338 2.459-.682 6.811-3.067 13.624-6.203 20.422-9.298.504-.23 1.035-.472 1.564-.645.626-.184 1.101-.03 1.452.518.272.449.475.895.691 1.37l15.564 34.18c1.042 2.289.996 2.41-1.27 3.442l-20.842 9.49c-.783.357-1.699.571-2.009 1.521.432 1.69 1.311 3.176 2.022 4.739 1.421 3.194 2.897 6.362 4.345 9.543.435 1.251 1.04 2.356 2.677 1.948Z" fill="#BCD5D1"/><path d="m174.414 68.841 18.307 40.209c8.113-3.694 16.173-7.431 24.311-11.07 1.343-.61 1.569-1.152.947-2.52a4391.845 4391.845 0 0 1-16.745-36.775c-.61-1.34-1.18-1.552-2.522-.94-8.06 3.736-16.185 7.402-24.298 11.096Zm17.628-43.028c-.663-.27-.778-.892-1.032-1.45l-5.895-12.947-14.547 6.623 2.541 5.581c1.111.437 1.989-.232 2.846-.723.897-.476 1.706-.777 2.413.181.549.761.124 1.83-.962 2.56-.86.56-2.101.654-2.516 1.82.747 1.715 1.522 3.417 2.269 5.132.539.664 1.195.399 1.811.118a472.404 472.404 0 0 0 12.001-5.464c.6-.24 1.231-.56 1.071-1.43Z" fill="#DEF4EF"/><path d="M174.903 27.486c1.063-.484 2.192-.897 3.176-1.48 1.252-.738 1.611-2.25.962-3.302-.663-1.012-1.906-1.22-3.074-.52l-2.909 1.325c.584 1.283 1.22 2.678 1.845 3.977Z" fill="#BDD5D1"/><path d="m192.042 25.813-14.898 6.817c-1.597.795-3.299 1.435-4.715 2.551-4.645 3.597-6.102 10.93-3.243 16.097 6.366-2.932 12.716-5.823 19.082-8.755 7.106-3.236 14.227-6.512 21.358-9.692 1.203-.547 1.607-1.068.852-2.207-3.189-4.78-7.478-7.375-13.406-6.596-1.782.239-3.344 1.186-5.03 1.785Z" fill="#F39D00"/></g></g><defs><clipPath id="a"><path fill="#fff" d="M0 0h245v138H0z"/></clipPath><clipPath id="b"><path fill="#fff" transform="translate(50 75)" d="M0 0h46v46H0z"/></clipPath><clipPath id="c"><path fill="#fff" transform="translate(54 79)" d="M0 0h38v38H0z"/></clipPath><clipPath id="d"><path fill="#fff" transform="translate(97.853 31.852)" d="M0 0h37.754v37.754H0z"/></clipPath><clipPath id="e"><path fill="#fff" transform="matrix(-.9101 .4144 .4144 .9101 201.33 4)" d="M0 0h51.764v110.496H0z"/></clipPath></defs></svg>