<svg width="248" height="138" fill="none" xmlns="http://www.w3.org/2000/svg"><g clip-path="url(#a)"><path d="M126.002 96.375a.34.34 0 0 1 .373-.373c1.394.133 6.07.788 8.986 3.704 1.909 1.91 2.192 4.724.63 6.285-1.561 1.562-4.375 1.279-6.285-.63-2.916-2.916-3.571-7.592-3.704-8.986Zm31.589-9.373a.37.37 0 0 1 .407.407c-.146 1.52-.86 6.621-4.041 9.802-2.084 2.084-5.153 2.392-6.857.689-1.703-1.704-1.395-4.773.688-6.857 3.181-3.18 8.283-3.896 9.803-4.041Z" fill="#79C800"/><path d="M143.551 125.586v-18.397c0-2.073.808-4.022 2.273-5.486l6.676-6.676a1.551 1.551 0 1 0-2.194-2.194l-6.676 6.675a10.788 10.788 0 0 0-3.182 7.681v1.717c-.028-.028-.051-.059-.079-.087l-6.174-6.175a1.552 1.552 0 0 0-2.195 2.194l6.175 6.176a7.706 7.706 0 0 1 2.273 5.486v9.086h3.103Z" fill="#5ABA63"/><path d="M174.937 136.448c-6.245-7.381-18.648-12.414-32.937-12.414-14.29 0-26.693 5.033-32.938 12.414" fill="#9A7863"/><path d="M151.135 124.754a58.672 58.672 0 0 0-9.135-.72c-14.289 0-26.693 5.033-32.938 12.414h18.27c4.866-5.751 13.48-10.064 23.803-11.694Z" fill="#8C695C"/><path d="M180.793 138h-77.586a1.552 1.552 0 1 1 0-3.104h77.586a1.552 1.552 0 1 1 0 3.104Z" fill="#785353"/></g><defs><clipPath id="a"><path fill="#fff" d="M0 0h248v138H0z"/></clipPath></defs></svg>