<svg width="248" height="138" fill="none" xmlns="http://www.w3.org/2000/svg"><path d="M183.012 61.004a.896.896 0 0 1 .984.984c-.353 3.675-2.08 16.002-9.767 23.69-5.035 5.034-12.453 5.779-16.57 1.663-4.116-4.117-3.371-11.535 1.663-16.57 7.688-7.687 20.015-9.414 23.69-9.767Zm-87.008 8.984a.896.896 0 0 1 .984-.984c3.675.353 16.002 2.08 23.69 9.767 5.034 5.035 5.779 12.453 1.662 16.57-4.116 4.116-11.534 3.371-16.569-1.663-7.687-7.688-9.414-20.015-9.767-23.69Zm2-33.966c-.054-.59.414-1.074.984-1.017 3.675.364 16.002 2.15 23.69 10.103 5.034 5.209 5.779 12.883 1.663 17.14-4.117 4.26-11.535 3.489-16.57-1.72-7.687-7.952-9.414-20.704-9.767-24.506Zm75.617-9.343a.927.927 0 0 1 1.041.993c-.275 3.81-1.76 16.6-9.523 24.738-5.084 5.33-12.738 6.281-17.095 2.125-4.358-4.157-3.769-11.847 1.315-17.177 7.762-8.138 20.469-10.225 24.262-10.68Z" fill="#91CF96"/><path d="M172.5 74a1.762 1.762 0 0 0-2.475 0l-28.275 26.016V70.374c0-2.316.911-4.492 2.564-6.128l15.161-19.795a1.722 1.722 0 0 0 0-2.451A1.762 1.762 0 0 0 157 42l-15.161 19.794a11.994 11.994 0 0 0-3.589 8.58v1.918c-.031-.031-.057-.066-.089-.097L116.975 51.55a1.762 1.762 0 0 0-2.475 0 1.72 1.72 0 0 0 0 2.45l21.187 20.648a8.566 8.566 0 0 1 2.563 6.128v27.908L112.975 84.05a1.762 1.762 0 0 0-2.475 0 1.72 1.72 0 0 0 0 2.45l27.75 27.085V125h3.5v-20.082l30.75-28.467a1.72 1.72 0 0 0 0-2.451Z" fill="#5ABA63"/><path d="M172.937 136.448c-6.245-7.381-18.648-12.414-32.937-12.414-14.29 0-26.693 5.033-32.938 12.414" fill="#9A7863"/><path d="M149.135 124.754a58.672 58.672 0 0 0-9.135-.72c-14.289 0-26.693 5.033-32.938 12.414h18.27c4.866-5.751 13.48-10.064 23.803-11.694Z" fill="#8C695C"/><path d="M178.793 138h-77.586a1.551 1.551 0 1 1 0-3.104h77.586a1.552 1.552 0 1 1 0 3.104Z" fill="#785353"/></svg>