<svg width="248" height="138" fill="none" xmlns="http://www.w3.org/2000/svg"><path d="M44 50.203v-.352c.245-2.337 1.61-3.813 3.623-4.886 2.416-1.283 4.778-2.689 7.176-3.972 1.436-.773 2.223-1.827 2.066-3.497a7.222 7.222 0 0 1 .017-1.23c.018-.352.07-.703.473-.861.402-.123.805-.123 1.208-.123H75.82c.403 0 .823-.018 1.208.105.49.158.63.562.665 1.037.035.58.035 1.178.018 1.757-.07 2.092.822 3.691 2.555 4.78 1.855 1.16 3.816 2.145 5.706 3.235 1.033.597 2.1 1.142 3.116 1.775.962.597 1.47 1.494 1.54 2.618.07 1.055.035 2.11.017 3.164-.017.351-.052.72-.455.879-.437.105-.875.07-1.312.07H45.68c-.49 0-.997.105-1.453-.158-.297-.756-.07-1.547-.14-2.32-.052-.686.105-1.371-.087-2.021Z" fill="#F6BD57"/><path d="M93.201 103.807c0 2.495.035 5.008.018 7.504-.018 1.424-.98 2.144-2.118 2.689H46.293c-1.575-.369-2.135-1.037-2.188-2.583a.63.63 0 0 1 .158-.422c.543-.422 1.173-.299 1.768-.299h33.816c2.012 0 4.025-.088 6.02.018 2.364.123 4.254-1.951 4.201-4.183a17.686 17.686 0 0 1 .018-1.67c.017-.387.017-.773.28-1.09.945-.421 1.89-.474 2.835.036Z" fill="#F4A34E"/><path d="M44 103.807v-49.21c.053-.018.122-.018.175-.036.087.07.157.159.21.282.157.457.122.931.122 1.388v45.959c0 .404.018.826-.07 1.23-.035.105-.07.211-.14.316-.07.088-.175.123-.297.071Z" fill="#FCF1D5"/><path d="M44.157 111.557c-.052 0-.104 0-.157-.017v-7.733h.175c.315.281.315.668.315 1.054.017 1.723 0 3.445 0 5.15 0 .421-.105.808-.298 1.177 0 .123-.017.246-.035.369Z" fill="#FBE4BD"/><path d="M44.175 54.597H44v-4.394c.35.65.123 1.353.158 2.021.035.72.017 1.459.035 2.18.053.07.053.14-.018.193Z" fill="#FBE5BD"/><path d="M68.68 24.051h2.975c.35.352.297.809.297 1.23.018 1.688 0 3.393 0 5.08 0 .351 0 .703.053 1.054.07.492.333.791.84.861.525.07.91-.123 1.138-.615.175-.386.157-.79.157-1.213.018-1.722 0-3.444 0-5.166 0-.44-.052-.88.298-1.23 1.225.034 2.485-.212 3.693.14-.333.474-.403 1.002-.403 1.564v8.418c0 .457.053.932-.192 1.371a.27.27 0 0 1-.28.123c-5.829-.017-11.657-.017-17.486-.035h-2.625c0-2.935-.053-5.87-.018-8.823.035-1.634 1.296-2.759 2.976-2.759.245.475.122.984.122 1.459.018 1.582 0 3.163 0 4.728 0 .439.018.878.175 1.3.193.527.578.774 1.138.738.56-.035.823-.386.963-.86.087-.335.07-.704.07-1.038V25.3c0-.44-.053-.879.297-1.248h2.976c.35.352.297.809.297 1.23.018 1.688 0 3.393 0 5.08 0 .351 0 .703.053 1.054.07.492.332.791.84.861.525.07.91-.123 1.138-.615.175-.386.157-.79.157-1.213.018-1.722 0-3.444 0-5.166.053-.422 0-.88.35-1.23Z" fill="#5F5260"/><path d="M44.175 54.596c0-.07.017-.123.017-.193 11.99 0 23.98.018 35.951.018h10.24c.437-.387.98-.282 1.487-.317.928-.035.98-.087.998-.984.018-.58-.017-1.16.018-1.74.017-.369-.018-.756.332-1.037.263 1.371.088 2.742.088 4.095 0 .44-.088.879-.088 1.3v46.996c0 .352-.017.703-.017 1.055-.928.017-1.873.017-2.8.035l-.123-.123c-.298-.545-.21-1.142-.21-1.722v-45.15c0-2.11.192-1.916-1.943-1.916H45.96c-.613.017-1.26.14-1.785-.317 0 0 .017 0 0 0Z" fill="#F8CD84"/><path d="M93.218 50.344c-.017 1.107-.052 2.197-.035 3.304.018.632-.21.826-.805.773-.665-.035-1.33-.018-1.995-.018v-3.602c-.018-1.196-.508-2.127-1.575-2.725-2.66-1.493-5.339-2.97-8-4.464-2.205-1.23-3.5-2.987-3.377-5.641.035-.773.192-1.582-.158-2.338.053-.017.123-.035.175-.052.928-.422 1.856-.457 2.766.035.017.755.052 1.529.017 2.285-.052 1.458.613 2.425 1.856 3.11a535.493 535.493 0 0 1 8.173 4.57c1.838 1.037 2.836 2.636 2.958 4.763Z" fill="#F4A34E"/><path d="M80.213 35.616c-.927-.018-1.855-.018-2.765-.035 0-3.516 0-7.03-.018-10.546 0-.544.053-.948.735-.86 1.26.386 2.066 1.317 2.066 2.583.017 2.97-.018 5.905-.018 8.858Zm-17.31-11.565v6.82c0 1.177-.437 1.74-1.33 1.757-1.068.035-1.575-.457-1.628-1.705a49.22 49.22 0 0 1 0-3.937c.035-.984-.21-1.986.158-2.935h2.8Zm5.777 0c0 2.338.017 4.675 0 7.013 0 1.037-.508 1.581-1.436 1.581-.963 0-1.365-.386-1.365-1.406-.018-2.39 0-4.797 0-7.188h2.8Zm5.776 0c0 2.338.017 4.675 0 7.013 0 1.037-.508 1.581-1.436 1.581-.962 0-1.365-.386-1.365-1.406-.017-2.39 0-4.797 0-7.188h2.8Z" fill="#4D3E4F"/><path d="M44.21 111.188c-.018-2.46-.018-4.921-.035-7.381l.017.017c.49-.457 1.085-.334 1.663-.334H88.79c.542 0 1.12-.088 1.593.317v.035c-.07 1.247.087 2.495-.105 3.761-.298 1.775-2.293 3.462-4.324 3.462-13.512-.07-27.024-.035-40.536-.035-.42-.018-.84-.088-1.208.158Z" fill="#F6BD57"/><path d="M90.383 103.789c-7.667 0-15.333.017-23.017.017H44.175c0-8.067-.018-16.151-.018-24.218v-25.01h44.965c1.226 0 1.226 0 1.226 1.231.035 16.01.035 32.004.035 47.98Z" fill="#FADD94"/><path d="M69.155 84.156c-.17 0-.34-.004-.511-.012l-.783-.037-.036-.785c-.134-2.904.87-5.586 2.829-7.552 1.958-1.966 4.626-2.978 7.52-2.84l.782.037.037.785c.135 2.904-.87 5.585-2.828 7.552-1.842 1.85-4.316 2.852-7.01 2.852Zm-.058-7.546-.765-.332c-2.72-1.18-4.884-3.464-5.941-6.266-1.07-2.835-.946-5.918.346-8.683l.354-.758.765.332c2.719 1.18 4.884 3.464 5.94 6.266 1.07 2.835.947 5.919-.345 8.684l-.354.758Z" fill="#79C800"/><path d="M68.662 88.46h.009-.009Zm-.471.875c-2.695 0-5.168-1.002-7.01-2.852-1.957-1.966-2.962-4.648-2.828-7.552l.036-.785.782-.037c2.895-.135 5.563.874 7.521 2.84 1.959 1.967 2.963 4.649 2.829 7.552l-.036.786-.784.036c-.17.008-.34.012-.51.012Z" fill="#79C800"/><path d="M68.672 96.657a.862.862 0 0 1-.86-.864V75.076c0-.476.386-.863.86-.863.475 0 .86.387.86.863v20.718a.862.862 0 0 1-.86.863Z" fill="#5ABA63"/><path d="M68.672 84.156a.865.865 0 0 1-.608-1.474l5.166-5.187a.856.856 0 0 1 1.216 0 .865.865 0 0 1 0 1.22l-5.166 5.188a.855.855 0 0 1-.608.253Zm0-7.806a.86.86 0 0 1-.813-.581l-2.686-7.778a.865.865 0 0 1 .53-1.099.859.859 0 0 1 1.094.534l2.687 7.778a.863.863 0 0 1-.812 1.146Zm0 12.985a.855.855 0 0 1-.608-.253l-5.158-5.179a.865.865 0 0 1 0-1.22.856.856 0 0 1 1.216 0l5.158 5.179a.865.865 0 0 1-.608 1.473Z" fill="#5ABA63"/><path d="M109.319 50.203v-.352c.245-2.337 1.61-3.814 3.623-4.886 2.415-1.283 4.778-2.689 7.176-3.972 1.435-.773 2.223-1.827 2.065-3.497a7.223 7.223 0 0 1 .018-1.23c.017-.352.07-.703.472-.861.403-.123.806-.123 1.208-.123h17.258c.403 0 .823-.018 1.208.105.49.158.63.562.665 1.037.035.58.035 1.177.017 1.757-.07 2.092.823 3.691 2.556 4.78 1.855 1.16 3.815 2.145 5.706 3.235 1.032.597 2.1 1.142 3.115 1.775.963.597 1.471 1.494 1.541 2.618.07 1.055.035 2.11.017 3.164-.017.351-.052.72-.455.879-.438.105-.875.07-1.313.07h-43.197c-.49 0-.998.105-1.453-.158-.297-.756-.07-1.547-.14-2.32-.052-.686.105-1.371-.087-2.021Z" fill="#F6BD57"/><path d="M158.52 103.807c0 2.495.035 5.008.017 7.504-.017 1.424-.98 2.144-2.117 2.689h-44.808c-1.575-.369-2.135-1.037-2.188-2.583a.63.63 0 0 1 .158-.422c.542-.422 1.172-.299 1.767-.299h33.816c2.013 0 4.026-.088 6.021.018 2.363.123 4.253-1.951 4.201-4.183a17.553 17.553 0 0 1 .017-1.67c.018-.387.018-.773.281-1.09.945-.421 1.89-.474 2.835.036Z" fill="#F4A34E"/><path d="M109.319 103.806v-49.21c.052-.017.122-.017.174-.035a.69.69 0 0 1 .21.282c.158.456.123.931.123 1.388v45.959c0 .404.017.826-.07 1.23-.035.105-.07.211-.14.316-.07.088-.175.123-.297.07Z" fill="#FCF1D5"/><path d="M109.476 111.557c-.052 0-.105 0-.157-.017v-7.733h.174c.315.281.315.667.315 1.054.018 1.722 0 3.445 0 5.15 0 .421-.105.808-.297 1.177 0 .123-.018.246-.035.369Z" fill="#FBE4BD"/><path d="M109.494 54.597h-.175v-4.394c.35.65.122 1.353.157 2.021.035.72.018 1.459.035 2.18.053.07.053.14-.017.193Z" fill="#FBE5BD"/><path d="M133.998 24.051h2.975c.351.352.298.809.298 1.23.018 1.688 0 3.393 0 5.08 0 .351 0 .703.053 1.054.07.492.332.791.84.861.525.07.91-.123 1.137-.615.175-.386.158-.79.158-1.213.017-1.722 0-3.444 0-5.166 0-.44-.053-.88.297-1.23 1.226.034 2.486-.212 3.694.14-.333.474-.403 1.002-.403 1.564v8.418c0 .457.053.932-.193 1.371a.27.27 0 0 1-.28.123c-5.828-.017-11.657-.017-17.485-.035h-2.626c0-2.935-.052-5.87-.017-8.823.035-1.634 1.295-2.759 2.976-2.759.245.475.122.984.122 1.459.018 1.582 0 3.163 0 4.728 0 .439.018.878.175 1.3.193.527.578.774 1.138.738.56-.035.822-.386.962-.86.088-.335.07-.704.07-1.038V25.3c0-.44-.052-.879.298-1.248h2.975c.351.352.298.809.298 1.23.018 1.688 0 3.393 0 5.08 0 .351 0 .703.053 1.054.07.492.332.791.84.861.525.07.91-.123 1.137-.615.175-.386.158-.79.158-1.213.017-1.722 0-3.444 0-5.166.052-.422 0-.88.35-1.23Z" fill="#5F5260"/><path d="M109.493 54.596c0-.07.018-.123.018-.193 11.989 0 23.979.018 35.951.018h10.239c.438-.387.98-.282 1.488-.317.928-.035.98-.087.998-.984.017-.58-.018-1.16.017-1.74.018-.369-.017-.756.333-1.037.262 1.371.087 2.742.087 4.095 0 .44-.087.879-.087 1.3v46.996c0 .352-.018.703-.018 1.055-.927.017-1.873.017-2.8.035l-.123-.123c-.297-.545-.21-1.142-.21-1.722v-45.15c0-2.11.193-1.916-1.943-1.916h-42.164c-.613.017-1.261.14-1.786-.317 0 0 .018 0 0 0Z" fill="#F8CD84"/><path d="M158.537 50.343c-.017 1.108-.052 2.197-.035 3.304.018.633-.21.827-.805.774-.665-.035-1.33-.018-1.995-.018V50.8c-.018-1.195-.508-2.126-1.576-2.724-2.66-1.494-5.338-2.97-7.999-4.464-2.205-1.23-3.5-2.988-3.378-5.641.035-.774.193-1.582-.157-2.338.052-.018.122-.035.175-.053.927-.421 1.855-.457 2.765.035.018.756.053 1.53.018 2.285-.053 1.459.612 2.426 1.855 3.111a533.594 533.594 0 0 1 8.174 4.57c1.838 1.036 2.836 2.636 2.958 4.762Z" fill="#F4A34E"/><path d="M145.532 35.616c-.928-.018-1.855-.018-2.765-.035 0-3.516 0-7.03-.018-10.546 0-.544.053-.948.735-.86 1.26.386 2.066 1.317 2.066 2.583.017 2.97-.018 5.905-.018 8.858Zm-17.31-11.565v6.82c0 1.177-.438 1.739-1.33 1.757-1.068.035-1.576-.457-1.628-1.705a48.757 48.757 0 0 1 0-3.937c.035-.984-.21-1.986.157-2.935h2.801Zm5.776 0c0 2.338.017 4.675 0 7.012 0 1.037-.508 1.582-1.435 1.582-.963 0-1.366-.387-1.366-1.406-.017-2.39 0-4.798 0-7.188h2.801Zm5.776 0c0 2.338.018 4.675 0 7.013 0 1.036-.507 1.581-1.435 1.581-.963 0-1.365-.386-1.365-1.406-.018-2.39 0-4.798 0-7.188h2.8Z" fill="#4D3E4F"/><path d="M109.528 111.188c-.017-2.46-.017-4.921-.035-7.381l.018.017c.49-.457 1.085-.334 1.663-.334h42.935c.542 0 1.12-.088 1.592.317v.035c-.07 1.247.088 2.495-.105 3.761-.297 1.775-2.293 3.462-4.323 3.462-13.512-.07-27.025-.035-40.537-.035-.42-.018-.84-.088-1.208.158Z" fill="#F6BD57"/><path d="M155.701 103.789c-7.666 0-15.332.018-23.016.018h-23.192c0-8.067-.017-16.152-.017-24.219V54.58h44.965c1.225 0 1.225 0 1.225 1.23.035 16.011.035 32.004.035 47.98Z" fill="#FADD94"/><path d="M124.391 63.412c-1.271 8.952 1.652 12.31 10.587 13.528 1.272-8.952-1.651-12.31-10.587-13.528Z" fill="#79C800"/><path d="M134.36 76.33c7.397 5.145 11.693 4.018 16.777-3.469-7.398-5.145-11.694-4.019-16.777 3.469Z" fill="#79C800"/><path d="M132.374 98.483a.894.894 0 0 1-.883-.796c-1.003-8.525.996-19.54 2.758-23.084a.884.884 0 0 1 1.195-.4.91.91 0 0 1 .394 1.213c-1.476 2.966-3.576 13.595-2.58 22.058a.899.899 0 0 1-.884 1.01Z" fill="#4CAF50"/><path d="M174.637 50.203v-.352c.245-2.337 1.61-3.813 3.623-4.886 2.415-1.283 4.778-2.689 7.176-3.972 1.435-.773 2.223-1.827 2.065-3.497a7.222 7.222 0 0 1 .018-1.23c.017-.352.07-.703.473-.861.402-.123.805-.123 1.207-.123h17.258c.403 0 .823-.018 1.208.105.49.158.63.562.665 1.037.035.58.035 1.178.018 1.757-.071 2.092.822 3.691 2.555 4.78 1.855 1.16 3.816 2.145 5.706 3.235 1.033.597 2.1 1.142 3.115 1.775.963.597 1.471 1.494 1.541 2.618.07 1.055.035 2.11.017 3.164-.017.351-.052.72-.455.879-.437.105-.875.07-1.313.07h-43.197c-.49 0-.998.105-1.453-.158-.297-.756-.07-1.547-.14-2.32-.052-.686.105-1.371-.087-2.021Z" fill="#F6BD57"/><path d="M223.838 103.807c0 2.495.035 5.008.018 7.504-.018 1.424-.981 2.144-2.118 2.689H176.93c-1.575-.369-2.135-1.037-2.188-2.583a.63.63 0 0 1 .158-.422c.542-.422 1.172-.299 1.768-.299h33.815c2.013 0 4.026-.088 6.021.018 2.363.123 4.254-1.951 4.201-4.183a17.89 17.89 0 0 1 .018-1.67c.017-.387.017-.773.28-1.09.945-.421 1.89-.474 2.835.036Z" fill="#F4A34E"/><path d="M174.637 103.807v-49.21c.052-.018.122-.018.175-.036.087.07.157.159.209.282.158.457.123.931.123 1.388v45.959c0 .404.017.826-.07 1.23-.035.105-.07.211-.14.316-.07.088-.175.123-.297.071Z" fill="#FCF1D5"/><path d="M174.794 111.557c-.052 0-.105 0-.157-.017v-7.733h.175c.314.281.314.668.314 1.054.018 1.723 0 3.445 0 5.15 0 .421-.105.808-.297 1.177 0 .123-.017.246-.035.369Z" fill="#FBE4BD"/><path d="M174.812 54.597h-.175v-4.394c.35.65.122 1.353.158 2.021.035.72.017 1.459.035 2.18.052.07.052.14-.018.193Z" fill="#FBE5BD"/><path d="M199.316 24.051h2.976c.35.352.297.809.297 1.23.018 1.688 0 3.393 0 5.08 0 .351 0 .703.053 1.054.07.492.332.791.84.861.525.07.91-.123 1.138-.615.175-.386.157-.79.157-1.213.018-1.722 0-3.444 0-5.166 0-.44-.052-.88.298-1.23 1.225.034 2.485-.212 3.693.14-.333.474-.403 1.002-.403 1.564v8.418c0 .457.053.932-.192 1.371a.27.27 0 0 1-.28.123c-5.829-.017-11.657-.017-17.486-.035h-2.625c0-2.935-.053-5.87-.018-8.823.035-1.634 1.295-2.759 2.976-2.759.245.475.122.984.122 1.459.018 1.582 0 3.163 0 4.728 0 .439.018.878.175 1.3.193.527.578.774 1.138.738.56-.035.823-.386.963-.86.087-.335.07-.704.07-1.038V25.3c0-.44-.053-.879.297-1.248h2.976c.35.352.297.809.297 1.23.018 1.688 0 3.393 0 5.08 0 .351 0 .703.053 1.054.07.492.332.791.84.861.525.07.91-.123 1.138-.615.175-.386.157-.79.157-1.213.018-1.722 0-3.444 0-5.166.053-.422 0-.88.35-1.23Z" fill="#5F5260"/><path d="M174.811 54.596c0-.07.018-.123.018-.193 11.99 0 23.979.018 35.951.018h10.239c.438-.387.981-.282 1.488-.317.928-.035.98-.087.998-.984.017-.58-.018-1.16.017-1.74.018-.369-.017-.756.333-1.037.262 1.371.087 2.742.087 4.095 0 .44-.087.879-.087 1.3v46.996c0 .352-.018.703-.018 1.055-.927.017-1.872.017-2.8.035l-.123-.123c-.297-.545-.21-1.142-.21-1.722v-45.15c0-2.11.193-1.916-1.942-1.916h-42.165c-.613.017-1.26.14-1.786-.317 0 0 .018 0 0 0Z" fill="#F8CD84"/><path d="M223.855 50.344c-.017 1.107-.052 2.197-.035 3.304.018.632-.21.826-.805.773-.665-.035-1.33-.018-1.995-.018v-3.602c-.018-1.196-.508-2.127-1.576-2.725-2.66-1.493-5.338-2.97-7.998-4.464-2.206-1.23-3.501-2.987-3.379-5.641.035-.773.193-1.582-.157-2.338.052-.017.122-.035.175-.052.928-.422 1.855-.457 2.765.035.018.755.053 1.529.018 2.285-.053 1.458.613 2.425 1.855 3.11a533.594 533.594 0 0 1 8.174 4.57c1.838 1.037 2.836 2.636 2.958 4.763Z" fill="#F4A34E"/><path d="M210.85 35.616c-.928-.018-1.855-.018-2.765-.035 0-3.516 0-7.03-.018-10.546 0-.544.053-.948.735-.86 1.26.386 2.066 1.317 2.066 2.583.017 2.97-.018 5.905-.018 8.858Zm-17.31-11.565v6.82c0 1.177-.437 1.74-1.33 1.757-1.068.035-1.575-.457-1.628-1.705a49.694 49.694 0 0 1 0-3.937c.035-.984-.21-1.986.158-2.935h2.8Zm5.776 0c0 2.338.018 4.675 0 7.013 0 1.037-.508 1.581-1.435 1.581-.963 0-1.365-.386-1.365-1.406-.018-2.39 0-4.797 0-7.188h2.8Zm5.776 0c0 2.338.018 4.675 0 7.013 0 1.037-.507 1.581-1.435 1.581-.963 0-1.365-.386-1.365-1.406-.018-2.39 0-4.797 0-7.188h2.8Z" fill="#4D3E4F"/><path d="M174.846 111.188c-.017-2.46-.017-4.921-.035-7.381l.018.017c.49-.457 1.085-.334 1.663-.334h42.935c.542 0 1.12-.088 1.592.317v.035c-.07 1.247.088 2.495-.105 3.761-.297 1.775-2.293 3.462-4.323 3.462-13.512-.07-27.025-.035-40.537-.035-.42-.018-.84-.088-1.208.158Z" fill="#F6BD57"/><path d="M221.019 103.789c-7.666 0-15.332.017-23.016.017h-23.192c0-8.067-.017-16.151-.017-24.218v-25.01h44.965c1.225 0 1.225 0 1.225 1.231.035 16.01.035 32.004.035 47.98Z" fill="#FADD94"/><path d="M196.513 69.004h.046a.704.704 0 0 1 .171.246 29.314 29.314 0 0 1 2.065 5.528c.398 1.523.666 3.063.828 4.628.116 1.137.12 2.283.102 3.425-.032 2.126-.282 4.224-.917 6.261-.249.798-.569 1.569-1.092 2.237a1.953 1.953 0 0 1-.926.655h-.092a.629.629 0 0 0-.37 0h-.093c-.56-.19-.916-.613-1.213-1.091-.56-.915-.87-1.926-1.11-2.961-.278-1.184-.436-2.386-.528-3.597a27.989 27.989 0 0 1-.079-3.17c.102-2.576.509-5.101 1.278-7.566a29.755 29.755 0 0 1 1.712-4.302c.056-.112.102-.228.218-.293Z" fill="#785353"/><path d="M196.79 91.984c.097-.163.296-.163.435-.27.519-.399.829-.942 1.093-1.517.476-1.035.745-2.13.953-3.245.116-.626.185-1.257.259-1.889.162-1.373.144-2.757.125-4.135-.014-.822-.106-1.638-.208-2.455a29.103 29.103 0 0 0-.574-3.147 27.233 27.233 0 0 0-.815-2.766 31.432 31.432 0 0 0-1.472-3.467c-.013-.028-.013-.06-.023-.089.209-.023.366.084.519.21a25.24 25.24 0 0 1 3.291 3.192c.069.08.12.177.222.233.125.055.19.176.273.278.727.92 1.398 1.875 1.944 2.915.037.07.083.13.12.195.787 1.527 1.329 3.128 1.509 4.84.074.692.083 1.388.009 2.085-.189 2.223-.874 4.265-2.24 6.052a5.236 5.236 0 0 1-.416.492c-.075.079-.153.153-.176.264-.162.038-.283.13-.403.242-1.037.965-2.231 1.62-3.638 1.87-.213.037-.44.019-.643.112h-.144Zm-.278-22.98a28.65 28.65 0 0 0-1.735 4.182 27.66 27.66 0 0 0-1.046 4.368 36.682 36.682 0 0 0-.287 2.469 26.004 26.004 0 0 0-.07 3.119c.042 1.072.134 2.144.306 3.207.157.975.352 1.935.666 2.873.232.696.5 1.379.963 1.963.227.284.477.548.824.692.051.023.102.037.106.102h-.185c-.31-.056-.625-.051-.935-.12-1.745-.41-3.11-1.393-4.207-2.776-1.31-1.643-2.009-3.55-2.259-5.625-.032-.265-.009-.539-.055-.803v-.372a2.197 2.197 0 0 0 0-.696v-.232c.101-.25.074-.524.111-.784.328-2.446 1.342-4.605 2.754-6.6 1.273-1.801 2.795-3.37 4.508-4.762.157-.126.324-.232.541-.205Z" fill="#9A7863"/><path d="M188.598 81.587a1.12 1.12 0 0 1 0 .696v-.696Z" fill="#DEC3A0"/><path d="M196.327 91.984a.366.366 0 0 1 .371 0h-.371Z" fill="#CAA87D"/><path d="M201.613 89.76c-.167-.106.018-.171.05-.213.153-.204.338-.376.496-.58 1.009-1.309 1.643-2.79 1.995-4.4.115-.525.18-1.058.231-1.592.139-.255.361-.441.555-.65a28.57 28.57 0 0 0 3.884-5.374 27.992 27.992 0 0 0 2.147-4.846c.037-.116.061-.241.144-.339.009-.005.018-.014.028-.018.162.13.217.306.24.505.181 1.657.195 3.314.047 4.976-.153 1.666-.473 3.3-1.07 4.869-1.351 3.536-3.739 6.029-7.336 7.3-.463.158-.93.298-1.411.362Z" fill="#8C695C"/><path d="M202.853 76.018c-.278-.46-.527-.938-.824-1.388a24.408 24.408 0 0 0-1.296-1.787c-.051-.065-.097-.14-.143-.204 1.37-.553 2.795-.887 4.258-1.077a24.466 24.466 0 0 1 5.832-.042.66.66 0 0 1 .463.232l-.009.014c-.056.088-.149.107-.237.135-1.3.418-2.554.942-3.776 1.56a27.904 27.904 0 0 0-3.976 2.44c-.093.056-.162.154-.292.117Z" fill="#8C695C"/><path d="M202.853 76.017c.486-.338.968-.686 1.463-1.007a27.762 27.762 0 0 1 4.411-2.362c.787-.33 1.583-.636 2.398-.887-.232.827-.551 1.62-.875 2.41a24.963 24.963 0 0 1-1.069 2.232 28.133 28.133 0 0 1-2.398 3.778c-.694.923-1.439 1.8-2.231 2.64-.051.056-.116.103-.171.154-.019-.325.051-.645.046-.97a12.322 12.322 0 0 0-1.027-4.795c-.172-.399-.361-.793-.547-1.192Z" fill="#785353"/></svg>