<svg width="245" height="138" fill="none" xmlns="http://www.w3.org/2000/svg"><path d="M175.658 95.458c0-1.774.494-3.156 1.481-4.144.987-.989 2.361-1.483 4.123-1.483 1.807 0 3.198.487 4.176 1.46.977.97 1.465 2.329 1.465 4.078 0 1.27-.214 2.313-.644 3.129a4.567 4.567 0 0 1-1.85 1.898c-.805.45-1.809.674-3.014.674-1.223 0-2.238-.195-3.042-.585-.8-.391-1.449-1.008-1.947-1.854-.499-.845-.748-1.903-.748-3.173Zm3.354.015c0 1.097.202 1.886.607 2.365.409.48.965.72 1.665.72.721 0 1.279-.236 1.674-.705.394-.47.592-1.312.592-2.528 0-1.023-.208-1.77-.622-2.24-.41-.474-.967-.711-1.673-.711-.676 0-1.219.24-1.629.72-.409.479-.614 1.272-.614 2.379Zm-17.783 33.703c0-1.774.494-3.155 1.481-4.144.987-.988 2.361-1.483 4.123-1.483 1.806 0 3.198.487 4.175 1.461.978.969 1.466 2.328 1.466 4.077 0 1.271-.215 2.314-.644 3.129a4.562 4.562 0 0 1-1.851 1.898c-.804.45-1.808.675-3.013.675-1.224 0-2.238-.195-3.042-.586-.8-.39-1.449-1.008-1.947-1.853-.499-.846-.748-1.903-.748-3.174Zm3.354.015c0 1.098.202 1.886.607 2.365.409.48.964.719 1.665.719.721 0 1.278-.234 1.673-.704.395-.469.593-1.312.593-2.528 0-1.023-.208-1.769-.622-2.239-.41-.474-.968-.712-1.673-.712-.676 0-1.219.24-1.629.719-.41.48-.614 1.273-.614 2.38Zm-43.436-99.564c0-1.774.494-3.156 1.481-4.144.987-.989 2.361-1.483 4.123-1.483 1.806 0 3.198.487 4.175 1.46.977.97 1.466 2.328 1.466 4.078 0 1.27-.215 2.313-.644 3.129a4.562 4.562 0 0 1-1.851 1.898c-.804.45-1.809.674-3.013.674-1.224 0-2.238-.195-3.042-.585-.8-.39-1.449-1.009-1.947-1.854-.499-.845-.748-1.903-.748-3.173Zm3.354.015c0 1.097.202 1.886.607 2.365.409.48.964.72 1.665.72.721 0 1.278-.236 1.673-.705.395-.47.593-1.312.593-2.528 0-1.023-.208-1.77-.622-2.24-.41-.474-.968-.711-1.673-.711-.677 0-1.219.24-1.629.72-.41.478-.614 1.272-.614 2.379Zm-3.354 82.668h3.238l4.226 6.218v-6.218h3.269v11.239h-3.269l-4.203-6.171v6.171h-3.261V112.31Zm25.652-44.155h3.145l4.103 6.218v-6.218h3.174v11.24h-3.174l-4.081-6.172v6.171h-3.167V68.155Zm.802 37.162 3.191-.2c.069.519.21.915.422 1.187.345.439.839.659 1.48.659.479 0 .847-.111 1.103-.333.262-.228.393-.49.393-.786 0-.282-.124-.534-.37-.756-.247-.223-.82-.433-1.718-.631-1.471-.331-2.519-.771-3.146-1.319-.632-.549-.948-1.248-.948-2.098 0-.559.161-1.085.481-1.58.326-.499.812-.89 1.459-1.17.651-.288 1.542-.43 2.672-.43 1.387 0 2.443.259 3.169.778.73.514 1.164 1.334 1.303 2.461l-3.161.185c-.084-.489-.262-.845-.533-1.067-.267-.223-.637-.334-1.111-.334-.39 0-.683.084-.881.252a.752.752 0 0 0-.296.601c0 .173.082.328.244.467.158.143.533.277 1.126.4 1.465.316 2.514.638 3.146.964.637.321 1.098.722 1.384 1.201a3.04 3.04 0 0 1 .437 1.609c0 .697-.192 1.339-.577 1.927-.385.589-.923 1.036-1.614 1.342-.691.302-1.562.453-2.614.453-1.845 0-3.124-.356-3.834-1.068-.711-.712-1.113-1.616-1.207-2.714Zm-26.454 21.443h3.468v3.934h3.789v-3.934h3.484V138h-3.484v-4.546h-3.789V138h-3.468v-11.24Zm83.481-52.031 2.208.668c-.148.62-.382 1.138-.7 1.554a3.03 3.03 0 0 1-1.191.941c-.47.212-1.071.318-1.801.318-.887 0-1.611-.128-2.175-.385-.56-.26-1.044-.715-1.451-1.364-.408-.65-.612-1.482-.612-2.495 0-1.352.358-2.39 1.073-3.114.719-.728 1.735-1.092 3.048-1.092 1.027 0 1.833.208 2.419.624.589.416 1.027 1.055 1.312 1.916l-2.224.496c-.078-.249-.16-.43-.245-.546a1.45 1.45 0 0 0-.517-.445 1.485 1.485 0 0 0-.684-.156c-.571 0-1.009.23-1.313.69-.229.342-.344.878-.344 1.61 0 .906.137 1.528.411 1.866.275.334.66.5 1.157.5.482 0 .845-.135 1.09-.406.248-.27.428-.664.539-1.18Zm3.448-4.829h2.52v2.857h2.753V69.9h2.53v8.165h-2.53v-3.303h-2.753v3.303h-2.52V69.9Zm10.241 7.534-1.284-.23c.106-.41.311-.724.614-.943.304-.218.735-.327 1.291-.327.638 0 1.1.119 1.385.357.284.239.427.538.427.9 0 .211-.058.403-.174.574a1.46 1.46 0 0 1-.524.451c.189.047.334.102.434.164.163.1.288.233.377.398.091.162.137.357.137.584 0 .286-.074.56-.224.823-.149.26-.363.462-.644.604-.28.14-.648.21-1.104.21-.445 0-.796-.051-1.054-.156a1.588 1.588 0 0 1-.634-.458 2.142 2.142 0 0 1-.381-.762l1.358-.18c.054.274.136.464.247.571a.612.612 0 0 0 .431.157.583.583 0 0 0 .453-.2c.123-.134.184-.312.184-.535 0-.227-.059-.403-.177-.528a.615.615 0 0 0-.474-.187 1.71 1.71 0 0 0-.44.08l.07-.972a1.3 1.3 0 0 0 .177.016.615.615 0 0 0 .444-.17.538.538 0 0 0 .18-.404.484.484 0 0 0-.134-.358.495.495 0 0 0-.367-.134c-.16 0-.29.05-.39.147-.1.096-.168.265-.204.508ZM175.77 28.968l2.207.668c-.148.62-.381 1.139-.7 1.554-.319.416-.716.73-1.19.942-.471.211-1.072.317-1.802.317-.886 0-1.611-.128-2.175-.384-.56-.26-1.044-.715-1.451-1.365-.408-.65-.612-1.481-.612-2.495 0-1.351.358-2.39 1.073-3.113.719-.728 1.735-1.092 3.048-1.092 1.027 0 1.833.208 2.419.624.59.416 1.027 1.054 1.313 1.916l-2.225.495c-.078-.248-.159-.43-.245-.545a1.45 1.45 0 0 0-.517-.446 1.485 1.485 0 0 0-.684-.156c-.571 0-1.008.23-1.312.69-.23.342-.345.879-.345 1.61 0 .906.137 1.528.411 1.866.275.334.66.501 1.157.501.482 0 .845-.135 1.09-.406.248-.271.428-.665.54-1.18Zm3.448-4.828h2.519v2.856h2.753V24.14h2.53v8.165h-2.53v-3.303h-2.753v3.303h-2.519V24.14Zm10.24 7.534-1.284-.23c.106-.41.311-.725.614-.943.304-.219.735-.328 1.291-.328.638 0 1.1.12 1.385.358.285.238.427.538.427.899 0 .212-.058.403-.174.575-.115.171-.29.322-.523.45.189.047.333.102.433.165.163.1.288.232.377.397.092.163.137.358.137.585 0 .285-.074.56-.223.822a1.52 1.52 0 0 1-.644.605c-.281.14-.649.21-1.105.21-.445 0-.796-.052-1.054-.157a1.595 1.595 0 0 1-.634-.457 2.142 2.142 0 0 1-.381-.762l1.358-.18c.054.273.136.464.247.57a.612.612 0 0 0 .431.158.587.587 0 0 0 .454-.2c.122-.134.183-.313.183-.535 0-.228-.059-.404-.177-.529a.615.615 0 0 0-.474-.187c-.106 0-.253.027-.44.08l.07-.972c.076.011.135.017.177.017a.615.615 0 0 0 .444-.17.538.538 0 0 0 .18-.405.484.484 0 0 0-.134-.358.495.495 0 0 0-.367-.133c-.16 0-.29.049-.39.147-.1.096-.168.265-.204.508Z" fill="#FA9100"/><path fill-rule="evenodd" clip-rule="evenodd" d="M76.183 57.934a1.601 1.601 0 0 0-1.604 0L49.802 72.26A1.606 1.606 0 0 0 49 73.65v28.654c0 .573.306 1.103.802 1.39l24.777 14.327a1.605 1.605 0 0 0 1.604 0l24.777-14.327c.496-.287.802-.817.802-1.39V73.65c0-.573-.306-1.103-.802-1.39L76.183 57.933Zm0 3.211a1.601 1.601 0 0 0-1.604 0l-22 12.721a1.606 1.606 0 0 0-.802 1.39V100.7c0 .573.306 1.103.802 1.39l22 12.721a1.6 1.6 0 0 0 1.604 0l22-12.721c.496-.287.802-.817.802-1.39V75.257c0-.574-.306-1.104-.802-1.39l-22-12.722Z" fill="#79C800"/><path d="M53.81 77.588a1.404 1.404 0 1 1 2.805 0v21.275a1.404 1.404 0 1 1-2.805 0V77.588Zm68.139-38.535a1.404 1.404 0 1 1 2.805 0v19.669a1.404 1.404 0 1 1-2.805 0v-19.67Zm5.611 0a1.404 1.404 0 1 1 2.806 0v19.669a1.404 1.404 0 1 1-2.806 0v-19.67Zm48.9 0a1.404 1.404 0 1 1 2.806 0v19.669a1.404 1.404 0 1 1-2.806 0v-19.67ZM94.264 99.365a1.402 1.402 0 0 1 1.917.514 1.406 1.406 0 0 1-.514 1.919L77.27 112.435a1.402 1.402 0 0 1-1.916-.514 1.406 1.406 0 0 1 .513-1.919l18.397-10.637ZM75.867 66.474a1.406 1.406 0 0 1-.513-1.92 1.402 1.402 0 0 1 1.916-.513l18.397 10.637c.671.388.901 1.247.514 1.92a1.402 1.402 0 0 1-1.916.513L75.867 66.474Z" fill="#79C800"/><path d="M126.757 60.458a1.407 1.407 0 0 0 .514-1.92 1.401 1.401 0 0 0-1.916-.514L100.718 72.27a1.406 1.406 0 0 0-.514 1.92 1.403 1.403 0 0 0 1.917.514l24.636-14.245Zm51.65-.406a1.405 1.405 0 0 0-1.403-2.434l-16.965 9.81a1.407 1.407 0 0 0-.514 1.919 1.403 1.403 0 0 0 1.917.514l16.965-9.81Z" fill="#79C800"/><path d="M125.569 60.458a1.407 1.407 0 0 1-.514-1.92 1.401 1.401 0 0 1 1.916-.514l17.21 9.95c.671.388.9 1.248.513 1.92a1.401 1.401 0 0 1-1.916.514l-17.209-9.95Zm52.106-.406a1.407 1.407 0 0 1-.514-1.92 1.403 1.403 0 0 1 1.917-.514l17.209 9.95a1.405 1.405 0 0 1-1.403 2.434l-17.209-9.95Zm-58.51 52.503a1.405 1.405 0 0 1-1.403 2.434L99.68 104.534a1.407 1.407 0 0 1-.514-1.92 1.403 1.403 0 0 1 1.917-.514l18.082 10.455Zm24.238-6.302a1.405 1.405 0 0 1 1.403 2.433l-9.818 5.677a1.402 1.402 0 0 1-1.917-.514 1.406 1.406 0 0 1 .514-1.919l9.818-5.677Zm26.969-12.063a1.404 1.404 0 0 1 .689 2.724l-10.99 2.79a1.405 1.405 0 0 1-.689-2.724l10.99-2.79Zm-4.261 25.241a1.405 1.405 0 0 1-.539 1.912 1.401 1.401 0 0 1-1.909-.54l-5.535-9.909a1.407 1.407 0 0 1 .54-1.912 1.401 1.401 0 0 1 1.909.54l5.534 9.909Zm5.864-20.424a1.405 1.405 0 0 1 .689 2.724l-10.989 2.789a1.405 1.405 0 0 1-.69-2.724l10.99-2.789Zm-10.094 23.222a1.407 1.407 0 0 1-.54 1.912 1.401 1.401 0 0 1-1.909-.54l-5.535-9.909a1.407 1.407 0 0 1 .54-1.912 1.401 1.401 0 0 1 1.909.54l5.535 9.909Zm-11.073-39.021a1.404 1.404 0 1 1 2.805 0V94.56a1.404 1.404 0 1 1-2.805 0V83.208Z" fill="#79C800"/></svg>