<svg width="386" height="386" fill="none" xmlns="http://www.w3.org/2000/svg"><g clip-path="url(#a)" fill="#FFCC01"><path d="M314.709 43.364c-105.935 0-184.612.31-243.775.31-1.549 1.24-3.407 2.788-4.956 4.027 60.711 0 142.486-.31 253.687-.31-1.858-1.239-3.407-2.788-4.956-4.026Zm-9.602-7.124c-2.169-1.549-4.027-2.788-6.195-4.336-70.934.31-141.867.62-212.8.31-2.478 1.548-4.956 3.407-7.434 5.265 75.269.31 150.849-.62 226.429-1.239Zm28.187 24.472c-1.549-1.549-3.098-3.407-4.647-4.956-103.767-1.239-195.454-.62-271.653.62-1.239 1.239-2.478 2.787-4.026 4.026 93.235-.929 186.78-.62 280.326.31Zm8.673 9.912c-1.549-1.859-3.407-4.027-4.956-5.886-93.545-.31-195.144.93-290.238 2.478-.93 1.24-2.169 2.478-3.098 3.717 112.75-1.858 212.49-1.239 298.292-.31Zm6.815 8.981c-.929-1.24-2.168-2.788-3.097-4.027-91.068-.31-201.34 0-307.585 2.168-1.239 1.55-2.478 3.408-3.407 4.957 161.071-3.098 253.997-3.408 314.089-3.098Zm5.885 8.364-324.93 2.168c-.93 1.549-2.169 3.407-3.098 5.266 138.769-.93 246.873-2.788 330.816-3.408-1.239-1.239-1.859-2.478-2.788-4.026Zm9.293 16.416c-.619-1.239-1.239-2.168-1.549-3.407-119.564 2.168-225.5 2.478-338.87-.62-.619.93-.928 1.859-1.548 2.788 113.989 2.788 187.4 4.027 341.967 1.239Zm2.787 5.267c-.619-1.548-1.549-2.787-2.168-4.336-73.412 0-131.645 8.983-348.162 9.912-.62 1.549-1.24 2.788-1.859 4.336 86.112-1.239 175.011-3.407 191.428-4.026 53.587-1.859 107.174-5.886 160.761-5.886Zm7.124 17.037c-.619-2.168-1.548-4.027-2.478-5.885-114.298-2.169-242.846-.31-359.313 4.026-.62 1.239-.929 2.478-1.239 3.717 150.85-5.885 261.741-4.646 363.03-1.858Zm5.266 16.417-.929-3.717c-87.97-3.717-227.978-7.124-369.845-2.168-.31 1.239-.62 2.788-1.239 4.027 110.892-3.717 220.854-4.956 372.013 1.858Zm-53.586 6.813c18.585.31 37.17 1.239 55.445 1.859-.31-1.859-.929-3.717-1.239-5.576-127.308-4.336-230.456 2.168-376.04 8.673-.31 1.239-.31 2.478-.619 3.717 92.616-4.336 204.127-11.151 322.453-8.673Zm56.994 8.673c-65.048 1.239-177.488 3.717-380.686 7.434-.31 1.239-.31 2.478-.62 4.027 205.367-3.098 317.497-4.647 382.235-5.576a239.531 239.531 0 0 0-.929-5.885Zm2.168 14.87c-.31-1.859-.62-4.027-.62-5.885-111.511 1.239-261.741 4.956-383.164 8.363 0 1.239-.31 2.168-.31 3.407 216.517-6.505 221.164-4.646 384.094-5.885Zm0 1.858C269.795 177.488 118.016 182.134 0 186.471v4.646c113.679-4.027 249.041-9.602 385.023-11.461 0-1.548 0-3.097-.31-4.336Zm.929 14.867C325.55 193.904 173.462 201.028.31 205.675c0 1.239.31 2.168.31 3.407 135.362-3.097 279.087-8.983 385.022-14.249v-4.646Zm-.309 14.558c0-1.549 0-2.788.31-4.337C210.013 203.816 86.422 207.533.93 210.63c.31 1.859.31 4.027.62 5.886 109.652-4.337 134.742-6.505 383.783-11.771Zm0-18.275v-4.027C275.061 185.541 120.184 190.497 0 194.833v3.408c97.882-3.717 269.485-8.983 385.333-11.771Z"/><path d="M384.403 214.968c.31-1.859.31-3.717.62-5.576-131.645-.929-273.202 3.407-383.164 8.673 0 1.239.31 2.478.31 3.407 129.476-7.124 256.784-8.363 382.234-6.504Zm-.929 5.576C100.05 225.5 79.297 223.641 2.788 226.119c.31 2.169.93 4.027 1.239 6.195 126.069-4.956 267.936-5.265 378.827-6.195 0-1.858.31-3.717.62-5.575Zm-2.788 15.796c.31-1.858.93-3.717 1.239-5.575-100.359 0-242.226 2.168-376.349 7.434.31 1.548.62 3.097 1.239 4.646 204.746-8.054 305.416-7.434 373.871-6.505Zm-1.858 7.435c-122.972 1.239-245.944 4.956-368.916 9.912l1.859 5.576c121.732-3.717 243.775-7.744 365.508-10.222.619-1.858.929-3.407 1.549-5.266Zm-3.717 11.46c-124.211 2.478-256.475 6.815-360.552 11.152.62 1.239 1.239 2.787 1.858 4.026 96.024-4.336 219.305-9.292 357.455-11.461.619-1.239.929-2.478 1.239-3.717Zm-7.124 17.965c-48.631 2.478-82.085 2.169-345.994 8.983.62.929.93 1.859 1.549 2.788 114.608-2.478 262.36-4.956 342.896-8.054.31-1.239.929-2.478 1.549-3.717Zm-11.771 21.993c.929-1.859 2.168-3.407 3.098-5.266-135.053 4.337-239.129 1.239-332.985 0 .62 1.549 1.55 3.098 2.479 4.337 110.581 4.646 215.897 4.336 327.408.929Zm-.31.62c-81.465 3.097-134.432 4.646-319.045 10.531l2.788 3.717c122.352-3.717 230.146-7.124 313.16-9.602.929-1.549 2.168-3.098 3.097-4.646Zm-12.7 17.656 3.717-4.646c-87.35 6.195-204.437 7.743-300.46 9.292.93.929 1.859 2.168 2.788 3.098 74.031-2.478 274.131-6.505 293.955-7.744Z"/><path d="M342.896 313.779c-87.35 2.168-207.534 4.956-293.955 7.434.93 1.239 2.168 2.169 3.097 3.408 83.324-1.859 199.481-4.647 287.451-7.125 1.239-1.239 2.478-2.478 3.407-3.717Zm-8.982 10.531c1.239-1.239 2.168-2.478 3.407-3.717-82.704 2.788-175.32 14.249-276.919 12.7 1.24 1.239 2.478 2.168 3.717 3.407 116.777 0 175.94-11.151 269.795-12.39Zm-13.629 13.009c1.858-1.858 4.027-3.407 5.885-5.266-126.069 10.532-169.125 10.842-252.139 12.391 1.24.929 2.788 2.168 4.027 3.097 95.094.31 167.576-3.407 242.227-10.222Zm-26.639 19.825c1.858-1.239 4.026-2.478 5.885-3.717-132.574 6.195-87.35 7.125-207.225 4.027 2.478 1.549 4.957 3.098 7.744 4.337 35.312 1.858 51.109 1.858 193.596-4.647Zm-24.781 13.01c3.408-1.549 7.125-3.098 10.532-4.956-53.897 4.646-103.767 6.505-156.425 7.434 2.788 1.239 5.885 2.168 8.673 3.097 41.197-.619 96.333-1.548 137.22-5.575Zm-27.568 9.292c-32.524-.309-65.357-1.548-97.881-.309l12.08 2.787c57.924-1.239 57.924 4.647 85.801-2.478Zm34.384-360.863c-56.685.62-115.848 1.549-169.745 2.168-2.168.93-4.026 2.169-6.195 3.098 71.243-.31 132.265-.62 183.993-.93-2.478-1.548-5.265-3.097-8.053-4.336ZM240.988 6.195c-39.649.93-74.341 1.549-104.077 2.168-4.337 1.24-8.673 2.788-12.7 4.337 43.055-1.239 86.421-2.478 127.618-3.407-3.407-1.24-7.124-2.169-10.841-3.098ZM206.295.62c-31.285.309-35.311-.31-55.136 4.026 23.542-.31 48.941-.93 75.89-1.549C220.234 1.858 213.42.93 206.295.62Z"/></g><defs><clipPath id="a"><path fill="#fff" d="M0 0h385.642v385.642H0z"/></clipPath></defs></svg>