<svg width="117" height="70" fill="none" xmlns="http://www.w3.org/2000/svg"><g clip-path="url(#a)" fill="#512A00"><path d="M62.464 67.614c-.7 1.2-2 1.3-3.3 1.3-.9 0-1.8-.1-2.8-.2-2.3-.2-4.5-.5-6.6-1.5-1.3-.6-1.4-.9-1.1-2 .5-1.3.9-1.6 2.2-1.3 2.2.5 4.4.4 6.5.3 2.3-.1 3.7 1.1 4.8 2.9 0 .1.1.2.1.2.2.2.2.2.2.3Zm14.699-32.201c-1.5.9-3.1.9-4.6.4-1.6-.4-3.1-.9-4.7-1.5-1.3-.5-1.6-1.1-1.5-1.9.2-1 1.1-1.8 2.3-1.9h.8c1.3.1 2.7.1 4 .2 1.3.1 2.1.9 2.9 1.9.3.3.5.8.7 1.2.5.7.5.7.1 1.6Zm-3.499 26.401c0 .8-.4 1.2-1 1.4-1.1.4-2.3.6-3.5.5-1-.1-1.9-.1-2.9-.2-1.9-.2-3.7-.5-5.6-.8-.2 0-.4-.2-.8-.5.2-.5.4-1.1.7-1.7 1.5-.1 2.9-.1 4.3-.3 1.5-.2 3-.5 4.4-.8 1.4-.3 3 .3 3.8 1.5.3.3.4.6.6.9Zm11.799-17.8c.1-.3.3-.6.5-.9.7-.1 1.3-.3 2-.4 1.8-.1 3.5-.2 5.3-.3.8 0 1.6-.1 2.4-.3 1.5-.4 2.4.5 3.3 1.3.6.5.9 1.3 1.4 2-4.4 1.4-8.6.2-12.8-.4-1.3-.1-1.4-.3-2.1-1Zm20.2 11.999c-.2-1 .2-1.6.9-1.9 2.1-.9 4.3-1.9 6.4-2.8.2-.1.4-.1.6-.1 1 .3 1.9.6 2.6 1.4.8.9.6 2.3-.5 2.7-.9.4-1.9.7-2.9.8-1.9.2-3.8.3-5.7.3-.4 0-.9-.3-1.4-.4Zm-67.5-16.199c.2-.5.3-.9.5-1.2.2-.3.6-.6 1-.6 2 .1 4 .2 6 .6 1.3.3 2.4 1.3 3.2 2.5.2.2.2.6.3.9-1.4 1.1-3 .9-4.4.6-1.8-.4-3.5-1.1-5.2-1.8-.5-.2-.9-.7-1.4-1Zm11.3 13.899c.4-1.7.8-2 2.4-2 .7 0 1.4.1 2 0 .7-.1 1.3-.3 2.1-.5 1.6.6 2.8 1.8 3.3 3.6-.6.9-1.3 1-2.2 1.1-1.5.1-3-.2-4.4-.7-.8-.3-1.6-.6-2.4-1-.3-.1-.5-.3-.8-.5Zm-27.2-53.1c.2-.2.5-.4.8-.6 1.2.7 2.3 1.4 3.5 2 .3.2.5.4.9.5 1.6.6 2.5 2 3.4 3.4.2.3.2.8.3 1.1-1.5.8-4 .4-5.1-.7-1.1-1.1-2.1-2.4-3.1-3.6-.7-.5-.8-1.2-.7-2.1Zm32.101 30.401c-3.1 1.1-8.3-.4-10-2.9.2-.4.4-.9.6-1.5.9.1 1.7.3 2.5.4 1 .1 1.9.2 2.9.2 1.6.1 3.5 1.4 3.9 2.9.1.3.1.6.1.9ZM17.563 7.213c-1.5.8-2.9.2-4.3-.2-.1 0-.3-.1-.3-.2-.9-1.4-1.9-2.8-2.7-4.2-.3-.5 0-1.2 0-2 .6.1.9 0 1.2.2 1.4.8 2.9 1.5 4.2 2.5.8.6 1.4 1.6 2 2.4.3.4.4.9-.1 1.5Zm20.501 11.701c-.3.8-.9.9-1.6.9-1.6.1-3.1-.2-4.3-1.2-1.1-.9-2.2-1.8-3.3-2.6-.2-1.5-.2-1.5.9-2.1 1.7.6 3.5 1.2 5.1 1.9 1.6.5 2.6 1.6 3.2 3.1Zm-9.001 14.298c-.5.3-1 .7-1.4.8-2.1.3-4.2.1-5.8-1.7-.7-.8-1.5-1.4-2.3-2.2.4-.6.7-.9 1-1.4 1.3.3 2.4.7 3.7.8 1.1.1 1.9.6 2.8 1.2.9.6 1.3 1.5 2 2.5Zm8.901 16.202c-.3 1-1.1 1-1.8 1.1-2.4.1-3.9-.4-6-2.1-.2-1.9.3-2.4 2.1-2.4 2.2 0 4.1.8 5.4 2.7.1.3.2.5.3.7ZM7.263 7.114c-2.1.2-3.8-.4-4.9-2.2-.5-.8-1.1-1.5-1.6-2.3-.7-1.2-.6-1.5.4-2.5 3.4 1.3 6.6 4.9 6.1 7Zm18.401 33.2c-2.1 1.3-6.1.1-8.3-2.5.2-.4.4-.9.6-1.3 2.9-.4 7 1.7 7.7 3.8Z"/></g><defs><clipPath id="a"><path fill="#fff" transform="translate(.363 .013)" d="M0 0h116.3v69H0z"/></clipPath></defs></svg>