<svg width="245" height="138" fill="none" xmlns="http://www.w3.org/2000/svg"><g clip-path="url(#a)"><path d="M43.766 79.064c1.764 0 3.516.01 5.28 0 .54 0 .992.078 1.202.656.165.49-.023.857-.629 1.269H16.55c-.297-.19-.584-.379-.66-.768-.122-.657.308-1.146 1.046-1.146 1.852-.011 3.704-.011 5.556-.011.143-.1.309-.123.474-.123 3.373.022 6.735-.067 10.097-.01 1.62-.023 3.241-.023 4.862 0 1.752-.034 3.505-.012 5.269-.012.198 0 .397.011.573.145Z" fill="#785353"/><path d="M58.438 24.356c-1.973 1.658-3.87 3.405-5.589 5.342-3.505 3.95-6.294 8.368-8.51 13.165-2.568 5.564-4.288 11.406-5.368 17.438-.243 1.369-.408 2.738-.606 4.118-.1.155.055.322 0 .478-.65 1.024-1.422 1.97-2.018 3.027-.066.122-.187.334-.364.078-.253-1.258-.22-2.537-.363-3.806-.42-3.572-1.202-7.067-2.271-10.494-.088-.267-.176-.523-.176-.813.12-2.225.584-4.395 1.168-6.532.485-1.792 1.19-3.494 1.962-5.175.088-.178.155-.378.353-.478.397-.668.782-1.336 1.19-1.992 3.44-5.642 8.334-9.582 14.22-12.353a32.217 32.217 0 0 1 5.578-2.036c.177-.045.353-.067.54-.112.122-.033.254-.077.254.145Z" fill="#79C800"/><path d="M33.294 52.823c.11.923.474 1.77.727 2.66a55.313 55.313 0 0 1 1.62 7.823c.21 1.591.31 3.183.42 4.774.154.211.022.39-.066.567-1.5 2.871-2.36 5.92-2.657 9.148-.011.178-.011.378-.232.456-.275-.044-.253-.278-.275-.478-.342-4.607-1.62-8.936-3.67-13.054-.343-.69-.817-1.313-1.048-2.07.01-.233.143-.467.022-.7-.728-10.317-3.483-19.988-9.061-28.846.529.212.849.568 1.201.868a42.968 42.968 0 0 1 8.786 10.183c.077.122.176.233.264.345.574.59.882 1.346 1.268 2.047a43.626 43.626 0 0 1 2.37 5.23c.132.346.176.713.33 1.047Z" fill="#79C800"/><path d="M28.223 62.627c.232.623.617 1.168.926 1.758 1.598 3.116 2.745 6.4 3.373 9.86.22 1.213.441 2.426.452 3.672 0 .112.011.223.11.3.21.29.21.569 0 .858-3.527.033-7.055.055-10.582 0a.1.1 0 0 1 .033-.078c.21-.2.485-.156.728-.156h4.067c.573 0 .618-.055.452-.6-.54-1.826-1.356-3.506-2.59-4.964-.133-.156-.276-.3-.265-.523-.154-1.736-.529-3.428-.97-5.108-1.3-4.975-3.406-9.526-6.658-13.488a23.698 23.698 0 0 0-3.803-3.717c1.235.056 5.7 2.515 8.245 4.708 2.448 2.103 4.586 4.484 6.262 7.255.11.045.154.145.22.223Zm5.071-9.804c-.441-.534-.53-1.236-.783-1.848a46.046 46.046 0 0 0-3.108-6.276c-.034-.056-.044-.134-.066-.212.584-1.724.87-3.516.991-5.33.353-4.997-.43-9.849-1.862-14.623-.034-.122-.056-.245-.122-.49 4.553 4.73 7.33 10.216 8.279 16.626-.64 1.536-1.356 3.027-1.852 4.619-.75 2.47-1.3 4.963-1.477 7.534Z" fill="#79C800"/><path d="M24.894 72.743c1.5 1.591 2.436 3.494 3.054 5.575.198.668.198.668-.474.679h-4.96c-.188-3.094-1.125-5.887-3.209-8.235-.375-.412-.793-.757-1.212-1.124.033-.267.21-.123.33-.111 2.227.278 4.19 1.146 5.865 2.648.21.178.408.367.606.568Zm3.329-10.116a.32.32 0 0 1-.22-.223c.187-.111.055-.311.12-.456.155.212.078.456.1.679Zm4.85 16.437v-.857c.243-.4.133-.868.188-1.291a25.26 25.26 0 0 1 1.708-6.488c.32-.801.717-1.57 1.08-2.348.695-1.113 1.4-2.204 2.205-3.239.066-.077.122-.166.22-.222 3.076-3.561 6.824-6.099 11.333-7.5-.408.367-.827.712-1.213 1.09-2.601 2.526-4.244 5.63-5.479 9.003-.507 1.369-.881 2.782-1.234 4.195.01.212-.077.379-.232.534-1.852 1.792-3.009 3.962-3.46 6.522-.034.222-.067.445-.254.6h-4.862Z" fill="#79C800"/><path d="M37.924 79.064c.32-2.081 1.003-4.007 2.281-5.687.397-.523.805-1.057 1.301-1.491.154-.134.265-.29.364-.456.187.122.253-.078.353-.145 2.182-1.68 4.684-2.47 7.374-2.76.121-.011.276-.156.309.1-1.599.79-2.811 2.014-3.76 3.495-1.366 2.114-2.149 4.45-2.38 6.955-1.951-.011-3.891-.011-5.842-.011Z" fill="#79C800"/></g><g clip-path="url(#b)"><path d="M160.017 62.657v-.171c.27-.98.286-2.01 1.095-2.851a4.98 4.98 0 0 1 5.591-1.15c2.914 1.287 4.48-.035 6.013-1.409.404-.36.387-.859.37-1.357-.101-2.576.32-5.066 1.213-7.487.673-1.803-.404-3.452-2.291-3.538-1.229-.052-2.29-.43-3.149-1.391-1.415-1.58-1.229-4.019.455-5.392 1.6-1.306 4.109-.962 5.237.686.236.361.421.739.59 1.134.337.79.892 1.39 1.633 1.786.859.464 1.685.515 2.493-.189.977-.859 2.088-1.563 3.234-2.147.64-.326.976-.807 1.077-1.528.304-2.078-.084-3.813-1.886-5.135-2.155-1.546-2.307-4.74-.606-6.818 1.01-1.22 2.29-1.494 3.688-1.683h.505c.337.172.725.138 1.061.138 1.904.085 3.015 1.253 3.706 2.867.69 1.632.539 3.28-.59 4.689-1.229 1.528-1.583 2.765.135 5.083.354.481.825.67 1.381.67 2.509 0 4.8.79 7.006 1.906.589.31 1.128.292 1.684-.034a13.327 13.327 0 0 0 2.341-1.683c.606-.532.825-1.237.926-2.044.32-2.645 2.847-4.207 5.12-3.16 1.381.636 2.206 1.735 2.24 3.332.051 1.649-.69 2.937-2.139 3.469-2.004.721-2.998 2.284-3.89 4.019-.371.704-.371 1.34.084 2.009.808 1.185 1.314 2.524 1.836 3.847.438 1.116 1.094 1.545 2.257 1.528 1.33-.034 2.391-.55 3.216-1.717 1.314-1.872 3.638-2.645 5.659-2.027 2.341.722 3.57 2.388 3.604 4.93v1.064c.051 2.25-.977 3.795-2.981 4.602-2.122.859-4.075.533-5.726-1.15-1.802-1.855-3.015-1.254-4.716-.464-.353.172-.505.515-.555.91-.186 1.391-.539 2.748-.994 4.07-.32.962-.135 1.477.691 2.061.842.601 1.785.773 2.778.807 2.021.052 3.588 1.735 3.588 3.779 0 1.648-1.045 3.073-2.628 3.589-1.465.48-3.2-.103-4.058-1.494-.657-1.065-1.264-2.147-2.308-2.903-.808-.6-1.061-.618-1.785.103-1.112 1.1-2.29 2.113-3.655 2.868-.774.43-1.111 1.065-1.195 1.924-.202 2.146.353 4.018 1.97 5.495 1.179 1.065 1.785 2.353 1.735 4.002-.051 1.562-1.331 3.778-3.47 3.743-.117 0-.218 0-.32.086h-1.515c-3.133-.721-4.345-3.04-3.183-6.165.808-2.181.337-4.207-.657-6.2-.219-.429-.606-.6-1.044-.584-1.432.018-2.863-.051-4.261-.343-.573-.12-1.028.172-1.432.567-1.684 1.631-2.408 3.692-2.627 5.976a14.81 14.81 0 0 1-.236 1.7c-.353 1.7-2.189 3.057-3.806 2.851-1.869-.223-3.284-1.786-3.351-3.59-.051-1.476.555-2.558 1.701-3.417 2.054-1.528 2.964-3.658 3.014-6.2.017-.635-.219-1.15-.707-1.58a17.303 17.303 0 0 1-3.352-3.932c-.454-.721-1.01-1.03-1.835-.824-.27.069-.556.069-.842.051-1.887-.12-3.217.704-4.11 2.387-.741 1.391-1.953 2.164-3.469 2.473-2.846.567-5.322-1.442-5.389-4.396-.118-.343.016-.704-.169-1.048Z" fill="#F6BD57"/><path d="M182.686 46.514c1.785.017 3.115 1.391 3.098 3.229 0 1.786-1.465 3.297-3.2 3.297-1.701 0-3.183-1.511-3.199-3.228 0-1.803 1.498-3.315 3.301-3.298Zm15.915 3.967c1.28 0 2.459 1.22 2.475 2.542.017 1.357-1.212 2.593-2.526 2.576-1.297-.034-2.459-1.22-2.475-2.542-.017-1.34 1.195-2.576 2.526-2.576Zm-10.122 7.265c0 1.15-.909 2.078-2.021 2.078-1.112 0-2.122-1.014-2.122-2.13 0-1.133.977-2.078 2.156-2.06 1.061 0 1.97.961 1.987 2.112Zm5.17-11.713c-.016.945-.875 1.77-1.819 1.77-.943 0-1.768-.86-1.751-1.821.017-.962.842-1.82 1.768-1.82.994 0 1.836.876 1.802 1.871Zm-.606 20.231c-1.027 0-1.701-.704-1.701-1.786 0-1.065.758-1.82 1.802-1.803.91.017 1.684.841 1.701 1.768.034.98-.808 1.82-1.802 1.82Z" fill="#F4A34E"/><path d="M201.312 28.568c0 1.357-1.078 2.473-2.391 2.439-1.28-.035-2.341-1.117-2.341-2.422 0-1.34 1.111-2.456 2.408-2.438 1.297.017 2.324 1.099 2.324 2.421Zm-31.813 3.675c-1.971-.017-3.588-1.666-3.588-3.675 0-2.01 1.634-3.675 3.588-3.658 1.953 0 3.587 1.666 3.604 3.675.017 1.975-1.651 3.675-3.604 3.658Zm-3.284 43.02c0-1.357 1.077-2.473 2.391-2.439 1.28.017 2.341 1.116 2.358 2.422a2.382 2.382 0 0 1-2.409 2.421c-1.33-.017-2.34-1.065-2.34-2.404Zm44.478 7.333c-1.92 0-3.402-1.529-3.402-3.487.017-1.957 1.516-3.468 3.436-3.434 1.886.017 3.351 1.528 3.351 3.452.034 1.94-1.465 3.469-3.385 3.469Z" fill="#F6BD57"/></g><g clip-path="url(#c)"><path d="M106.403 82.853c1.101-1.777 2.497-3.26 4.273-4.36.404-.251.349-.459.12-.796-1.842-2.606-1.984-5.364-.621-8.209.087-.174.272-.36.087-.545-.436-.436-.36-.992-.36-1.515 0-2.027.011-4.066 0-6.082-.01-1.385-.763-2.42-1.983-2.813-1.418-.458-2.987-.043-3.772 1.003-.665.883-.785 1.831-.36 2.823.447 1.014 1.243 1.614 2.366 1.712.359.032.719 0 1.079.032.763.044 1.286.589 1.264 1.265-.022.676-.512 1.145-1.253 1.188-2.257.142-4.186-.48-5.429-2.485-1.221-1.919-1.134-3.88.066-5.8.021-.043.01-.098.021-.152l1.199-1.2c1.254-.773 2.617-1.067 4.099-.98 2.867.163 5.025 2.256 5.145 5.123.066 1.613.033 3.238.022 4.862 0 .283-.076.556-.153 1.046 3.281-2.103 6.345-2.136 9.408-.141.207-.23.098-.491.109-.742.021-1.766-.066-3.553.065-5.32.229-3.28 3.292-5.362 6.802-4.73 3.052.545 5.003 3.586 4.219 6.573-.687 2.67-3.412 4.415-6.148 3.946-.676-.109-1.058-.534-1.058-1.21 0-.676.404-1.1 1.069-1.199.381-.055.773-.01 1.155-.044 1.537-.12 2.682-1.351 2.682-2.856 0-1.482-1.167-2.714-2.704-2.834-2.354-.174-3.608.992-3.619 3.38v5.624c-.011.534.076 1.08-.37 1.526-.197.197 0 .37.087.545 1.373 2.856 1.242 5.603-.6 8.209-.229.316-.316.534.109.784 1.766 1.112 3.161 2.595 4.273 4.36-.131.284-.414.284-.654.306-1.907.272-3.575 1.046-4.872 2.496a1.58 1.58 0 0 1-.469.382c-2.158.327-4.339.392-6.508.272-.915-.043-1.853-.022-2.747-.261-.272-.142-.49-.382-.697-.59-1.21-1.296-2.726-1.961-4.437-2.256-.327-.043-.687.011-.905-.337Z" fill="#9A7863"/><path d="M124.596 100.697c.633.414 1.254.817 1.897 1.221-.065 1.831-1.035 3.237-2.147 4.567-1.984 2.376-4.35 4.328-6.824 6.17-.262.196-.534.316-.829.087-3.03-2.289-5.995-4.644-8.11-7.87-.588-.894-.948-1.864-.97-2.954.622-.404 1.232-.796 1.864-1.188.327-.022.589.13.861.272 4.546 2.518 9.081 2.475 13.594-.098.196-.109.37-.349.664-.207Zm-3.084-14.727c-.818 1.385-1.461 2.834-1.625 4.48-.109 1.069.109 2.071.218 3.118-.817.926-1.929 1.166-3.052 1.155-1.123.011-2.245-.24-3.052-1.155.61-2.725.065-5.254-1.417-7.587 2.976.25 5.952.262 8.928-.01Z" fill="#785353"/><path d="M113.99 93.557c.73.36 1.417.785 2.246.916 1.417.24 2.659-.218 3.859-.916.545 1.744 1.22 3.401 2.354 4.862.643.839 1.472 1.493 2.147 2.278-5.036 3.183-10.083 3.15-15.141.033 1.298-1.32 2.628-2.627 3.445-4.339.458-.916.73-1.886 1.09-2.834Z" fill="#9A7863"/><path d="m96.752 101.623-.981-.981c-1.842-2.234-2.257-4.807-1.679-7.586.992-4.873 5.036-9.004 10.018-9.93.828-.154 1.724-.458 2.552-.545 0 0 7.881-2.27 9.527-.405.665.468-.709 6.08-.709 6.08s-.622 3.48-1.135 5.454c-.719 2.9-2.289 5.254-4.556 7.15-.694.471-1.973 1.08-1.973 1.08-1.929 1.035-3.968 1.613-6.192 1.504-1.83-.109-3.455-.665-4.872-1.821Zm41.009 0 .981-.981c1.842-2.234 2.256-4.807 1.679-7.586-.992-4.873-5.036-9.004-10.018-9.93-.829-.154-1.724-.458-2.552-.545 0 0-7.882-2.27-9.527-.405-.665.468.709 6.08.709 6.08s.622 3.48 1.134 5.454c.72 2.9 2.289 5.254 4.557 7.15.694.471 1.973 1.08 1.973 1.08 1.929 1.035 3.968 1.613 6.191 1.504 1.832-.109 3.456-.665 4.873-1.821Z" fill="#C8D4E4"/></g><defs><clipPath id="a"><path fill="#fff" transform="translate(13 24)" d="M0 0h46v57H0z"/></clipPath><clipPath id="b"><path fill="#fff" transform="translate(160 24)" d="M0 0h61v61H0z"/></clipPath><clipPath id="c"><path fill="#fff" transform="translate(87 54)" d="M0 0h60v60H0z"/></clipPath></defs></svg>