<svg width="245" height="138" fill="none" xmlns="http://www.w3.org/2000/svg"><path d="M171.968 92.1c0-1.915.533-3.405 1.601-4.472 1.067-1.067 2.554-1.6 4.459-1.6 1.953 0 3.458.525 4.515 1.576 1.057 1.045 1.585 2.512 1.585 4.4 0 1.37-.232 2.495-.696 3.375a4.931 4.931 0 0 1-2.002 2.048c-.87.485-1.956.728-3.258.728-1.324 0-2.42-.21-3.29-.632-.865-.421-1.567-1.088-2.106-2-.539-.912-.808-2.053-.808-3.423Zm3.626.016c0 1.183.219 2.034.657 2.551.443.517 1.043.776 1.801.776.779 0 1.382-.253 1.809-.76.427-.506.641-1.416.641-2.728 0-1.103-.224-1.909-.673-2.415-.443-.512-1.046-.768-1.809-.768-.731 0-1.318.258-1.761.776-.443.517-.665 1.373-.665 2.567Zm-19.23 36.364c0-1.915.533-3.405 1.601-4.472 1.067-1.066 2.554-1.6 4.459-1.6 1.953 0 3.458.526 4.515 1.576 1.057 1.046 1.585 2.512 1.585 4.4 0 1.37-.232 2.496-.696 3.375a4.926 4.926 0 0 1-2.002 2.048c-.87.486-1.956.728-3.258.728-1.324 0-2.42-.21-3.29-.632-.865-.421-1.567-1.088-2.106-2-.539-.911-.808-2.053-.808-3.423Zm3.626.016c0 1.184.219 2.034.657 2.552.443.517 1.043.775 1.801.775.779 0 1.382-.253 1.809-.759.427-.507.641-1.416.641-2.728 0-1.104-.224-1.909-.673-2.416-.443-.512-1.046-.768-1.809-.768-.731 0-1.318.259-1.761.776-.443.517-.665 1.373-.665 2.568ZM113.02 21.071c0-1.914.533-3.405 1.601-4.471 1.067-1.067 2.553-1.6 4.459-1.6 1.953 0 3.458.525 4.515 1.576 1.057 1.045 1.585 2.512 1.585 4.4 0 1.37-.232 2.495-.697 3.375a4.935 4.935 0 0 1-2.001 2.048c-.87.485-1.956.728-3.258.728-1.324 0-2.421-.21-3.29-.632-.865-.422-1.567-1.088-2.106-2-.539-.912-.808-2.053-.808-3.424Zm3.626.016c0 1.184.219 2.035.656 2.552.443.517 1.044.776 1.802.776.779 0 1.382-.253 1.809-.76.427-.507.64-1.416.64-2.728 0-1.104-.224-1.909-.672-2.415-.443-.512-1.046-.768-1.809-.768-.731 0-1.319.258-1.762.776-.442.517-.664 1.373-.664 2.567Zm-3.626 89.195h3.501l4.57 6.708v-6.708h3.535v12.126h-3.535l-4.545-6.658v6.658h-3.526v-12.126Zm27.74-47.642h3.4l4.437 6.71v-6.71h3.432v12.128h-3.432l-4.413-6.66v6.66h-3.424V62.64Zm.867 40.097 3.45-.216c.075.56.227.987.457 1.28.373.475.907.712 1.601.712.517 0 .915-.12 1.193-.36.282-.245.424-.528.424-.848 0-.304-.134-.576-.4-.816-.267-.24-.886-.466-1.858-.68-1.59-.357-2.724-.831-3.402-1.423-.683-.592-1.025-1.347-1.025-2.264 0-.603.174-1.17.521-1.704.352-.539.878-.96 1.577-1.264.704-.31 1.668-.464 2.89-.464 1.499 0 2.642.28 3.426.84.79.555 1.26 1.44 1.409 2.656l-3.418.2c-.091-.528-.283-.912-.577-1.152-.288-.24-.688-.36-1.201-.36-.421 0-.739.09-.952.272a.808.808 0 0 0-.32.648c0 .187.088.355.264.504.171.154.576.299 1.217.432 1.585.341 2.719.688 3.402 1.04.688.346 1.187.778 1.497 1.296.315.517.472 1.095.472 1.735 0 .752-.208 1.446-.624 2.08-.416.635-.998 1.117-1.745 1.448-.748.325-1.689.488-2.826.488-1.996 0-3.379-.384-4.147-1.152-.769-.768-1.204-1.744-1.305-2.928Zm-28.607 23.136h3.75v4.244h4.098v-4.244h3.766V138h-3.766v-4.905h-4.098V138h-3.75v-12.127Zm90.276-56.139 2.387.72c-.16.67-.412 1.229-.757 1.677a3.286 3.286 0 0 1-1.287 1.016c-.509.228-1.159.342-1.949.342-.958 0-1.742-.138-2.351-.414-.606-.28-1.129-.771-1.57-1.472-.441-.702-.662-1.599-.662-2.693 0-1.458.387-2.578 1.161-3.359.778-.785 1.877-1.178 3.296-1.178 1.11 0 1.982.225 2.616.673.637.449 1.111 1.138 1.419 2.067l-2.405.535c-.085-.268-.173-.464-.265-.589a1.568 1.568 0 0 0-.559-.48 1.61 1.61 0 0 0-.74-.169c-.617 0-1.091.249-1.419.746-.249.368-.373.947-.373 1.736 0 .978.148 1.649.445 2.013.297.361.714.541 1.251.541.521 0 .914-.146 1.179-.438.268-.293.463-.718.583-1.274Zm3.729-5.211h2.724v3.083h2.977v-3.082h2.736v8.81h-2.736V69.77h-2.977v3.563h-2.724v-8.81Zm11.074 8.13-1.389-.249c.115-.442.336-.781.664-1.017.329-.235.795-.353 1.396-.353.69 0 1.19.129 1.498.386.307.257.461.58.461.97 0 .228-.062.435-.187.62a1.593 1.593 0 0 1-.567.487c.205.05.361.109.469.176.176.108.312.251.408.43.099.175.148.385.148.63 0 .308-.081.604-.242.887a1.632 1.632 0 0 1-.696.653c-.303.151-.701.227-1.195.227-.481 0-.861-.056-1.14-.17a1.724 1.724 0 0 1-.685-.493 2.31 2.31 0 0 1-.412-.822l1.469-.195c.058.296.147.501.267.616a.66.66 0 0 0 .465.17.632.632 0 0 0 .491-.216c.132-.145.199-.337.199-.577 0-.246-.064-.435-.192-.57-.125-.135-.296-.202-.512-.202a1.86 1.86 0 0 0-.476.087l.075-1.05c.082.012.146.018.192.018a.667.667 0 0 0 .48-.184.579.579 0 0 0 .194-.436.522.522 0 0 0-.144-.386.536.536 0 0 0-.397-.144.578.578 0 0 0-.422.159c-.108.103-.182.286-.22.548ZM172.088 20.36l2.387.721c-.16.67-.413 1.228-.757 1.677a3.286 3.286 0 0 1-1.287 1.016c-.51.228-1.159.342-1.949.342-.958 0-1.742-.138-2.351-.415-.606-.28-1.129-.77-1.57-1.472-.441-.7-.662-1.598-.662-2.692 0-1.458.387-2.578 1.161-3.36.778-.784 1.877-1.177 3.296-1.177 1.11 0 1.982.224 2.616.673.637.449 1.111 1.138 1.419 2.067l-2.405.535c-.085-.268-.173-.465-.265-.589a1.567 1.567 0 0 0-.559-.48 1.609 1.609 0 0 0-.74-.169c-.617 0-1.091.248-1.419.745-.249.369-.373.948-.373 1.737 0 .978.148 1.649.445 2.013.297.36.714.54 1.251.54.521 0 .914-.145 1.179-.438.268-.292.463-.717.583-1.274Zm3.729-5.21h2.724v3.083h2.977V15.15h2.736v8.81h-2.736v-3.564h-2.977v3.564h-2.724v-8.81Zm11.074 8.13-1.389-.25c.115-.442.336-.78.664-1.016.329-.235.795-.353 1.396-.353.69 0 1.19.128 1.498.386.307.257.461.58.461.97 0 .228-.062.434-.187.62a1.593 1.593 0 0 1-.567.486c.205.05.361.11.469.177.176.108.312.251.408.43.099.174.148.385.148.63 0 .308-.081.603-.242.887a1.632 1.632 0 0 1-.696.653c-.303.151-.701.227-1.195.227-.481 0-.861-.057-1.14-.17a1.724 1.724 0 0 1-.685-.494 2.31 2.31 0 0 1-.412-.822l1.469-.194c.058.295.147.5.267.616a.66.66 0 0 0 .465.17.632.632 0 0 0 .491-.217c.132-.144.199-.336.199-.577 0-.245-.064-.435-.192-.57-.125-.134-.296-.201-.512-.201a1.86 1.86 0 0 0-.476.086l.075-1.049c.082.012.146.018.192.018a.667.667 0 0 0 .48-.184.579.579 0 0 0 .194-.436.522.522 0 0 0-.144-.386.536.536 0 0 0-.397-.144.578.578 0 0 0-.422.159c-.108.103-.182.286-.22.548Z" fill="#EE4A13"/><path fill-rule="evenodd" clip-rule="evenodd" d="M64.395 51.612a1.735 1.735 0 0 0-1.734 0L35.867 67.07c-.536.31-.867.881-.867 1.5v30.915c0 .619.33 1.191.867 1.501l26.794 15.457c.537.31 1.198.31 1.734 0l26.795-15.457c.536-.31.867-.882.867-1.5V68.57c0-.619-.33-1.19-.867-1.5L64.395 51.612Zm0 3.466a1.735 1.735 0 0 0-1.734 0L38.87 68.803c-.537.31-.867.881-.867 1.5v27.45c0 .62.33 1.192.867 1.5l23.79 13.727c.537.31 1.198.31 1.734 0l23.792-13.725c.536-.31.867-.882.867-1.5v-27.45c0-.62-.33-1.192-.867-1.501L64.395 55.078Z" fill="#5181B8"/><path d="M40.201 72.819a1.516 1.516 0 0 1 3.034 0v22.954a1.516 1.516 0 0 1-3.034 0V72.819Zm73.685-41.578a1.517 1.517 0 0 1 3.035 0v21.222a1.517 1.517 0 0 1-3.035 0V31.241Zm6.069 0a1.516 1.516 0 0 1 3.034 0v21.222a1.516 1.516 0 0 1-3.034 0V31.241Zm52.88 0a1.516 1.516 0 0 1 3.034 0v21.222a1.517 1.517 0 0 1-3.034 0V31.241ZM83.949 96.314a1.515 1.515 0 1 1 1.517 2.626L65.57 110.417a1.516 1.516 0 1 1-1.517-2.626L83.95 96.314ZM64.054 60.827a1.515 1.515 0 1 1 1.517-2.625l19.895 11.477a1.515 1.515 0 1 1-1.517 2.625L64.054 60.827Z" fill="#5181B8"/><path d="M119.087 54.336a1.516 1.516 0 1 0-1.517-2.626L90.927 67.08a1.515 1.515 0 1 0 1.517 2.626l26.643-15.37Zm55.853-.438a1.516 1.516 0 1 0-1.517-2.626l-18.346 10.584a1.517 1.517 0 0 0 1.517 2.626l18.346-10.584Z" fill="#5181B8"/><path d="M117.801 54.336a1.517 1.517 0 0 1 1.517-2.626l18.61 10.736a1.516 1.516 0 1 1-1.517 2.626l-18.61-10.736Zm56.347-.438a1.516 1.516 0 1 1 1.517-2.626l18.61 10.736a1.516 1.516 0 1 1-1.517 2.625l-18.61-10.735Zm-63.272 56.648a1.516 1.516 0 1 1-1.517 2.626l-19.554-11.281a1.514 1.514 0 0 1-.556-2.07 1.518 1.518 0 0 1 2.073-.555l19.554 11.28Zm26.211-6.8a1.515 1.515 0 1 1 1.517 2.626l-10.617 6.125a1.516 1.516 0 1 1-1.517-2.626l10.617-6.125Zm29.164-13.015a1.517 1.517 0 0 1 .745 2.94l-11.884 3.009a1.517 1.517 0 0 1-.745-2.94l11.884-3.008Zm-4.607 27.234a1.516 1.516 0 0 1-2.648 1.48l-5.985-10.691a1.518 1.518 0 0 1 2.648-1.48l5.985 10.691Zm6.341-22.036a1.517 1.517 0 0 1 .745 2.939l-11.884 3.009a1.515 1.515 0 1 1-.745-2.939l11.884-3.01Zm-10.917 25.055a1.516 1.516 0 0 1-2.647 1.48l-5.985-10.691a1.518 1.518 0 0 1 2.648-1.48l5.984 10.691Zm-11.974-42.102a1.516 1.516 0 0 1 3.034 0v12.25a1.516 1.516 0 0 1-3.034 0v-12.25Z" fill="#5181B8"/></svg>