<svg width="386" height="386" viewBox="0 0 386 386" fill="none" xmlns="http://www.w3.org/2000/svg">
<g clip-path="url(#clip0_2_1346)">
<path d="M314.709 43.3645C208.774 43.3645 130.097 43.6743 70.9338 43.6743C69.385 44.9133 67.5265 46.462 65.9777 47.701C126.689 47.701 208.464 47.3913 319.665 47.3913C317.807 46.1523 316.258 44.6035 314.709 43.3645Z" fill="#FFCC01"/>
<path d="M305.107 36.2402C302.938 34.6915 301.08 33.4524 298.912 31.9037C227.978 32.2134 157.045 32.5232 86.1116 32.2134C83.6336 33.7622 81.1555 35.6207 78.6775 37.4792C153.947 37.789 229.527 36.8597 305.107 36.2402Z" fill="#FFCC01"/>
<path d="M333.294 60.7121C331.745 59.1633 330.196 57.3048 328.647 55.7561C224.88 54.517 133.193 55.1366 56.9943 56.3756C55.7553 57.6146 54.5163 59.1633 52.9675 60.4023C146.203 59.4731 239.748 59.7828 333.294 60.7121Z" fill="#FFCC01"/>
<path d="M341.967 70.6236C340.418 68.7651 338.56 66.5969 337.011 64.7383C243.466 64.4286 141.867 65.6676 46.7726 67.2164C45.8433 68.4554 44.6043 69.6944 43.6751 70.9334C156.425 69.0749 256.165 69.6944 341.967 70.6236Z" fill="#FFCC01"/>
<path d="M348.782 79.605C347.853 78.3659 346.614 76.8172 345.685 75.5782C254.617 75.2684 144.345 75.5782 38.1002 77.7464C36.8612 79.2952 35.6222 81.1537 34.6929 82.7025C195.764 79.605 288.69 79.2952 348.782 79.605Z" fill="#FFCC01"/>
<path d="M354.667 87.9686L29.7367 90.1369C28.8075 91.6857 27.5684 93.5442 26.6392 95.4027C165.408 94.4734 273.512 92.6149 357.455 91.9954C356.216 90.7564 355.596 89.5174 354.667 87.9686Z" fill="#FFCC01"/>
<path d="M363.96 104.385C363.341 103.146 362.721 102.217 362.411 100.978C242.847 103.146 136.911 103.456 23.5418 100.358C22.9223 101.288 22.6126 102.217 21.9931 103.146C135.982 105.934 209.393 107.173 363.96 104.385Z" fill="#FFCC01"/>
<path d="M366.747 109.652C366.128 108.104 365.198 106.865 364.579 105.316C291.167 105.316 232.934 114.299 16.4169 115.228C15.7974 116.777 15.1779 118.016 14.5583 119.564C100.67 118.325 189.569 116.157 205.986 115.538C259.573 113.679 313.16 109.652 366.747 109.652Z" fill="#FFCC01"/>
<path d="M373.871 126.689C373.252 124.521 372.323 122.662 371.393 120.804C257.095 118.635 128.547 120.494 12.0804 124.83C11.4608 126.069 11.1511 127.308 10.8413 128.547C161.691 122.662 272.582 123.901 373.871 126.689Z" fill="#FFCC01"/>
<path d="M379.137 143.106C378.827 141.867 378.518 140.628 378.208 139.389C290.238 135.672 150.23 132.265 8.3631 137.221C8.05334 138.46 7.74359 140.009 7.12408 141.248C118.016 137.531 227.978 136.292 379.137 143.106Z" fill="#FFCC01"/>
<path d="M325.551 149.919C344.136 150.229 362.721 151.158 380.996 151.778C380.686 149.919 380.067 148.061 379.757 146.202C252.449 141.866 149.301 148.37 3.71753 154.875C3.40778 156.114 3.40778 157.353 3.09802 158.592C95.7141 154.256 207.225 147.441 325.551 149.919Z" fill="#FFCC01"/>
<path d="M382.545 158.592C317.497 159.831 205.057 162.309 1.85913 166.026C1.54938 167.265 1.54938 168.504 1.23962 170.053C206.606 166.955 318.736 165.406 383.474 164.477C383.165 162.309 382.855 160.45 382.545 158.592Z" fill="#FFCC01"/>
<path d="M384.713 173.462C384.403 171.603 384.093 169.435 384.093 167.577C272.582 168.816 122.352 172.533 0.929046 175.94C0.929046 177.179 0.619293 178.108 0.619293 179.347C217.136 172.842 221.783 174.701 384.713 173.462Z" fill="#FFCC01"/>
<path d="M384.713 175.32C269.795 177.488 118.016 182.134 6.10352e-05 186.471C6.10352e-05 188.02 6.10352e-05 189.568 6.10352e-05 191.117C113.679 187.09 249.041 181.515 385.023 179.656C385.023 178.108 385.023 176.559 384.713 175.32Z" fill="#FFCC01"/>
<path d="M385.642 190.187C325.55 193.904 173.462 201.028 0.310181 205.675C0.310181 206.914 0.619933 207.843 0.619933 209.082C135.982 205.985 279.707 200.099 385.642 194.833C385.642 194.214 385.642 191.116 385.642 190.187Z" fill="#FFCC01"/>
<path d="M385.333 204.745C385.333 203.196 385.333 201.957 385.643 200.408C210.013 203.816 86.4216 207.533 0.92984 210.63C1.23959 212.489 1.23959 214.657 1.54935 216.516C111.202 212.179 136.292 210.011 385.333 204.745Z" fill="#FFCC01"/>
<path d="M385.333 186.47C385.333 185.231 385.333 183.992 385.333 182.443C275.061 185.541 120.184 190.497 0.000457764 194.833C0.000457764 196.072 0.000457764 197.002 0.000457764 198.241C97.8823 194.524 269.485 189.258 385.333 186.47Z" fill="#FFCC01"/>
<path d="M384.403 214.968C384.713 213.109 384.713 211.251 385.023 209.392C253.378 208.463 111.821 212.799 1.8588 218.065C1.8588 219.304 2.16855 220.543 2.16855 221.472C131.645 214.348 258.953 213.109 384.403 214.968Z" fill="#FFCC01"/>
<path d="M383.474 220.544C100.05 225.5 79.2967 223.641 2.78781 226.119C3.09756 228.288 3.71707 230.146 4.02682 232.314C130.096 227.358 271.963 227.049 382.854 226.119C382.854 224.261 383.164 222.402 383.474 220.544Z" fill="#FFCC01"/>
<path d="M380.686 236.34C380.996 234.482 381.616 232.623 381.925 230.765C281.566 230.765 139.699 232.933 5.57599 238.199C5.88574 239.747 6.19549 241.296 6.815 242.845C211.561 234.791 312.231 235.411 380.686 236.34Z" fill="#FFCC01"/>
<path d="M378.828 243.775C255.856 245.014 132.884 248.731 9.91211 253.687C10.5316 255.546 11.1511 257.405 11.7706 259.263C133.503 255.546 255.546 251.519 377.279 249.041C377.898 247.183 378.208 245.634 378.828 243.775Z" fill="#FFCC01"/>
<path d="M375.111 255.235C250.9 257.713 118.636 262.05 14.5587 266.387C15.1782 267.626 15.7977 269.174 16.4172 270.413C112.441 266.077 235.722 261.121 373.872 258.952C374.491 257.713 374.801 256.474 375.111 255.235Z" fill="#FFCC01"/>
<path d="M367.987 273.2C319.356 275.678 285.902 275.369 21.9931 282.183C22.6126 283.112 22.9223 284.042 23.5418 284.971C138.15 282.493 285.902 280.015 366.438 276.917C366.748 275.678 367.367 274.439 367.987 273.2Z" fill="#FFCC01"/>
<path d="M356.216 295.193C357.145 293.334 358.384 291.786 359.314 289.927C224.261 294.264 120.185 291.166 26.3295 289.927C26.949 291.476 27.8783 293.025 28.8076 294.264C139.389 298.91 244.705 298.6 356.216 295.193Z" fill="#FFCC01"/>
<path d="M355.906 295.813C274.441 298.91 221.474 300.459 36.8611 306.344C37.7903 307.583 38.7196 308.822 39.6489 310.061C162.001 306.344 269.795 302.937 352.809 300.459C353.738 298.91 354.977 297.361 355.906 295.813Z" fill="#FFCC01"/>
<path d="M343.206 313.469C344.445 311.92 345.684 310.371 346.923 308.823C259.573 315.018 142.486 316.566 46.4632 318.115C47.3924 319.044 48.3217 320.283 49.2509 321.213C123.282 318.735 323.382 314.708 343.206 313.469Z" fill="#FFCC01"/>
<path d="M342.896 313.779C255.546 315.947 135.362 318.735 48.941 321.213C49.8702 322.452 51.1092 323.382 52.0385 324.621C135.362 322.762 251.519 319.974 339.489 317.496C340.728 316.257 341.967 315.018 342.896 313.779Z" fill="#FFCC01"/>
<path d="M333.914 324.31C335.153 323.071 336.082 321.832 337.321 320.593C254.617 323.381 162.001 334.842 60.4021 333.293C61.6411 334.532 62.8801 335.461 64.1191 336.7C180.896 336.7 240.059 325.549 333.914 324.31Z" fill="#FFCC01"/>
<path d="M320.285 337.319C322.143 335.461 324.312 333.912 326.17 332.053C200.101 342.585 157.045 342.895 74.0314 344.444C75.2704 345.373 76.8192 346.612 78.0582 347.541C173.152 347.851 245.634 344.134 320.285 337.319Z" fill="#FFCC01"/>
<path d="M293.646 357.144C295.504 355.905 297.672 354.666 299.531 353.427C166.957 359.622 212.181 360.552 92.3065 357.454C94.7845 359.003 97.2625 360.552 100.05 361.791C135.362 363.649 151.159 363.649 293.646 357.144Z" fill="#FFCC01"/>
<path d="M268.865 370.154C272.273 368.605 275.99 367.056 279.397 365.198C225.5 369.844 175.63 371.703 122.972 372.632C125.76 373.871 128.857 374.8 131.645 375.729C172.842 375.11 227.978 374.181 268.865 370.154Z" fill="#FFCC01"/>
<path d="M241.297 379.446C208.773 379.137 175.94 377.898 143.416 379.137C147.442 380.066 151.469 380.995 155.496 381.924C213.42 380.685 213.42 386.571 241.297 379.446Z" fill="#FFCC01"/>
<path d="M275.681 18.5831C218.996 19.2026 159.833 20.1319 105.936 20.7514C103.768 21.6807 101.91 22.9197 99.7413 23.8489C170.984 23.5392 232.006 23.2294 283.734 22.9197C281.256 21.3709 278.469 19.8221 275.681 18.5831Z" fill="#FFCC01"/>
<path d="M240.988 6.19519C201.339 7.12445 166.647 7.74395 136.911 8.36346C132.574 9.60247 128.238 11.1512 124.211 12.7C167.266 11.461 210.632 10.222 251.829 9.29272C248.422 8.05371 244.705 7.12445 240.988 6.19519Z" fill="#FFCC01"/>
<path d="M206.295 0.619141C175.01 0.928893 170.984 0.309388 151.159 4.64592C174.701 4.33617 200.1 3.71667 227.049 3.09716C220.234 1.85815 213.42 0.928893 206.295 0.619141Z" fill="#FFCC01"/>
</g>
<defs>
<clipPath id="clip0_2_1346">
<rect width="385.642" height="385.642" fill="white"/>
</clipPath>
</defs>
</svg>
