<svg width="117" height="70" viewBox="0 0 117 70" fill="none" xmlns="http://www.w3.org/2000/svg">
<g clip-path="url(#clip0_2_1887)">
<path d="M62.4639 67.6144C61.7639 68.8144 60.4639 68.9144 59.1639 68.9144C58.2639 68.9144 57.3639 68.8144 56.3639 68.7144C54.0639 68.5144 51.8639 68.2144 49.7639 67.2144C48.4639 66.6144 48.3639 66.3144 48.6639 65.2144C49.1639 63.9144 49.5639 63.6144 50.8639 63.9144C53.0639 64.4144 55.2639 64.3144 57.3639 64.2144C59.6639 64.1144 61.0639 65.3144 62.1639 67.1144C62.1639 67.2144 62.2639 67.3144 62.2639 67.3144C62.4639 67.5144 62.4639 67.5144 62.4639 67.6144Z" fill="#512A00"/>
<path d="M77.1631 35.4133C75.6631 36.3133 74.0631 36.3133 72.5631 35.8133C70.9631 35.4133 69.4631 34.9133 67.8631 34.3133C66.5631 33.8133 66.2631 33.2133 66.3631 32.4133C66.5631 31.4133 67.4631 30.6133 68.6631 30.5133C68.9631 30.5133 69.1631 30.5133 69.4631 30.5133C70.7631 30.6133 72.1631 30.6133 73.4631 30.7133C74.7631 30.8133 75.5631 31.6133 76.3631 32.6133C76.6631 32.9133 76.8631 33.4133 77.0631 33.8133C77.5631 34.5133 77.5631 34.5133 77.1631 35.4133Z" fill="#512A00"/>
<path d="M73.6636 61.814C73.6636 62.614 73.2636 63.014 72.6636 63.214C71.5636 63.614 70.3636 63.814 69.1636 63.714C68.1636 63.614 67.2636 63.614 66.2636 63.514C64.3636 63.314 62.5636 63.014 60.6636 62.714C60.4636 62.714 60.2636 62.514 59.8636 62.214C60.0636 61.714 60.2636 61.114 60.5636 60.514C62.0636 60.414 63.4636 60.414 64.8636 60.214C66.3636 60.014 67.8636 59.714 69.2636 59.414C70.6636 59.114 72.2636 59.714 73.0636 60.914C73.3636 61.214 73.4636 61.514 73.6636 61.814Z" fill="#512A00"/>
<path d="M85.4633 44.0136C85.5633 43.7136 85.7633 43.4136 85.9633 43.1136C86.6633 43.0136 87.2633 42.8136 87.9633 42.7136C89.7633 42.6136 91.4633 42.5136 93.2633 42.4136C94.0633 42.4136 94.8633 42.3136 95.6633 42.1136C97.1633 41.7136 98.0633 42.6136 98.9633 43.4136C99.5633 43.9136 99.8633 44.7136 100.363 45.4136C95.9633 46.8136 91.7633 45.6136 87.5633 45.0136C86.2633 44.9136 86.1633 44.7136 85.4633 44.0136Z" fill="#512A00"/>
<path d="M105.663 56.0131C105.463 55.0131 105.863 54.4131 106.563 54.1131C108.663 53.2131 110.863 52.2131 112.963 51.3131C113.163 51.2131 113.363 51.2131 113.563 51.2131C114.563 51.5131 115.463 51.8131 116.163 52.6131C116.963 53.5131 116.763 54.9131 115.663 55.3131C114.763 55.7131 113.763 56.0131 112.763 56.1131C110.863 56.3131 108.963 56.4131 107.063 56.4131C106.663 56.4131 106.163 56.1131 105.663 56.0131Z" fill="#512A00"/>
<path d="M38.1635 39.8138C38.3635 39.3138 38.4635 38.9138 38.6635 38.6138C38.8635 38.3138 39.2635 38.0138 39.6635 38.0138C41.6635 38.1138 43.6635 38.2138 45.6635 38.6138C46.9635 38.9138 48.0635 39.9138 48.8635 41.1138C49.0635 41.3138 49.0635 41.7138 49.1635 42.0138C47.7635 43.1138 46.1635 42.9138 44.7635 42.6138C42.9635 42.2138 41.2635 41.5138 39.5635 40.8138C39.0635 40.6138 38.6635 40.1138 38.1635 39.8138Z" fill="#512A00"/>
<path d="M49.463 53.713C49.863 52.013 50.263 51.713 51.863 51.713C52.563 51.713 53.263 51.813 53.863 51.713C54.563 51.613 55.163 51.413 55.963 51.213C57.563 51.813 58.763 53.013 59.263 54.813C58.663 55.713 57.963 55.813 57.063 55.913C55.563 56.013 54.063 55.713 52.663 55.213C51.863 54.913 51.063 54.613 50.263 54.213C49.963 54.113 49.763 53.913 49.463 53.713Z" fill="#512A00"/>
<path d="M22.263 0.613062C22.463 0.413062 22.763 0.213062 23.063 0.0130615C24.263 0.713061 25.363 1.41306 26.563 2.01306C26.863 2.21306 27.063 2.41306 27.463 2.51306C29.063 3.11306 29.963 4.51306 30.863 5.91306C31.063 6.21306 31.063 6.71306 31.163 7.01306C29.663 7.81306 27.163 7.41306 26.063 6.31306C24.963 5.21306 23.963 3.91306 22.963 2.71306C22.263 2.21306 22.163 1.51306 22.263 0.613062Z" fill="#512A00"/>
<path d="M54.3636 31.0139C51.2636 32.1139 46.0636 30.6139 44.3636 28.1139C44.5636 27.7139 44.7636 27.2139 44.9636 26.6139C45.8636 26.7139 46.6636 26.9139 47.4636 27.0139C48.4636 27.1139 49.3636 27.2139 50.3636 27.2139C51.9636 27.3139 53.8636 28.6139 54.2636 30.1139C54.3636 30.4139 54.3636 30.7139 54.3636 31.0139Z" fill="#512A00"/>
<path d="M17.5631 7.21316C16.0631 8.01316 14.6631 7.41316 13.2631 7.01316C13.1631 7.01316 12.9631 6.91316 12.9631 6.81316C12.0631 5.41316 11.0631 4.01316 10.2631 2.61316C9.96306 2.11316 10.2631 1.41316 10.2631 0.613159C10.8631 0.713159 11.1631 0.613159 11.4631 0.813159C12.8631 1.61316 14.3631 2.31316 15.6631 3.31316C16.4631 3.91316 17.0631 4.91316 17.6631 5.71316C17.9631 6.11316 18.0631 6.61316 17.5631 7.21316Z" fill="#512A00"/>
<path d="M38.0637 18.9141C37.7637 19.7141 37.1637 19.8141 36.4637 19.8141C34.8637 19.9141 33.3637 19.6141 32.1637 18.6141C31.0637 17.7141 29.9637 16.8141 28.8637 16.0141C28.6637 14.5141 28.6637 14.5141 29.7637 13.9141C31.4637 14.5141 33.2637 15.1141 34.8637 15.8141C36.4637 16.3141 37.4637 17.4141 38.0637 18.9141Z" fill="#512A00"/>
<path d="M29.0626 33.2125C28.5626 33.5125 28.0626 33.9125 27.6626 34.0125C25.5626 34.3125 23.4626 34.1125 21.8626 32.3125C21.1626 31.5125 20.3626 30.9125 19.5626 30.1125C19.9626 29.5125 20.2626 29.2125 20.5626 28.7125C21.8626 29.0125 22.9626 29.4125 24.2626 29.5125C25.3626 29.6125 26.1626 30.1125 27.0626 30.7125C27.9626 31.3125 28.3626 32.2125 29.0626 33.2125Z" fill="#512A00"/>
<path d="M37.9639 49.4145C37.6639 50.4145 36.8639 50.4145 36.1639 50.5145C33.7639 50.6145 32.2639 50.1145 30.1639 48.4145C29.9639 46.5145 30.4639 46.0145 32.2639 46.0145C34.4639 46.0145 36.3639 46.8145 37.6639 48.7145C37.7639 49.0145 37.8639 49.2145 37.9639 49.4145Z" fill="#512A00"/>
<path d="M7.26329 7.11352C5.16329 7.31352 3.46329 6.71353 2.36329 4.91353C1.86329 4.11353 1.26329 3.41353 0.763293 2.61353C0.0632927 1.41353 0.163293 1.11353 1.16329 0.113525C4.56329 1.41353 7.76329 5.01353 7.26329 7.11352Z" fill="#512A00"/>
<path d="M25.6638 40.3143C23.5638 41.6143 19.5638 40.4143 17.3638 37.8143C17.5638 37.4143 17.7638 36.9143 17.9638 36.5143C20.8638 36.1143 24.9638 38.2143 25.6638 40.3143Z" fill="#512A00"/>
</g>
<defs>
<clipPath id="clip0_2_1887">
<rect width="116.3" height="69" fill="white" transform="translate(0.363281 0.0134277)"/>
</clipPath>
</defs>
</svg>
