<svg width="121" height="115" viewBox="0 0 121 115" fill="none" xmlns="http://www.w3.org/2000/svg">
<g clip-path="url(#clip0_2_1420)">
<path d="M26.4995 90.2998C25.8995 89.9998 25.9995 87.2998 24.2995 89.3998C23.6995 89.2998 22.9995 89.2998 22.3995 89.1998C22.5995 89.5998 22.8995 90.0998 23.0995 90.4998C22.7995 90.8998 22.3995 91.2998 22.0995 91.6998C21.0995 92.3998 22.9995 93.2998 21.9995 93.9998C21.2995 93.8998 19.7995 93.5998 20.1995 94.0998C21.5995 95.8998 21.2995 99.4998 24.7995 99.3998C25.6995 102.5 28.4995 103.3 30.8995 104.6C32.3995 105.4 34.1995 106.3 35.4995 104.7C36.5995 103.4 36.6995 101.5 35.6995 99.7998C35.4995 97.8998 37.1995 94.7998 32.8995 95.6998C31.8995 92.5998 28.9995 91.6998 26.4995 90.2998Z" fill="#C6C6C6"/>
<path d="M61.0995 76.8C58.7995 76.1 58.8995 77.7 58.7995 79.1C57.9995 80.8 59.8995 81 60.3995 81.9C58.7995 85.5 60.7995 88.4 64.9995 88.7C65.2995 88.7 65.4995 88.5 65.5995 88.2C65.9995 87.4 66.3995 86.6 66.7995 85.8C67.8995 84.5 70.6995 84.9 70.8995 83.1C71.1995 79.8 64.6995 75.8 61.0995 76.8Z" fill="#C6C6C6"/>
<path d="M69.8004 59.4001C68.5004 64.0001 70.3004 66.8001 74.9004 67.6001C77.7004 70.3001 78.5003 67.2001 80.0003 65.8001C80.5003 66.2001 80.9003 66.9001 81.6003 66.3001C82.3003 65.7001 82.2004 64.9001 81.8004 64.2001C82.3004 63.3001 81.8003 62.8001 81.0003 62.5001C79.8003 61.4001 79.1003 59.6001 77.1003 59.5001C76.0003 58.8001 74.9003 57.8001 73.7003 57.6001C72.3003 57.4001 70.4004 57.3001 69.8004 59.4001Z" fill="#C6C6C6"/>
<path d="M24.3005 39.0001C22.2005 39.6001 18.9005 45.7001 19.8005 47.4001C19.9005 47.6001 21.6005 49.4001 22.4005 47.3001C23.7005 50.8001 27.0005 52.4001 30.0005 52.6001C31.3005 52.7001 35.6005 51.7001 35.7005 48.0001C35.8005 45.4001 33.7005 44.0001 32.3005 42.3001C31.8005 40.6001 29.8005 41.0001 29.0005 39.9001C27.8005 38.1001 26.3005 37.8001 24.4005 38.7001L24.3005 39.0001Z" fill="#C6C6C6"/>
<path d="M53.1008 56.1C55.3008 57.4 54.8008 54.6 55.9008 54.3C58.5008 53.4 56.4008 52.8 55.7008 52.1C56.0008 49.2 53.2008 49.4 51.8008 48.2C50.2008 46.9 45.5008 47.7 44.3008 49.5C44.3008 49.6 44.8008 50 45.1008 50.3C45.1008 50.7 45.0008 51.1 45.0008 51.5C44.2008 53.8 46.0008 53.7 47.3008 53.9C49.1008 55 50.1008 58 53.1008 56.1Z" fill="#C6C6C6"/>
<path d="M59.3995 95.7001C57.9995 95.2001 56.3995 94.1001 55.4995 96.4001C51.2995 98.5001 54.0995 99.9001 55.8995 101.5C53.9995 105.3 56.6995 104.6 58.8995 104.5C59.7995 105.7 60.8995 106.6 62.9995 106C60.4995 105.7 61.5995 104.2 61.4995 103.2C62.4995 102.3 63.1995 103 63.8995 103.6C63.5995 101.9 65.3995 101.5 65.7995 100.2C63.0995 99.5001 62.8995 95.3001 59.3995 95.7001Z" fill="#C6C6C6"/>
<path d="M33.6009 72.2C34.5009 74.6 35.5009 76.9 37.6009 78.5C38.8009 79.5 39.2009 81.7 41.5009 81.3C41.8009 81.2 42.0009 81.1 42.1009 80.8C43.5009 81 43.9009 80.3 43.9009 79.1C43.4009 77.7 46.5009 76.7 44.5009 75.1C45.5009 70.8 42.0009 69.6 39.8009 67.2C38.1009 65.3 37.1009 66.4 35.8009 66.3C35.8009 68.5 30.9009 69 33.6009 72.2Z" fill="#C6C6C6"/>
<path d="M73.8009 14.7002C77.0009 14.7002 75.8009 12.8002 75.3009 11.2002C75.9009 8.40024 73.9009 7.30024 72.0009 6.10024C71.7009 4.50024 70.1009 4.20024 69.2009 3.30024C67.8009 2.60024 66.3009 1.70024 65.3009 3.90024C64.6009 4.00024 64.0009 4.20024 63.4009 4.30024C62.4009 3.60024 62.1009 3.90024 62.0009 5.00024C61.5009 10.7002 66.9009 15.2002 73.8009 14.7002Z" fill="#C6C6C6"/>
<path d="M118.501 71.3001C120.301 70.1001 121.701 67.1001 120.301 65.7001C118.601 65.2001 120.201 61.1001 116.801 62.5001C115.301 62.0001 114.401 59.5001 112.101 62.2001C111.001 63.5001 109.801 62.5001 110.001 64.7001C111.101 67.0001 112.101 69.3001 114.501 70.5001C115.901 70.7001 116.501 72.6001 118.501 71.3001Z" fill="#C6C6C6"/>
<path d="M59.4997 29.1001C55.1997 31.0001 54.8997 31.9001 57.5997 34.2001C60.2997 36.0001 62.6997 38.3001 66.2997 38.3001C67.7997 40.0001 68.2997 38.3001 69.1997 37.6001C71.9997 36.8001 72.0997 36.5001 70.3997 33.1001C70.5997 32.7001 70.7997 32.3001 70.1997 32.0001H70.3997C71.7997 30.5001 70.1997 29.7001 69.4997 28.8001C69.2997 28.5001 67.6997 27.4001 67.4997 29.4001C66.4997 29.9001 65.9997 29.2001 65.6997 28.4001C64.9997 26.6001 64.9997 29.2001 64.3997 28.6001C63.9997 28.6001 63.6997 28.5001 63.2997 28.5001C61.8997 27.4001 60.3997 27.0001 59.4997 29.1001Z" fill="#C6C6C6"/>
<path d="M78.6007 102.4C78.2007 101.9 77.3007 101.9 77.3007 103C77.3007 103.2 77.5007 103.5 77.6007 103.7C77.0007 105.3 75.6007 103.6 74.8007 104.3C74.3007 106.4 76.4007 106.9 77.1007 108.3C77.3007 108 77.5007 107.6 77.7007 107.3C78.1007 107.6 78.5007 108 78.8007 108.3C78.9007 112.1 83.8007 109.5 84.1007 114C85.1007 111.5 85.2007 110 86.1007 109.2C90.2007 105.4 86.3007 104.7 83.9007 103.3C83.0007 99.1003 80.2007 104.5 78.6007 102.4Z" fill="#C6C6C6"/>
<path d="M7.69941 38.1C8.89941 39.1 9.09941 37.3 9.89941 37.2C11.0994 38.4 12.1994 37.3 13.2994 37.1C16.0994 38.7 16.1994 36.5 16.6994 34.8C16.5994 33.8 16.4994 32.8 16.4994 31.8C16.7994 28.9 14.5994 31.1 13.7994 30.5L13.6994 30.3C13.9994 29.6 15.8994 29.7 14.8994 28.4C13.9994 27.2 12.9994 28 12.1994 28.8C11.5994 28.3 11.0994 27.3 9.99941 27.7C6.79941 25.4 7.49941 29.1 6.29941 30C5.39941 31.7 1.59941 33.1 5.79941 35.4C5.49941 36.9 6.99941 37.3 7.69941 38.1Z" fill="#C6C6C6"/>
<path d="M36.9994 34.3C39.6994 36.1 43.5994 35.5 44.8994 32.4C45.9994 29.7 43.8994 27.6 41.4994 26.3C41.2994 26.1 41.0994 25.9 40.8994 25.7C38.2994 24.4 36.8994 20.4 32.8994 22.1C32.4994 21.8 32.0994 21.4 31.6994 21.1C30.0994 21 28.5994 21 29.4994 23.3C29.3994 23.7 29.3994 24 29.2994 24.4C27.1994 27.3 27.3994 29.3 31.2994 29.9C33.1994 31.4 33.8994 34.4 36.9994 34.3Z" fill="#C6C6C6"/>
<path d="M98.0994 73.2998C96.9994 72.8998 96.9994 74.5997 96.2994 75.0997C94.0994 76.1997 93.7994 77.9997 94.2994 80.1997C91.8994 82.2997 93.5994 83.7997 95.1994 85.1997C97.2994 86.0997 98.8994 87.8997 101.399 88.0997C102.199 88.7997 102.699 90.0997 104.199 89.3997C104.299 89.3997 103.899 88.5997 103.799 88.0997C104.699 87.1997 106.599 88.2997 106.999 86.5997C107.099 86.2997 105.999 85.7998 105.399 85.2998H105.599C106.199 84.9998 107.099 84.8997 107.199 84.4997C107.499 83.3997 106.199 83.4997 105.699 82.9997C105.199 79.9997 102.199 76.9997 100.399 77.6997C100.199 77.4997 99.9994 77.3998 99.6994 77.3998C99.2994 75.9998 99.9994 73.9998 98.0994 73.2998Z" fill="#C6C6C6"/>
<path d="M35.3995 14C37.9995 15.4 38.7995 13.4 39.7995 11.7C40.0995 11.6 40.2995 11.5 40.3995 11.2C41.2995 10.8 42.1995 10.2 43.1995 9.90002C45.4995 9.40002 43.5995 8.80002 43.1995 8.30002C42.5995 6.80002 40.5995 7.30002 39.9995 5.90002C39.5995 2.70002 37.5995 1.70002 34.5995 1.90002C34.1995 1.10002 34.1995 -0.0999756 32.6995 -0.0999756C30.3995 2.44156e-05 33.4995 2.20002 31.6995 2.30002C29.5995 1.10002 29.0995 3.60002 29.1995 4.10002C29.6995 6.00002 29.4995 8.30002 31.6995 9.40002C31.8995 9.60002 31.9995 9.80002 32.1995 10C32.0995 11 32.9995 11.5 33.3995 12.2C32.9995 12.6 31.9995 12.9 31.9995 13.2C31.9995 14 32.8995 13.9 33.4995 14C34.0995 14.2 34.6995 14 35.3995 14Z" fill="#C6C6C6"/>
<path d="M93.3 42.4001C93.5 42.6001 93.6 42.7001 93.7 43.0001C93.2 44.0001 94.1 44.1001 94.6 44.5001C95 45.0001 95.3 44.9001 95.6 44.5001L95.7 44.7001C96.7 44.1001 99.3 45.1001 98 42.3001L97.8 42.2001C97.4 40.5001 102.2 40.2001 98.9 37.8001C98.8 37.5001 98.7 37.3001 98.5 37.1001C98.9 36.3001 98.4 35.9001 97.9 35.4001C96.2 32.9001 94.4 30.6001 91.1 33.2001C89.6 34.1001 88.4 35.1001 89.3 37.1001C89.3 37.5001 89.4 37.8001 89.4 38.2001C89.8 39.0001 89.7 40.0001 90.6 40.5001C90.8 42.0001 91.2 43.4001 93.3 42.4001Z" fill="#C6C6C6"/>
<path d="M6.50001 79.7C7.50001 79.5 6.80001 83 8.80001 80.8C10.2 78.4 10.1 75.6 10.7 73C9.80001 71.7 8.70001 70.9 7.10001 70.9C6.00001 69.1 4.50001 70 3.20001 70.4C-0.299985 71.2 -0.999985 72.7 1.90001 75.2C2.20001 75.5 2.50001 75.8 2.80001 76.1C2.20001 77 2.60001 77.8 3.20001 78.5C3.40001 81.2 5.20001 79.7 6.50001 79.7Z" fill="#C6C6C6"/>
<path d="M13.3991 63.7C13.0991 65.9 15.8991 66.8 15.9991 66.4C16.4991 63.1 19.8991 65.9 20.7991 63.8C21.5991 63.2 22.5991 63 21.5991 61.4C19.4991 58 18.0991 54.2 13.8991 52.6C13.5991 51.8 12.6991 51.4 12.4991 50.4C12.0991 48.5 10.9991 47.3 8.7991 48.3C8.5991 47.8 8.8991 47.1 8.1991 46.8C5.0991 45.2 4.8991 48.8 2.9991 49.5C1.1991 51.1 3.2991 52.2 3.4991 53.6C3.3991 54.9 4.2991 55.2 5.1991 55.5C7.2991 57.2 7.1991 61.2 11.0991 61.1C11.1991 61.4 11.2991 61.6 11.4991 61.9C11.5991 63.1 10.8991 65 13.3991 63.7Z" fill="#C6C6C6"/>
</g>
<defs>
<clipPath id="clip0_2_1420">
<rect width="120.9" height="114.1" fill="white"/>
</clipPath>
</defs>
</svg>
