<svg width="199" height="147" viewBox="0 0 199 147" fill="none" xmlns="http://www.w3.org/2000/svg">
<g clip-path="url(#clip0_2_1441)">
<path d="M0.817203 132.111C0.700497 132.111 0.700497 132.111 0.583791 132.111C-0.933384 131.878 1.05061 134.328 1.51744 134.562C23.2247 145.065 50.1838 148.333 73.875 145.299C101.301 141.798 135.729 130.594 149.617 104.568C155.102 94.2984 158.02 80.177 156.619 68.6231C155.219 57.1859 146.816 48.8998 136.779 43.8815C126.043 38.513 114.955 40.497 103.868 43.5313C97.2162 45.3986 91.731 48.6664 85.8957 52.1676C79.1268 56.369 72.4746 60.2203 66.8727 66.0556C60.6873 72.3577 54.6186 78.8932 48.7833 85.6621C43.4148 91.8475 38.7466 98.6165 33.4948 104.802C28.3598 110.754 24.1584 117.173 18.6732 123.008C16.1057 125.692 13.188 128.26 10.037 130.127C7.00261 131.878 3.85155 131.878 0.583791 132.928C1.28403 133.745 1.98426 134.679 2.8012 135.496C3.03461 135.379 3.26802 135.262 3.50144 135.029C4.66849 134.328 2.21767 131.761 1.28403 132.461C1.05061 132.578 0.817203 132.695 0.583791 132.928C-0.699973 133.745 1.75085 135.846 2.8012 135.496C6.8859 134.328 10.2704 134.095 13.8883 131.644C19.0233 128.143 23.5748 123.592 27.4261 118.69C34.8953 109.353 41.6642 99.6668 49.3668 90.4471C66.2892 70.1403 86.4793 49.9502 113.322 44.3483C128.143 41.3139 147.166 45.8655 152.651 61.9709C156.503 73.0579 153.002 88.4631 148.567 98.9666C137.713 124.642 107.136 135.496 82.0444 140.981C67.2228 144.248 51.8176 144.715 36.8793 142.381C25.092 140.514 12.1377 137.596 1.40073 132.344C1.75085 133.161 1.98426 133.978 2.33438 134.795C2.45108 134.795 2.45108 134.795 2.56779 134.795C3.85155 135.029 1.86756 132.344 0.817203 132.111Z" fill="#79C800"/>
<path d="M5.95224 136.546C15.9889 133.978 25.9089 131.061 36.0623 128.96C45.9823 126.859 55.7856 124.525 65.2388 121.141C84.1451 114.255 102.468 104.335 118.807 92.6645C135.729 80.5271 150.551 65.8222 164.205 50.417C177.276 35.5954 189.297 19.9568 198.867 2.56764C199.45 1.40058 196.766 -0.700127 196.299 0.233519C186.73 17.6227 174.709 33.2613 161.638 48.0829C148.45 62.9045 134.212 77.1426 118.107 88.9299C101.534 101.184 82.628 111.337 63.1381 118.456C53.5682 121.958 43.7649 124.175 33.9616 126.276C23.8082 128.493 13.8882 131.294 3.85154 133.862C2.68448 134.212 4.78519 136.779 5.95224 136.546Z" fill="#79C800"/>
<path d="M21.2407 137.83C21.124 137.83 21.124 137.946 21.0073 137.946C20.1904 138.53 22.5245 140.981 23.3414 140.397C30.1104 136.313 37.4628 133.278 43.6482 128.493C44.2318 128.026 43.1814 126.859 42.948 126.626C40.4972 124.642 37.1127 123.475 34.1951 122.541C31.9776 121.724 29.7602 120.907 27.5428 120.207C26.3758 119.74 24.5085 119.857 23.4581 119.39C21.3574 118.457 22.5245 121.141 23.6915 121.724C26.1424 122.775 29.06 123.241 31.6275 124.058C34.6619 125.109 39.0967 125.809 41.6642 128.026C41.4308 127.443 41.1974 126.859 40.964 126.159C35.012 130.827 27.7762 133.862 21.2407 137.83C22.0577 138.647 22.8746 139.464 23.6915 140.281C23.8082 140.281 23.8082 140.164 23.9249 140.164C24.6252 139.58 22.2911 137.129 21.2407 137.83Z" fill="#79C800"/>
<path d="M38.5136 144.482C44.4656 138.997 50.651 133.395 57.0698 128.377C58.9371 126.976 63.2552 124.992 62.4383 122.075C62.2048 121.374 61.1545 120.324 60.3376 120.324C53.4519 120.791 46.5663 117.756 40.731 114.605C37.1131 112.738 33.3785 111.921 29.6439 110.521C27.8933 109.82 29.4105 112.621 30.2275 112.972C30.3442 112.972 30.4609 113.088 30.5776 113.088C32.6783 114.022 31.5112 111.338 30.3442 110.754C30.2275 110.754 30.1108 110.637 29.9941 110.637C30.2275 111.454 30.4609 112.271 30.5776 113.088C33.2618 114.139 36.4129 114.722 39.0971 115.889C41.7813 117.056 44.1155 118.924 46.9164 119.974C51.4679 121.841 57.0698 123.358 61.9714 123.008C61.2712 122.425 60.571 121.841 59.8707 121.258C60.2208 122.541 52.0514 128.143 51.2345 128.96C46.3329 133.512 40.9644 137.48 36.0628 142.031C35.0124 142.965 37.5799 145.416 38.5136 144.482Z" fill="#79C800"/>
<path d="M52.2838 145.765C54.0344 146.816 54.968 145.649 56.3685 144.365C60.2198 140.747 63.8376 136.662 67.3388 132.577C70.84 128.493 74.4579 124.408 77.7256 120.207C79.0094 118.573 80.1765 117.172 79.2428 115.072C78.4259 113.438 77.1421 113.204 75.6249 112.737C70.6066 111.104 65.8216 109.353 60.8033 107.369C52.984 104.218 45.048 101.067 36.9953 98.8495C37.3454 99.6664 37.6955 100.6 37.929 101.417C38.1624 101.417 38.3958 101.534 38.6292 101.534C40.4965 102.001 38.7459 99.1996 37.6955 98.9662C37.4621 98.9662 37.2287 98.8495 36.9953 98.8495C35.0113 98.3827 36.9953 101.184 37.929 101.417C50.1831 104.801 61.2701 110.987 73.4075 114.488C74.808 114.955 76.2085 114.605 76.2085 115.889C76.3252 116.705 74.808 118.106 74.3412 118.806C71.6569 122.074 68.7393 125.108 66.0551 128.376C64.888 129.777 53.3341 144.015 52.0504 143.314C50.0664 142.381 51.2334 145.182 52.2838 145.765Z" fill="#79C800"/>
<path d="M72.8252 145.066C78.5438 137.246 84.2624 129.194 90.0977 121.374C92.5485 118.107 94.8826 114.722 96.6332 110.988C97.3334 109.704 99.7843 106.086 99.6676 104.335C99.5509 103.402 98.3838 102.235 97.4502 102.351C93.8323 102.468 89.6309 100.251 86.1297 99.4337C81.1113 98.2666 76.2097 96.2827 71.1913 94.9989C66.7565 93.8318 63.1387 91.9645 58.5871 91.4977C54.269 91.0309 49.9509 91.1476 45.6328 90.7975C46.2163 91.7311 46.6831 92.5481 47.2667 93.4817C47.6168 93.4817 47.9669 93.4817 48.2003 93.4817C49.7175 93.4817 47.7335 90.7975 46.5664 90.7975C46.2163 90.7975 45.8662 90.7975 45.6328 90.7975C43.9989 90.7975 46.2163 93.365 47.2667 93.4817C51.2347 93.8318 55.3194 93.7151 59.2874 94.0652C64.8892 94.5321 70.4911 96.8662 75.8596 98.3834C80.5278 99.7838 85.0793 101.301 89.7476 102.585C92.7819 103.402 95.8163 105.152 98.9673 105.036C98.2671 104.335 97.4502 103.635 96.7499 103.052C96.8666 104.335 92.7819 110.754 92.3151 111.688C90.4478 115.189 87.997 118.107 85.7796 121.374C80.7612 128.61 75.3928 135.613 70.2577 142.732C69.4408 143.665 72.125 145.999 72.8252 145.066Z" fill="#79C800"/>
<path d="M95.5828 140.631C103.636 133.045 106.086 123.942 110.404 114.255C112.505 109.587 113.906 105.036 115.54 100.251C116.59 96.9829 119.508 93.4817 119.508 89.9806C119.508 89.1636 118.107 87.8799 117.29 87.9966C111.572 88.5801 105.736 86.5961 100.251 85.429C94.6492 84.1453 89.164 84.3787 83.5621 83.445C77.7268 82.5114 72.0083 81.3443 66.2897 80.294C62.205 79.5937 57.1866 79.477 53.452 81.3443C52.285 81.9279 54.6191 84.4954 55.6695 83.9119C61.1546 81.2276 67.2233 82.9782 72.8252 84.0286C78.077 85.0789 83.4454 86.1293 88.8139 86.4794C94.2991 86.8295 99.4341 87.5297 104.803 88.6968C109.588 89.7471 114.256 91.1476 119.157 90.6808C118.457 89.9806 117.64 89.2803 116.94 88.6968C116.823 92.0813 113.439 96.5161 112.622 99.7838C111.455 104.219 109.821 108.187 107.954 112.388C103.752 121.841 101.185 131.061 93.3654 138.413C92.1984 138.997 94.6492 141.448 95.5828 140.631Z" fill="#79C800"/>
<path d="M116.24 133.395C117.757 129.544 120.325 125.926 121.959 122.191C124.176 117.056 125.343 111.571 126.977 106.319C128.494 101.418 129.778 96.5162 130.828 91.4979C131.645 87.9967 134.213 85.079 133.629 81.3445C133.513 80.4108 132.346 79.2438 131.412 79.3605C128.378 79.5939 124.993 77.7266 122.075 77.0263C119.041 76.3261 115.89 76.2094 112.739 76.0927C106.787 75.7426 101.068 75.1591 95.2331 74.3421C88.931 73.5252 82.7456 72.008 76.3267 72.2414C70.1413 72.4748 63.8392 74.4588 57.8872 75.8593C58.5874 76.6762 59.2877 77.6099 60.1046 78.4268C60.2213 78.3101 60.4547 78.1934 60.5714 78.1934C61.7385 77.4932 59.4044 75.0423 58.354 75.6259C58.2373 75.7426 58.0039 75.8593 57.8872 75.8593C56.6034 76.6762 59.0543 78.6602 60.1046 78.4268C66.6401 77.0263 73.4091 74.8089 80.0613 74.9256C86.4801 75.0423 93.3658 76.4428 99.6679 77.4932C104.803 78.3101 110.288 78.5435 115.423 78.7769C119.625 78.8936 123.242 79.5939 127.21 80.8776C128.961 81.4612 131.062 82.1614 133.046 82.0447C132.346 81.3445 131.529 80.6442 130.828 80.0607C131.295 83.095 129.194 84.3788 128.378 87.063C127.794 88.9303 127.911 90.9143 127.444 92.8983C126.51 97.5666 124.876 102.001 123.476 106.436C122.075 111.104 121.025 115.889 119.041 120.441C117.29 124.292 114.84 127.793 113.322 131.645C112.972 132.578 115.773 134.679 116.24 133.395Z" fill="#79C800"/>
<path d="M135.845 121.607C136.429 118.923 137.596 116.472 138.179 113.788C138.879 110.637 138.646 107.252 139.463 104.101C140.747 98.8495 142.147 93.5978 143.197 88.2293C144.715 80.6434 144.715 70.3733 135.962 68.506C124.525 66.0552 112.854 64.8882 101.183 63.7211C89.8629 62.6707 78.1923 58.3526 67.8055 65.0049C66.9886 65.5884 68.8559 67.1056 69.206 67.339C69.3227 67.339 69.4394 67.4557 69.5561 67.4557C71.5401 68.506 70.3731 65.7051 69.3227 65.1216C69.206 65.1216 69.0893 65.0049 68.9726 65.0049C69.4394 65.8218 69.9062 66.522 70.373 67.339C79.7095 61.2703 90.5632 64.8882 100.717 66.0552C110.987 67.339 121.257 68.1559 131.41 70.0232C133.044 70.3733 137.479 70.3733 138.646 71.307C140.397 72.7074 140.63 77.1423 140.747 79.243C141.097 84.1446 139.463 88.1126 138.646 92.7808C137.829 97.2157 136.545 101.417 136.078 105.852C135.495 110.637 133.978 114.838 132.927 119.506C132.811 120.907 135.495 122.891 135.845 121.607Z" fill="#79C800"/>
<path d="M150.317 102.818C154.285 96.7488 155.452 87.1789 154.168 80.0599C153.351 75.8585 152.534 71.1903 151.25 67.1056C150.433 64.8881 149.616 63.9545 147.632 62.9041C139.23 58.4693 129.893 54.9681 120.79 52.2839C111.22 49.483 102.584 46.5653 92.6639 48.8994C92.0804 49.0162 92.4305 49.8331 92.5472 50.1832C92.6639 50.2999 92.6639 50.5333 92.7806 50.65C93.3642 51.8171 96.1651 52.7507 95.1148 50.7667C94.9981 50.65 94.9981 50.4166 94.8814 50.2999C94.8814 50.7667 94.8813 51.1169 94.7646 51.5837C103.984 49.3663 112.037 51.9338 120.79 54.618C128.376 56.9521 135.845 59.5197 142.964 62.9041C146.115 64.4213 147.866 64.0712 148.799 67.339C149.85 70.8401 150.783 74.8081 151.484 78.426C152.651 85.1949 151.717 94.298 147.866 100.133C147.049 101.534 149.733 103.751 150.317 102.818Z" fill="#79C800"/>
</g>
<defs>
<clipPath id="clip0_2_1441">
<rect width="198.983" height="146.466" fill="white"/>
</clipPath>
</defs>
</svg>
