<svg width="245" height="138" viewBox="0 0 245 138" fill="none" xmlns="http://www.w3.org/2000/svg">
<g clip-path="url(#clip0_1_739)">
<path d="M43.7659 79.0636C45.5296 79.0636 47.2823 79.0748 49.046 79.0636C49.5862 79.0636 50.0381 79.1416 50.2475 79.7202C50.4129 80.2099 50.2255 80.5771 49.6192 80.9889C38.596 80.9889 27.5727 80.9889 16.5495 80.9889C16.2519 80.7997 15.9653 80.6105 15.8881 80.221C15.7668 79.5644 16.1967 79.0748 16.9353 79.0748C18.7872 79.0636 20.6391 79.0636 22.491 79.0636C22.6343 78.9635 22.7997 78.9412 22.965 78.9412C26.3381 78.9635 29.7002 78.8745 33.0623 78.9301C34.6827 78.9079 36.3031 78.9079 37.9236 78.9301C39.6763 78.8967 41.429 78.919 43.1927 78.919C43.3911 78.919 43.5895 78.9301 43.7659 79.0636Z" fill="#785353"/>
<path d="M58.4378 24.3561C56.4647 26.0143 54.5687 27.7614 52.849 29.6978C49.3436 33.6484 46.5548 38.0664 44.3391 42.8628C41.7707 48.427 40.0511 54.2694 38.9708 60.3011C38.7283 61.6699 38.5629 63.0387 38.3645 64.4186C38.2653 64.5744 38.4196 64.7413 38.3645 64.8971C37.7141 65.9209 36.9425 66.8668 36.3472 67.9241C36.2811 68.0465 36.1598 68.2579 35.9835 68.0019C35.7299 66.7444 35.763 65.4647 35.6197 64.196C35.2008 60.6238 34.4182 57.1294 33.3489 53.7019C33.2607 53.4348 33.1725 53.1788 33.1725 52.8895C33.2938 50.6638 33.7568 48.4938 34.341 46.3571C34.826 44.5654 35.5315 42.8627 36.3031 41.1824C36.3913 41.0043 36.4575 40.804 36.6559 40.7038C37.0527 40.0361 37.4385 39.3684 37.8464 38.7118C41.2857 33.0697 46.18 29.1302 52.0664 26.3592C53.8632 25.5135 55.7261 24.8235 57.6442 24.3227C57.8205 24.2782 57.9969 24.256 58.1843 24.2114C58.3055 24.1781 58.4378 24.1335 58.4378 24.3561Z" fill="#79C800"/>
<path d="M33.2938 52.8227C33.404 53.7464 33.7678 54.5922 34.0213 55.4824C34.7489 58.0531 35.289 60.646 35.6417 63.3057C35.8512 64.8971 35.9504 66.4885 36.0606 68.0799C36.215 68.2913 36.0827 68.4694 35.9945 68.6474C34.4953 71.5185 33.6355 74.5677 33.3379 77.795C33.3269 77.9731 33.3269 78.1734 33.1064 78.2513C32.8308 78.2068 32.8529 77.9731 32.8308 77.7727C32.4891 73.1656 31.2104 68.8366 29.1601 64.7191C28.8184 64.0291 28.3444 63.4059 28.1129 62.6492C28.1239 62.4155 28.2562 62.1818 28.1349 61.9481C27.4074 51.632 24.6516 41.9613 19.0738 33.1031C19.6029 33.3145 19.9226 33.6706 20.2753 33.9711C23.7366 36.8979 26.6578 40.2921 29.0609 44.1537C29.138 44.2761 29.2372 44.3874 29.3254 44.4986C29.8986 45.0884 30.2073 45.8452 30.5931 46.5463C31.497 48.2378 32.2907 49.985 32.9631 51.7767C33.0954 52.1216 33.1395 52.4889 33.2938 52.8227Z" fill="#79C800"/>
<path d="M28.2231 62.6269C28.4546 63.2501 28.8404 63.7954 29.1491 64.3852C30.7474 67.5012 31.8938 70.7841 32.5222 74.245C32.7426 75.458 32.9631 76.671 32.9741 77.9174C32.9741 78.0287 32.9851 78.14 33.0844 78.2179C33.2938 78.5072 33.2938 78.7855 33.0844 79.0748C29.5569 79.1082 26.0295 79.1304 22.502 79.0748C22.502 79.0414 22.5131 79.0192 22.5351 78.9969C22.7445 78.7966 23.0201 78.8411 23.2626 78.8411C24.6185 78.8411 25.9744 78.8411 27.3302 78.8411C27.9034 78.8411 27.9475 78.7855 27.7822 78.2402C27.242 76.4151 26.4263 74.7347 25.1917 73.2769C25.0594 73.1211 24.9161 72.9764 24.9272 72.7538C24.7728 71.0178 24.398 69.3263 23.9571 67.6459C22.6564 62.6714 20.5509 58.1199 17.2991 54.1582C16.1747 52.7894 14.918 51.543 13.496 50.4413C14.7307 50.4969 19.1951 52.9563 21.7414 55.1486C24.1886 57.2519 26.3271 59.6334 28.0026 62.4044C28.1129 62.4489 28.157 62.549 28.2231 62.6269Z" fill="#79C800"/>
<path d="M33.2938 52.8227C32.8529 52.2886 32.7647 51.5875 32.5111 50.9754C31.6293 48.8054 30.6041 46.7132 29.4026 44.699C29.3695 44.6433 29.3585 44.5654 29.3365 44.4875C29.9207 42.7626 30.2073 40.9709 30.3285 39.157C30.6813 34.1603 29.8986 29.3083 28.4656 24.5342C28.4325 24.4118 28.4105 24.2894 28.3444 24.0445C32.897 28.7741 35.6748 34.2605 36.6228 40.6705C35.9835 42.2062 35.267 43.6974 34.7709 45.2888C34.0213 47.7593 33.4702 50.2521 33.2938 52.8227Z" fill="#79C800"/>
<path d="M24.8941 72.7427C26.3932 74.3341 27.3302 76.237 27.9475 78.318C28.1459 78.9858 28.1459 78.9858 27.4735 78.9969C25.82 78.9969 24.1666 78.9969 22.5131 78.9969C22.3257 75.9032 21.3887 73.1099 19.3053 70.7618C18.9305 70.3501 18.5116 70.0051 18.0927 69.6378C18.1258 69.3708 18.3022 69.5154 18.4234 69.5266C20.6501 69.8048 22.6123 70.6728 24.2878 72.1751C24.4972 72.3532 24.6957 72.5424 24.8941 72.7427Z" fill="#79C800"/>
<path d="M28.2231 62.6269C28.1129 62.5935 28.0357 62.5156 28.0026 62.4043C28.19 62.293 28.0578 62.0927 28.1239 61.9481C28.2782 62.1595 28.2011 62.4043 28.2231 62.6269Z" fill="#79C800"/>
<path d="M33.0733 79.0636C33.0733 78.7743 33.0733 78.4961 33.0733 78.2068C33.3158 77.8061 33.2056 77.3387 33.2607 76.9159C33.5363 74.6679 34.1205 72.509 34.9693 70.428C35.289 69.6267 35.6858 68.8588 36.0496 68.0799C36.7441 66.967 37.4496 65.8764 38.2543 64.8415C38.3204 64.7636 38.3755 64.6745 38.4747 64.6189C41.5502 61.0578 45.2981 58.5205 49.8066 57.1183C49.3988 57.4856 48.9799 57.8305 48.5941 58.2089C45.9926 60.7351 44.3501 63.8399 43.1155 67.2118C42.6084 68.5806 42.2336 69.9939 41.8809 71.4073C41.8919 71.6187 41.8037 71.7856 41.6494 71.9414C39.7975 73.7331 38.6401 75.9032 38.1881 78.4627C38.155 78.6853 38.122 78.9078 37.9346 79.0636C36.3142 79.0636 34.6938 79.0636 33.0733 79.0636Z" fill="#79C800"/>
<path d="M37.9236 79.0637C38.2432 76.9826 38.9267 75.0574 40.2054 73.377C40.6022 72.854 41.0101 72.3198 41.5061 71.8858C41.6604 71.7523 41.7707 71.5965 41.8699 71.4295C42.0573 71.552 42.1234 71.3516 42.2226 71.2849C44.4052 69.6045 46.9075 68.8144 49.5972 68.525C49.7184 68.5139 49.8728 68.3692 49.9058 68.6252C48.3075 69.4153 47.0949 70.6394 46.1469 72.1195C44.78 74.2339 43.9974 76.5709 43.7659 79.0748C41.8148 79.0637 39.8747 79.0637 37.9236 79.0637Z" fill="#79C800"/>
</g>
<g clip-path="url(#clip1_1_739)">
<path d="M160.017 62.6574C160.017 62.6059 160.017 62.5372 160.017 62.4856C160.287 61.5068 160.303 60.4764 161.112 59.6349C162.644 58.0377 164.884 57.6943 166.703 58.4842C169.617 59.7722 171.183 58.4499 172.716 57.076C173.12 56.7154 173.103 56.2173 173.086 55.7193C172.985 53.1433 173.406 50.6532 174.299 48.2317C174.972 46.4285 173.895 44.7798 172.008 44.694C170.779 44.6425 169.718 44.2646 168.859 43.3029C167.444 41.723 167.63 39.2844 169.314 37.9105C170.914 36.6053 173.423 36.9488 174.551 38.5974C174.787 38.9581 174.972 39.3359 175.141 39.7309C175.478 40.5208 176.033 41.1219 176.774 41.5169C177.633 41.9806 178.459 42.0321 179.267 41.328C180.244 40.4693 181.355 39.7652 182.501 39.1813C183.141 38.855 183.477 38.3742 183.578 37.6529C183.882 35.5749 183.494 33.8404 181.692 32.518C179.537 30.9724 179.385 27.7782 181.086 25.7002C182.096 24.4809 183.376 24.2061 184.774 24.0172C184.943 24.0172 185.111 24.0172 185.279 24.0172C185.616 24.1889 186.004 24.1546 186.34 24.1546C188.244 24.2404 189.355 25.4082 190.046 27.0225C190.736 28.654 190.585 30.3027 189.456 31.7109C188.227 33.2393 187.873 34.4758 189.591 36.7942C189.945 37.2751 190.416 37.464 190.972 37.464C193.481 37.464 195.772 38.2539 197.978 39.3702C198.567 39.6793 199.106 39.6622 199.662 39.3359C200.504 38.855 201.279 38.3055 202.003 37.6529C202.609 37.1205 202.828 36.4164 202.929 35.6092C203.249 32.9645 205.776 31.4018 208.049 32.4493C209.43 33.0847 210.255 34.1838 210.289 35.781C210.34 37.4296 209.599 38.7176 208.15 39.25C206.146 39.9713 205.152 41.5341 204.26 43.2686C203.889 43.9727 203.889 44.6081 204.344 45.2779C205.152 46.4628 205.658 47.8024 206.18 49.1247C206.618 50.241 207.274 50.6703 208.437 50.6532C209.767 50.6188 210.828 50.1036 211.653 48.9358C212.967 47.0639 215.291 46.2911 217.312 46.9094C219.653 47.6306 220.882 49.2965 220.916 51.8381C220.916 52.1988 220.916 52.5594 220.916 52.9029C220.967 55.1526 219.939 56.6982 217.935 57.5054C215.813 58.364 213.86 58.0377 212.209 56.3547C210.407 54.5 209.194 55.1011 207.493 55.8911C207.14 56.0628 206.988 56.4063 206.938 56.8012C206.752 58.1923 206.399 59.549 205.944 60.8713C205.624 61.8331 205.809 62.3483 206.635 62.9322C207.477 63.5332 208.42 63.705 209.413 63.7393C211.434 63.7908 213.001 65.4738 213.001 67.5175C213.001 69.1661 211.956 70.5915 210.373 71.1067C208.908 71.5876 207.173 71.0037 206.315 69.6126C205.658 68.5479 205.051 67.4659 204.007 66.7103C203.199 66.1092 202.946 66.0921 202.222 66.8134C201.11 67.9124 199.932 68.9257 198.567 69.6813C197.793 70.1106 197.456 70.7461 197.372 71.6047C197.17 73.7514 197.725 75.6233 199.342 77.1002C200.521 78.165 201.127 79.453 201.077 81.1016C201.026 82.6644 199.746 84.8798 197.607 84.8454C197.49 84.8454 197.389 84.8454 197.287 84.9313C196.782 84.9313 196.277 84.9313 195.772 84.9313C192.639 84.21 191.427 81.8916 192.589 78.7661C193.397 76.585 192.926 74.5586 191.932 72.5664C191.713 72.1371 191.326 71.9654 190.888 71.9825C189.456 71.9997 188.025 71.931 186.627 71.6391C186.054 71.5189 185.599 71.8108 185.195 72.2058C183.511 73.8373 182.787 75.8981 182.568 78.1822C182.517 78.7489 182.45 79.3156 182.332 79.8823C181.979 81.5825 180.143 82.9392 178.526 82.7331C176.657 82.5099 175.242 80.9471 175.175 79.1439C175.124 77.667 175.73 76.585 176.876 75.7264C178.93 74.1979 179.84 72.0684 179.89 69.5268C179.907 68.8913 179.671 68.3761 179.183 67.9468C177.869 66.8133 176.758 65.491 175.831 64.0141C175.377 63.2928 174.821 62.9837 173.996 63.1898C173.726 63.2585 173.44 63.2585 173.154 63.2413C171.267 63.1211 169.937 63.9454 169.044 65.6284C168.303 67.0194 167.091 67.7922 165.575 68.1014C162.729 68.6681 160.253 66.6588 160.186 63.705C160.068 63.3615 160.202 63.0009 160.017 62.6574Z" fill="#F6BD57"/>
<path d="M182.686 46.5144C184.471 46.5315 185.801 47.9054 185.784 49.743C185.784 51.529 184.319 53.0403 182.584 53.0403C180.883 53.0403 179.401 51.529 179.385 49.8117C179.385 48.0085 180.883 46.4972 182.686 46.5144Z" fill="#F4A34E"/>
<path d="M198.601 50.4814C199.881 50.4814 201.06 51.7007 201.076 53.0231C201.093 54.3798 199.864 55.6163 198.55 55.5991C197.253 55.5647 196.091 54.3798 196.075 53.0574C196.058 51.7179 197.27 50.4814 198.601 50.4814Z" fill="#F4A34E"/>
<path d="M188.479 57.7458C188.479 58.8964 187.57 59.8238 186.458 59.8238C185.346 59.8238 184.336 58.8105 184.336 57.6943C184.336 56.5608 185.313 55.6163 186.492 55.6334C187.553 55.6334 188.462 56.5952 188.479 57.7458Z" fill="#F4A34E"/>
<path d="M193.649 46.0335C193.633 46.9781 192.774 47.8024 191.83 47.8024C190.887 47.8024 190.062 46.9437 190.079 45.982C190.096 45.0203 190.921 44.1616 191.847 44.1616C192.841 44.1616 193.683 45.0375 193.649 46.0335Z" fill="#F4A34E"/>
<path d="M193.043 66.2638C192.016 66.2638 191.342 65.5597 191.342 64.4778C191.342 63.413 192.1 62.6574 193.144 62.6745C194.054 62.6917 194.828 63.516 194.845 64.4434C194.879 65.4223 194.037 66.2638 193.043 66.2638Z" fill="#F4A34E"/>
<path d="M201.312 28.5681C201.312 29.9248 200.234 31.0411 198.921 31.0068C197.641 30.9724 196.58 29.8905 196.58 28.5853C196.58 27.2458 197.691 26.1295 198.988 26.1467C200.285 26.1639 201.312 27.2458 201.312 28.5681Z" fill="#F6BD57"/>
<path d="M169.499 32.2432C167.528 32.2261 165.911 30.5774 165.911 28.5681C165.911 26.5588 167.545 24.893 169.499 24.9102C171.452 24.9102 173.086 26.576 173.103 28.5853C173.12 30.5603 171.452 32.2604 169.499 32.2432Z" fill="#F6BD57"/>
<path d="M166.215 75.2627C166.215 73.906 167.292 72.7897 168.606 72.824C169.886 72.8412 170.947 73.9403 170.964 75.2455C170.981 76.6022 169.886 77.6841 168.555 77.667C167.225 77.6498 166.215 76.6022 166.215 75.2627Z" fill="#F6BD57"/>
<path d="M210.693 82.5957C208.773 82.5957 207.291 81.0673 207.291 79.1095C207.308 77.1517 208.807 75.6405 210.727 75.6748C212.613 75.692 214.078 77.2033 214.078 79.1267C214.112 81.0673 212.613 82.5957 210.693 82.5957Z" fill="#F6BD57"/>
</g>
<g clip-path="url(#clip2_1_739)">
<path d="M106.403 82.8525C107.504 81.0757 108.9 79.5932 110.676 78.4923C111.08 78.2416 111.025 78.0344 110.796 77.6965C108.954 75.0913 108.812 72.3334 110.175 69.4883C110.262 69.3139 110.447 69.1286 110.262 68.9433C109.826 68.5073 109.902 67.9513 109.902 67.4281C109.902 65.4006 109.913 63.3622 109.902 61.3456C109.892 59.9612 109.139 58.9256 107.919 58.5332C106.501 58.0754 104.932 58.4896 104.147 59.536C103.482 60.419 103.362 61.3674 103.787 62.3593C104.234 63.3731 105.03 63.9726 106.153 64.0707C106.512 64.1034 106.872 64.0707 107.232 64.1034C107.995 64.147 108.518 64.692 108.496 65.3679C108.474 66.0437 107.984 66.5125 107.243 66.5561C104.986 66.6978 103.057 66.0764 101.814 64.0707C100.593 62.1522 100.68 60.1901 101.88 58.2716C101.901 58.228 101.89 58.1735 101.901 58.119C102.305 57.7156 102.697 57.3232 103.1 56.9199C104.354 56.1459 105.717 55.8516 107.199 55.9388C110.066 56.1023 112.224 58.1953 112.344 61.0621C112.41 62.6754 112.377 64.2996 112.366 65.9238C112.366 66.2072 112.29 66.4798 112.213 66.9703C115.494 64.8665 118.558 64.8338 121.621 66.8286C121.828 66.5997 121.719 66.338 121.73 66.0873C121.751 64.3214 121.664 62.5337 121.795 60.7678C122.024 57.4867 125.087 55.4047 128.597 56.0369C131.649 56.582 133.6 59.6232 132.816 62.61C132.129 65.2807 129.404 67.0248 126.668 66.5561C125.992 66.4471 125.61 66.0219 125.61 65.3461C125.61 64.6702 126.014 64.2451 126.679 64.147C127.06 64.0925 127.452 64.1361 127.834 64.1034C129.371 63.9835 130.516 62.7517 130.516 61.2474C130.516 59.765 129.349 58.5332 127.812 58.4133C125.458 58.2389 124.204 59.4052 124.193 61.7925C124.193 63.6674 124.193 65.5423 124.193 67.4172C124.182 67.9513 124.269 68.4964 123.823 68.9433C123.626 69.1395 123.823 69.3139 123.91 69.4883C125.283 72.3443 125.152 75.0913 123.31 77.6965C123.081 78.0126 122.994 78.2307 123.419 78.4814C125.185 79.5932 126.58 81.0757 127.692 82.8416C127.561 83.125 127.278 83.125 127.038 83.1468C125.131 83.4194 123.463 84.1933 122.166 85.6431C122.035 85.7957 121.871 85.9374 121.697 86.0246C119.539 86.3516 117.358 86.417 115.189 86.2971C114.274 86.2535 113.336 86.2753 112.442 86.0355C112.17 85.8938 111.952 85.654 111.745 85.4469C110.535 84.1497 109.019 83.4848 107.308 83.1904C106.981 83.1468 106.621 83.2013 106.403 82.8525Z" fill="#9A7863"/>
<path d="M124.596 100.697C125.229 101.111 125.85 101.514 126.493 101.918C126.428 103.749 125.458 105.155 124.346 106.485C122.362 108.861 119.996 110.813 117.522 112.655C117.26 112.851 116.988 112.971 116.693 112.742C113.663 110.453 110.698 108.098 108.583 104.872C107.995 103.978 107.635 103.008 107.613 101.918C108.235 101.514 108.845 101.122 109.477 100.73C109.804 100.708 110.066 100.86 110.338 101.002C114.884 103.52 119.419 103.477 123.932 100.904C124.128 100.795 124.302 100.555 124.596 100.697Z" fill="#785353"/>
<path d="M121.512 85.9701C120.694 87.3545 120.051 88.8043 119.887 90.4503C119.778 91.5186 119.996 92.5214 120.105 93.5679C119.288 94.4944 118.176 94.7343 117.053 94.7234C115.93 94.7343 114.808 94.4835 114.001 93.5679C114.611 90.8427 114.066 88.3138 112.584 85.981C115.56 86.2318 118.536 86.2427 121.512 85.9701Z" fill="#785353"/>
<path d="M113.99 93.557C114.72 93.9167 115.407 94.3418 116.236 94.4727C117.653 94.7125 118.895 94.2546 120.095 93.557C120.64 95.3011 121.315 96.958 122.449 98.4187C123.092 99.258 123.921 99.9121 124.596 100.697C119.56 103.88 114.513 103.847 109.455 100.73C110.753 99.4106 112.083 98.1026 112.9 96.3912C113.358 95.4755 113.63 94.5054 113.99 93.557Z" fill="#9A7863"/>
<path d="M96.7518 101.623C96.4248 101.296 96.0978 100.969 95.7708 100.642C93.9286 98.4078 93.5143 95.8352 94.0921 93.0556C95.084 88.183 99.1282 84.0516 104.11 83.1251C104.938 82.9725 105.834 82.6683 106.662 82.5811C106.662 82.5811 114.543 80.3117 116.189 82.1757C116.854 82.6444 115.48 88.2568 115.48 88.2568C115.48 88.2568 114.858 91.7366 114.345 93.7096C113.626 96.6092 112.056 98.9637 109.789 100.86C109.095 101.331 107.816 101.94 107.816 101.94C105.887 102.975 103.848 103.553 101.624 103.444C99.7931 103.335 98.1689 102.779 96.7518 101.623Z" fill="#C8D4E4"/>
<path d="M137.761 101.623C138.088 101.296 138.415 100.969 138.742 100.642C140.584 98.4078 140.998 95.8352 140.421 93.0556C139.429 88.183 135.385 84.0516 130.403 83.1251C129.574 82.9725 128.679 82.6683 127.851 82.5811C127.851 82.5811 119.969 80.3117 118.324 82.1757C117.659 82.6444 119.033 88.2568 119.033 88.2568C119.033 88.2568 119.655 91.7366 120.167 93.7096C120.887 96.6092 122.456 98.9637 124.724 100.86C125.418 101.331 126.697 101.94 126.697 101.94C128.626 102.975 130.665 103.553 132.888 103.444C134.72 103.335 136.344 102.779 137.761 101.623Z" fill="#C8D4E4"/>
</g>
<defs>
<clipPath id="clip0_1_739">
<rect width="46" height="57" fill="white" transform="translate(13 24)"/>
</clipPath>
<clipPath id="clip1_1_739">
<rect width="61" height="61" fill="white" transform="translate(160 24)"/>
</clipPath>
<clipPath id="clip2_1_739">
<rect width="60" height="60" fill="white" transform="translate(87 54)"/>
</clipPath>
</defs>
</svg>
