<svg width="248" height="138" viewBox="0 0 248 138" fill="none" xmlns="http://www.w3.org/2000/svg">
<g clip-path="url(#clip0_1_723)">
<path d="M126.002 96.3747C125.981 96.1586 126.159 95.9809 126.375 96.0016C127.769 96.1353 132.445 96.7904 135.361 99.7064C137.27 101.616 137.553 104.43 135.991 105.991C134.43 107.553 131.616 107.27 129.706 105.361C126.79 102.445 126.135 97.7687 126.002 96.3747Z" fill="#79C800"/>
<path d="M157.591 87.0018C157.827 86.9792 158.021 87.173 157.998 87.4087C157.852 88.9294 157.138 94.0305 153.957 97.2115C151.873 99.2948 148.804 99.6029 147.1 97.8996C145.397 96.1963 145.705 93.1267 147.788 91.0433C150.969 87.8622 156.071 87.1475 157.591 87.0018Z" fill="#79C800"/>
<path d="M143.551 125.586L143.551 107.189C143.551 105.116 144.359 103.167 145.824 101.703L152.5 95.027C153.106 94.4209 153.106 93.4388 152.5 92.8327C151.894 92.2267 150.912 92.2267 150.306 92.8327L143.63 99.5081C141.578 101.559 140.448 104.287 140.448 107.189V108.906C140.42 108.878 140.397 108.847 140.369 108.819L134.195 102.644C133.589 102.038 132.607 102.038 132 102.644C131.394 103.25 131.394 104.232 132 104.838L138.175 111.014C139.64 112.478 140.448 114.427 140.448 116.5L140.448 125.586H143.551Z" fill="#5ABA63"/>
<path d="M174.937 136.448C168.692 129.067 156.289 124.034 142 124.034C127.71 124.034 115.307 129.067 109.062 136.448" fill="#9A7863"/>
<path d="M151.135 124.754C148.21 124.293 145.155 124.034 142 124.034C127.711 124.034 115.307 129.067 109.062 136.448H127.332C132.198 130.697 140.812 126.384 151.135 124.754Z" fill="#8C695C"/>
<path d="M180.793 138H103.207C102.349 138 101.655 137.305 101.655 136.448C101.655 135.591 102.349 134.896 103.207 134.896H180.793C181.651 134.896 182.345 135.591 182.345 136.448C182.345 137.305 181.651 138 180.793 138Z" fill="#785353"/>
</g>
<defs>
<clipPath id="clip0_1_723">
<rect width="248" height="138" fill="white"/>
</clipPath>
</defs>
</svg>
