<svg width="248" height="138" viewBox="0 0 248 138" fill="none" xmlns="http://www.w3.org/2000/svg">
<path d="M44 50.2027C44 50.0797 44 49.9743 44 49.8512C44.245 47.5138 45.6103 46.0375 47.6231 44.9654C50.0385 43.6824 52.4014 42.2764 54.7994 40.9934C56.2346 40.2201 57.0222 39.1656 56.8647 37.496C56.8297 37.0918 56.8472 36.67 56.8822 36.2658C56.8997 35.9143 56.9522 35.5628 57.3548 35.4046C57.7574 35.2816 58.1599 35.2816 58.5625 35.2816C64.321 35.2816 70.062 35.2816 75.8205 35.2816C76.223 35.2816 76.6431 35.264 77.0282 35.387C77.5183 35.5452 77.6583 35.9494 77.6933 36.4239C77.7283 37.0039 77.7283 37.6015 77.7108 38.1814C77.6408 40.2729 78.5334 41.8722 80.2662 42.9618C82.1215 44.1218 84.0819 45.106 85.9722 46.1956C87.0049 46.7932 88.0726 47.338 89.0877 47.9707C90.0504 48.5683 90.558 49.4646 90.628 50.5894C90.698 51.6439 90.663 52.6984 90.6455 53.7529C90.628 54.1044 90.593 54.4735 90.1904 54.6316C89.7529 54.7371 89.3153 54.7019 88.8777 54.7019C74.4727 54.7019 60.0678 54.7019 45.6803 54.7019C45.1902 54.7019 44.6826 54.8074 44.2275 54.5438C43.93 53.788 44.1575 52.9972 44.0875 52.2239C44.035 51.5384 44.1925 50.853 44 50.2027Z" fill="#F6BD57"/>
<path d="M93.2014 103.807C93.2014 106.302 93.2364 108.815 93.2189 111.311C93.2014 112.735 92.2387 113.455 91.101 114C76.171 114 61.2234 114 46.2933 114C44.7181 113.631 44.158 112.963 44.1055 111.417C44.1055 111.258 44.158 111.118 44.263 110.995C44.8056 110.573 45.4357 110.696 46.0308 110.696C57.3027 110.696 68.5747 110.696 79.8466 110.696C81.8594 110.696 83.8723 110.608 85.8676 110.714C88.2305 110.837 90.1209 108.763 90.0684 106.531C90.0508 105.968 90.0509 105.424 90.0859 104.861C90.1034 104.474 90.1034 104.088 90.3659 103.771C91.3111 103.35 92.2562 103.297 93.2014 103.807Z" fill="#F4A34E"/>
<path d="M44 103.807C44 87.4091 44 70.994 44 54.5966C44.0525 54.579 44.1224 54.579 44.1749 54.5614C44.2623 54.6317 44.3323 54.7196 44.3847 54.8426C44.5421 55.2996 44.5071 55.7741 44.5071 56.2311C44.5071 71.5564 44.5071 86.8818 44.5071 102.19C44.5071 102.594 44.5246 103.016 44.4372 103.42C44.4022 103.525 44.3672 103.631 44.2973 103.736C44.2273 103.824 44.1224 103.859 44 103.807Z" fill="#FCF1D5"/>
<path d="M44.1574 111.557C44.1049 111.557 44.0525 111.557 44 111.54C44 108.956 44 106.39 44 103.807C44.0525 103.807 44.1224 103.807 44.1749 103.807C44.4896 104.088 44.4896 104.475 44.4896 104.861C44.5071 106.584 44.4896 108.306 44.4896 110.011C44.4896 110.432 44.3847 110.819 44.1924 111.188C44.1924 111.311 44.1749 111.434 44.1574 111.557Z" fill="#FBE4BD"/>
<path d="M44.1754 54.5967C44.1227 54.5967 44.0701 54.5967 44 54.5967C44 53.138 44 51.6617 44 50.203C44.3507 50.8532 44.1227 51.5562 44.1578 52.2241C44.1929 52.9447 44.1754 53.6828 44.1929 54.4034C44.2455 54.4737 44.2455 54.544 44.1754 54.5967Z" fill="#FBE5BD"/>
<path d="M68.6794 24.0512C69.677 24.0512 70.6747 24.0512 71.6549 24.0512C72.0049 24.4027 71.9524 24.8597 71.9524 25.2815C71.9699 26.9687 71.9524 28.6735 71.9524 30.3607C71.9524 30.7122 71.9524 31.0637 72.0049 31.4152C72.075 31.9073 72.3375 32.206 72.8451 32.2763C73.3702 32.3466 73.7552 32.1533 73.9828 31.6612C74.1578 31.2746 74.1403 30.8703 74.1403 30.4485C74.1578 28.7262 74.1403 27.0038 74.1403 25.2815C74.1403 24.8421 74.0878 24.4027 74.4379 24.0512C75.6631 24.0864 76.9233 23.8403 78.131 24.1918C77.7984 24.6664 77.7284 25.1936 77.7284 25.756C77.7284 28.568 77.7284 31.3624 77.7284 34.1744C77.7284 34.6314 77.7809 35.1059 77.5359 35.5453C77.4659 35.6507 77.3609 35.6859 77.2558 35.6683C71.4273 35.6507 65.5988 35.6507 59.7703 35.6332C58.8952 35.6332 58.02 35.6332 57.1449 35.6332C57.1449 32.6981 57.0924 29.7631 57.1274 26.8105C57.1624 25.176 58.4226 24.0512 60.1029 24.0512C60.3479 24.5258 60.2254 25.0354 60.2254 25.51C60.2429 27.0917 60.2254 28.6735 60.2254 30.2376C60.2254 30.677 60.2429 31.1164 60.4005 31.5382C60.593 32.0654 60.9781 32.3115 61.5381 32.2763C62.0982 32.2412 62.3608 31.8897 62.5008 31.4152C62.5883 31.0812 62.5708 30.7122 62.5708 30.3782C62.5708 28.691 62.5708 26.9863 62.5708 25.2991C62.5708 24.8597 62.5183 24.4203 62.8684 24.0512C63.866 24.0512 64.8637 24.0512 65.8439 24.0512C66.1939 24.4027 66.1414 24.8597 66.1414 25.2815C66.1589 26.9687 66.1414 28.6735 66.1414 30.3607C66.1414 30.7122 66.1414 31.0637 66.1939 31.4152C66.264 31.9073 66.5265 32.206 67.0341 32.2763C67.5592 32.3466 67.9442 32.1533 68.1718 31.6612C68.3468 31.2746 68.3293 30.8703 68.3293 30.4485C68.3468 28.7262 68.3293 27.0038 68.3293 25.2815C68.3818 24.8597 68.3293 24.4027 68.6794 24.0512Z" fill="#5F5260"/>
<path d="M44.1747 54.5964C44.1747 54.5261 44.1922 54.4734 44.1922 54.4031C56.1818 54.4031 68.1714 54.4207 80.1434 54.4207C83.5565 54.4207 86.9696 54.4207 90.3827 54.4207C90.8203 54.034 91.3628 54.1395 91.8704 54.1043C92.7981 54.0692 92.8506 54.0165 92.8681 53.1201C92.8856 52.5402 92.8506 51.9602 92.8856 51.3802C92.9031 51.0111 92.8681 50.6245 93.2182 50.3433C93.4807 51.7141 93.3057 53.085 93.3057 54.4383C93.3057 54.8776 93.2182 55.317 93.2182 55.7388C93.2182 71.3981 93.2182 87.0575 93.2182 102.734C93.2182 103.086 93.2007 103.437 93.2007 103.789C92.273 103.806 91.3278 103.806 90.4002 103.824C90.3652 103.789 90.3127 103.736 90.2777 103.701C89.9801 103.156 90.0676 102.559 90.0676 101.979C90.0676 86.9344 90.0676 71.8902 90.0676 56.8285C90.0676 54.7195 90.2602 54.9128 88.1248 54.9128C74.0699 54.9128 60.015 54.9128 45.9601 54.9128C45.3474 54.9304 44.6998 55.0534 44.1747 54.5964C44.1747 54.5964 44.1922 54.5964 44.1747 54.5964Z" fill="#F8CD84"/>
<path d="M93.2184 50.3436C93.2009 51.4508 93.1659 52.5405 93.1834 53.6477C93.2009 54.2804 92.9734 54.4737 92.3783 54.421C91.7132 54.3859 91.0481 54.4034 90.3829 54.4034C90.3829 53.2083 90.3829 51.9957 90.3829 50.8006C90.3654 49.6055 89.8754 48.674 88.8077 48.0764C86.1472 46.5826 83.4693 45.1063 80.8088 43.6124C78.6034 42.3822 77.3082 40.6247 77.4307 37.9708C77.4657 37.1975 77.6233 36.3891 77.2732 35.6334C77.3257 35.6158 77.3957 35.5982 77.4482 35.5806C78.3759 35.1588 79.3035 35.1237 80.2137 35.6158C80.2312 36.3715 80.2662 37.1448 80.2312 37.9005C80.1787 39.3593 80.8438 40.3259 82.0865 41.0113C84.817 42.5052 87.5475 44.0342 90.2604 45.5808C92.0982 46.6177 93.0959 48.217 93.2184 50.3436Z" fill="#F4A34E"/>
<path d="M80.2134 35.6157C79.2857 35.5981 78.3581 35.5981 77.4479 35.5805C77.4479 32.0655 77.4479 28.5505 77.4304 25.0355C77.4304 24.4907 77.4829 24.0865 78.1655 24.1744C79.4258 24.561 80.2309 25.4925 80.2309 26.7579C80.2484 29.7281 80.2134 32.6631 80.2134 35.6157Z" fill="#4D3E4F"/>
<path d="M62.9034 24.0513C62.9034 26.3184 62.9034 28.6032 62.9034 30.8704C62.9034 32.0479 62.4658 32.6103 61.5731 32.6279C60.5055 32.663 59.9979 32.1709 59.9454 30.9231C59.8929 29.605 59.8929 28.3044 59.9454 26.9863C59.9804 26.0021 59.7353 25.0003 60.1029 24.0513C61.0481 24.0513 61.9757 24.0513 62.9034 24.0513Z" fill="#4D3E4F"/>
<path d="M68.6794 24.0513C68.6794 26.3887 68.6969 28.7262 68.6794 31.0637C68.6794 32.1006 68.1718 32.6454 67.2441 32.6454C66.2814 32.6454 65.8789 32.2588 65.8789 31.2394C65.8614 28.8492 65.8789 26.4415 65.8789 24.0513C66.824 24.0513 67.7517 24.0513 68.6794 24.0513Z" fill="#4D3E4F"/>
<path d="M74.4556 24.0514C74.4556 26.3888 74.4731 28.7263 74.4556 31.0638C74.4556 32.1007 73.948 32.6455 73.0204 32.6455C72.0577 32.6455 71.6551 32.2589 71.6551 31.2395C71.6376 28.8493 71.6551 26.4416 71.6551 24.0514C72.6003 24.0514 73.5279 24.0514 74.4556 24.0514Z" fill="#4D3E4F"/>
<path d="M44.2097 111.188C44.1922 108.728 44.1922 106.267 44.1747 103.807L44.1922 103.824C44.6823 103.367 45.2774 103.49 45.855 103.49C53.3988 103.49 60.9601 103.49 68.5039 103.49C75.2601 103.49 82.0337 103.49 88.7899 103.49C89.3325 103.49 89.9101 103.402 90.3827 103.807V103.842C90.3127 105.089 90.4702 106.337 90.2777 107.603C89.9801 109.378 87.9848 111.065 85.9544 111.065C72.4421 110.995 58.9298 111.03 45.4175 111.03C44.9974 111.012 44.5773 110.942 44.2097 111.188Z" fill="#F6BD57"/>
<path d="M90.3827 103.789C82.7163 103.789 75.05 103.806 67.3662 103.806C59.6299 103.806 51.9111 103.806 44.1747 103.806C44.1747 95.7394 44.1572 87.6549 44.1572 79.588C44.1572 71.2575 44.1572 62.9093 44.1572 54.5788C59.1398 54.5788 74.1399 54.5788 89.1224 54.5788C90.3477 54.5788 90.3477 54.5788 90.3477 55.809C90.3827 71.8199 90.3827 87.8131 90.3827 103.789Z" fill="#FADD94"/>
<path d="M69.155 84.1557C68.9857 84.1557 68.8146 84.1523 68.6435 84.1437L67.8612 84.1075L67.8252 83.322C67.6911 80.4181 68.6952 77.7361 70.6536 75.7697C72.6119 73.8042 75.2803 72.7916 78.1741 72.9296L78.9564 72.9668L78.9934 73.7523C79.1275 76.6561 78.1225 79.3373 76.165 81.3037C74.3226 83.1535 71.8493 84.1557 69.155 84.1557Z" fill="#79C800"/>
<path d="M69.097 76.6105L68.3318 76.2782C65.6126 75.0982 63.4479 72.8141 62.3905 70.0121C61.3219 67.1774 61.4448 64.0939 62.737 61.329L63.0912 60.571L63.8564 60.9033C66.5746 62.0833 68.7402 64.3674 69.7967 67.1694C70.8661 70.0041 70.7432 73.0877 69.4512 75.8525L69.097 76.6105Z" fill="#79C800"/>
<path d="M68.6621 88.4609H68.6706H68.6621ZM68.1909 89.3354C65.4958 89.3354 63.0233 88.3332 61.181 86.4833C59.2236 84.5169 58.2185 81.8349 58.3526 78.931L58.3887 78.1456L59.171 78.1093C62.0664 77.9738 64.734 78.9829 66.6923 80.9494C68.6507 82.9158 69.6548 85.5978 69.5207 88.5008L69.4847 89.2872L68.7015 89.3235C68.5305 89.331 68.3603 89.3354 68.1909 89.3354Z" fill="#79C800"/>
<path d="M68.672 96.6566C68.1975 96.6566 67.8123 96.2699 67.8123 95.7935V75.0762C67.8123 74.5997 68.1975 74.213 68.672 74.213C69.1465 74.213 69.5316 74.5997 69.5316 75.0762V95.7935C69.5316 96.2699 69.1465 96.6566 68.672 96.6566Z" fill="#5ABA63"/>
<path d="M68.6722 84.1557C68.4521 84.1557 68.2321 84.0711 68.0645 83.9028C67.7283 83.5652 67.7283 83.0197 68.0645 82.6822L73.2303 77.4951C73.5665 77.1576 74.1106 77.1576 74.4459 77.4951C74.7821 77.8318 74.7821 78.3782 74.4459 78.7157L69.28 83.9028C69.1124 84.0711 68.8924 84.1557 68.6722 84.1557Z" fill="#5ABA63"/>
<path d="M68.6716 76.3499C68.3157 76.3499 67.983 76.1263 67.8592 75.7689L65.1727 67.9913C65.017 67.5408 65.2544 67.0496 65.7031 66.8925C66.151 66.7354 66.641 66.9745 66.7975 67.426L69.484 75.2035C69.6397 75.6541 69.4023 76.1453 68.9536 76.3015C68.8599 76.3344 68.7653 76.3499 68.6716 76.3499Z" fill="#5ABA63"/>
<path d="M68.6723 89.3352C68.4521 89.3352 68.2321 89.2507 68.0645 89.0823L62.9064 83.903C62.5702 83.5654 62.5702 83.0199 62.9064 82.6824C63.2426 82.3449 63.7859 82.3449 64.122 82.6824L69.2801 87.8617C69.6162 88.1993 69.6162 88.7449 69.2801 89.0823C69.1124 89.2507 68.8924 89.3352 68.6723 89.3352Z" fill="#5ABA63"/>
<path d="M109.319 50.2027C109.319 50.0796 109.319 49.9742 109.319 49.8512C109.564 47.5137 110.929 46.0374 112.942 44.9653C115.357 43.6824 117.72 42.2764 120.118 40.9934C121.553 40.2201 122.341 39.1656 122.183 37.496C122.148 37.0917 122.166 36.6699 122.201 36.2657C122.218 35.9142 122.271 35.5627 122.673 35.4045C123.076 35.2815 123.479 35.2815 123.881 35.2815C129.64 35.2815 135.381 35.2815 141.139 35.2815C141.542 35.2815 141.962 35.2639 142.347 35.387C142.837 35.5451 142.977 35.9494 143.012 36.4239C143.047 37.0039 143.047 37.6014 143.029 38.1814C142.959 40.2728 143.852 41.8721 145.585 42.9618C147.44 44.1217 149.4 45.1059 151.291 46.1956C152.323 46.7931 153.391 47.3379 154.406 47.9706C155.369 48.5682 155.877 49.4645 155.947 50.5893C156.017 51.6438 155.982 52.6983 155.964 53.7528C155.947 54.1043 155.912 54.4734 155.509 54.6316C155.071 54.737 154.634 54.7019 154.196 54.7019C139.791 54.7019 125.386 54.7019 110.999 54.7019C110.509 54.7019 110.001 54.8073 109.546 54.5437C109.249 53.788 109.476 52.9971 109.406 52.2238C109.354 51.5384 109.511 50.8529 109.319 50.2027Z" fill="#F6BD57"/>
<path d="M158.52 103.807C158.52 106.302 158.555 108.815 158.537 111.311C158.52 112.735 157.557 113.455 156.42 114C141.49 114 126.542 114 111.612 114C110.037 113.631 109.477 112.963 109.424 111.417C109.424 111.258 109.477 111.118 109.582 110.995C110.124 110.573 110.754 110.696 111.349 110.696C122.621 110.696 133.893 110.696 145.165 110.696C147.178 110.696 149.191 110.608 151.186 110.714C153.549 110.837 155.439 108.763 155.387 106.531C155.369 105.968 155.369 105.424 155.404 104.861C155.422 104.474 155.422 104.088 155.685 103.771C156.63 103.35 157.575 103.297 158.52 103.807Z" fill="#F4A34E"/>
<path d="M109.319 103.806C109.319 87.409 109.319 70.994 109.319 54.5965C109.371 54.5789 109.441 54.5789 109.493 54.5613C109.581 54.6316 109.651 54.7195 109.703 54.8425C109.861 55.2995 109.826 55.774 109.826 56.231C109.826 71.5563 109.826 86.8817 109.826 102.19C109.826 102.594 109.843 103.016 109.756 103.42C109.721 103.525 109.686 103.631 109.616 103.736C109.546 103.824 109.441 103.859 109.319 103.806Z" fill="#FCF1D5"/>
<path d="M109.476 111.557C109.424 111.557 109.371 111.557 109.319 111.54C109.319 108.956 109.319 106.39 109.319 103.807C109.371 103.807 109.441 103.807 109.493 103.807C109.808 104.088 109.808 104.474 109.808 104.861C109.826 106.583 109.808 108.306 109.808 110.011C109.808 110.432 109.703 110.819 109.511 111.188C109.511 111.311 109.493 111.434 109.476 111.557Z" fill="#FBE4BD"/>
<path d="M109.494 54.5966C109.441 54.5966 109.389 54.5966 109.319 54.5966C109.319 53.1379 109.319 51.6616 109.319 50.2029C109.669 50.8531 109.441 51.5561 109.476 52.224C109.511 52.9445 109.494 53.6827 109.511 54.4033C109.564 54.4736 109.564 54.5439 109.494 54.5966Z" fill="#FBE5BD"/>
<path d="M133.998 24.0512C134.996 24.0512 135.993 24.0512 136.973 24.0512C137.324 24.4027 137.271 24.8597 137.271 25.2815C137.289 26.9687 137.271 28.6735 137.271 30.3607C137.271 30.7122 137.271 31.0637 137.324 31.4152C137.394 31.9073 137.656 32.206 138.164 32.2763C138.689 32.3466 139.074 32.1533 139.301 31.6612C139.476 31.2746 139.459 30.8703 139.459 30.4485C139.476 28.7262 139.459 27.0038 139.459 25.2815C139.459 24.8421 139.406 24.4027 139.756 24.0512C140.982 24.0864 142.242 23.8403 143.45 24.1918C143.117 24.6664 143.047 25.1936 143.047 25.756C143.047 28.568 143.047 31.3624 143.047 34.1744C143.047 34.6314 143.1 35.1059 142.854 35.5453C142.784 35.6507 142.679 35.6859 142.574 35.6683C136.746 35.6507 130.917 35.6507 125.089 35.6332C124.214 35.6332 123.339 35.6332 122.463 35.6332C122.463 32.6981 122.411 29.7631 122.446 26.8105C122.481 25.176 123.741 24.0512 125.422 24.0512C125.667 24.5258 125.544 25.0354 125.544 25.51C125.562 27.0917 125.544 28.6735 125.544 30.2376C125.544 30.677 125.562 31.1164 125.719 31.5382C125.912 32.0654 126.297 32.3115 126.857 32.2763C127.417 32.2412 127.679 31.8897 127.819 31.4152C127.907 31.0812 127.889 30.7122 127.889 30.3782C127.889 28.691 127.889 26.9863 127.889 25.2991C127.889 24.8597 127.837 24.4203 128.187 24.0512C129.185 24.0512 130.182 24.0512 131.162 24.0512C131.513 24.4027 131.46 24.8597 131.46 25.2815C131.478 26.9687 131.46 28.6735 131.46 30.3607C131.46 30.7122 131.46 31.0637 131.513 31.4152C131.583 31.9073 131.845 32.206 132.353 32.2763C132.878 32.3466 133.263 32.1533 133.49 31.6612C133.665 31.2746 133.648 30.8703 133.648 30.4485C133.665 28.7262 133.648 27.0038 133.648 25.2815C133.7 24.8597 133.648 24.4027 133.998 24.0512Z" fill="#5F5260"/>
<path d="M109.493 54.5964C109.493 54.5261 109.511 54.4734 109.511 54.4031C121.5 54.4031 133.49 54.4207 145.462 54.4207C148.875 54.4207 152.288 54.4207 155.701 54.4207C156.139 54.034 156.681 54.1395 157.189 54.1043C158.117 54.0692 158.169 54.0165 158.187 53.1201C158.204 52.5402 158.169 51.9602 158.204 51.3802C158.222 51.0111 158.187 50.6245 158.537 50.3433C158.799 51.7141 158.624 53.085 158.624 54.4383C158.624 54.8776 158.537 55.317 158.537 55.7388C158.537 71.3981 158.537 87.0574 158.537 102.734C158.537 103.086 158.519 103.437 158.519 103.789C157.592 103.806 156.646 103.806 155.719 103.824C155.684 103.789 155.631 103.736 155.596 103.701C155.299 103.156 155.386 102.559 155.386 101.979C155.386 86.9344 155.386 71.8902 155.386 56.8285C155.386 54.7195 155.579 54.9128 153.443 54.9128C139.388 54.9128 125.334 54.9128 111.279 54.9128C110.666 54.9304 110.018 55.0534 109.493 54.5964C109.493 54.5964 109.511 54.5964 109.493 54.5964Z" fill="#F8CD84"/>
<path d="M158.537 50.3433C158.52 51.4506 158.485 52.5402 158.502 53.6474C158.52 54.2801 158.292 54.4735 157.697 54.4207C157.032 54.3856 156.367 54.4032 155.702 54.4032C155.702 53.2081 155.702 51.9954 155.702 50.8003C155.684 49.6052 155.194 48.6737 154.126 48.0762C151.466 46.5823 148.788 45.106 146.127 43.6121C143.922 42.3819 142.627 40.6244 142.749 37.9706C142.784 37.1973 142.942 36.3888 142.592 35.6331C142.644 35.6155 142.714 35.5979 142.767 35.5804C143.694 35.1586 144.622 35.1234 145.532 35.6155C145.55 36.3712 145.585 37.1445 145.55 37.9003C145.497 39.359 146.162 40.3256 147.405 41.011C150.136 42.5049 152.866 44.0339 155.579 45.5805C157.417 46.6174 158.415 48.2168 158.537 50.3433Z" fill="#F4A34E"/>
<path d="M145.532 35.6157C144.604 35.5981 143.677 35.5981 142.767 35.5805C142.767 32.0655 142.767 28.5505 142.749 25.0355C142.749 24.4907 142.802 24.0865 143.484 24.1744C144.744 24.561 145.55 25.4925 145.55 26.7579C145.567 29.728 145.532 32.6631 145.532 35.6157Z" fill="#4D3E4F"/>
<path d="M128.222 24.051C128.222 26.3182 128.222 28.6029 128.222 30.8701C128.222 32.0476 127.784 32.61 126.892 32.6276C125.824 32.6628 125.316 32.1707 125.264 30.9228C125.211 29.6047 125.211 28.3042 125.264 26.986C125.299 26.0018 125.054 25.0001 125.421 24.051C126.367 24.051 127.294 24.051 128.222 24.051Z" fill="#4D3E4F"/>
<path d="M133.998 24.051C133.998 26.3885 134.015 28.726 133.998 31.0634C133.998 32.1004 133.49 32.6452 132.563 32.6452C131.6 32.6452 131.197 32.2585 131.197 31.2392C131.18 28.849 131.197 26.4412 131.197 24.051C132.143 24.051 133.07 24.051 133.998 24.051Z" fill="#4D3E4F"/>
<path d="M139.774 24.0511C139.774 26.3886 139.792 28.726 139.774 31.0635C139.774 32.1004 139.267 32.6453 138.339 32.6453C137.376 32.6453 136.974 32.2586 136.974 31.2393C136.956 28.8491 136.974 26.4413 136.974 24.0511C137.919 24.0511 138.847 24.0511 139.774 24.0511Z" fill="#4D3E4F"/>
<path d="M109.528 111.188C109.511 108.728 109.511 106.267 109.493 103.807L109.511 103.824C110.001 103.367 110.596 103.49 111.174 103.49C118.717 103.49 126.279 103.49 133.823 103.49C140.579 103.49 147.352 103.49 154.109 103.49C154.651 103.49 155.229 103.402 155.701 103.807V103.842C155.631 105.089 155.789 106.337 155.596 107.603C155.299 109.378 153.303 111.065 151.273 111.065C137.761 110.995 124.248 111.03 110.736 111.03C110.316 111.012 109.896 110.942 109.528 111.188Z" fill="#F6BD57"/>
<path d="M155.701 103.789C148.035 103.789 140.369 103.807 132.685 103.807C124.948 103.807 117.23 103.807 109.493 103.807C109.493 95.7397 109.476 87.6552 109.476 79.5883C109.476 71.2577 109.476 62.9096 109.476 54.5791C124.458 54.5791 139.458 54.5791 154.441 54.5791C155.666 54.5791 155.666 54.5791 155.666 55.8093C155.701 71.8201 155.701 87.8134 155.701 103.789Z" fill="#FADD94"/>
<path d="M124.391 63.4116C123.12 72.3635 126.043 75.7212 134.978 76.9401C136.25 67.9883 133.327 64.6306 124.391 63.4116Z" fill="#79C800"/>
<path d="M134.36 76.3299C141.757 81.4748 146.053 80.3484 151.137 72.861C143.739 67.7161 139.443 68.8423 134.36 76.3299Z" fill="#79C800"/>
<path d="M132.374 98.4833C131.929 98.4833 131.545 98.1465 131.491 97.687C130.488 89.1615 132.487 78.1471 134.249 74.6034C134.47 74.1592 135.006 73.9777 135.444 74.2034C135.882 74.4282 136.059 74.9717 135.838 75.4159C134.362 78.3825 132.262 89.0107 133.258 97.4738C133.317 97.9686 132.968 98.4182 132.48 98.4768C132.444 98.4815 132.408 98.4833 132.374 98.4833Z" fill="#4CAF50"/>
<path d="M174.637 50.2027C174.637 50.0797 174.637 49.9743 174.637 49.8512C174.882 47.5138 176.247 46.0375 178.26 44.9654C180.675 43.6824 183.038 42.2764 185.436 40.9934C186.871 40.2201 187.659 39.1656 187.501 37.496C187.466 37.0918 187.484 36.67 187.519 36.2658C187.536 35.9143 187.589 35.5628 187.992 35.4046C188.394 35.2816 188.797 35.2816 189.199 35.2816C194.958 35.2816 200.699 35.2816 206.457 35.2816C206.86 35.2816 207.28 35.264 207.665 35.387C208.155 35.5452 208.295 35.9494 208.33 36.4239C208.365 37.0039 208.365 37.6015 208.348 38.1814C208.277 40.2729 209.17 41.8722 210.903 42.9618C212.758 44.1218 214.719 45.106 216.609 46.1956C217.642 46.7932 218.709 47.338 219.724 47.9707C220.687 48.5683 221.195 49.4646 221.265 50.5894C221.335 51.6439 221.3 52.6984 221.282 53.7529C221.265 54.1044 221.23 54.4735 220.827 54.6316C220.39 54.7371 219.952 54.7019 219.514 54.7019C205.109 54.7019 190.704 54.7019 176.317 54.7019C175.827 54.7019 175.319 54.8074 174.864 54.5438C174.567 53.788 174.794 52.9972 174.724 52.2239C174.672 51.5384 174.829 50.853 174.637 50.2027Z" fill="#F6BD57"/>
<path d="M223.838 103.807C223.838 106.302 223.873 108.815 223.856 111.311C223.838 112.735 222.875 113.455 221.738 114C206.808 114 191.86 114 176.93 114C175.355 113.631 174.795 112.963 174.742 111.417C174.742 111.258 174.795 111.118 174.9 110.995C175.442 110.573 176.072 110.696 176.668 110.696C187.939 110.696 199.211 110.696 210.483 110.696C212.496 110.696 214.509 110.608 216.504 110.714C218.867 110.837 220.758 108.763 220.705 106.531C220.688 105.968 220.688 105.424 220.723 104.861C220.74 104.474 220.74 104.088 221.003 103.771C221.948 103.35 222.893 103.297 223.838 103.807Z" fill="#F4A34E"/>
<path d="M174.637 103.807C174.637 87.4091 174.637 70.994 174.637 54.5966C174.689 54.579 174.759 54.579 174.812 54.5614C174.899 54.6317 174.969 54.7196 175.021 54.8426C175.179 55.2996 175.144 55.7741 175.144 56.2311C175.144 71.5564 175.144 86.8818 175.144 102.19C175.144 102.594 175.161 103.016 175.074 103.42C175.039 103.525 175.004 103.631 174.934 103.736C174.864 103.824 174.759 103.859 174.637 103.807Z" fill="#FCF1D5"/>
<path d="M174.794 111.557C174.742 111.557 174.689 111.557 174.637 111.54C174.637 108.956 174.637 106.39 174.637 103.807C174.689 103.807 174.759 103.807 174.812 103.807C175.126 104.088 175.126 104.475 175.126 104.861C175.144 106.584 175.126 108.306 175.126 110.011C175.126 110.432 175.021 110.819 174.829 111.188C174.829 111.311 174.812 111.434 174.794 111.557Z" fill="#FBE4BD"/>
<path d="M174.812 54.5967C174.759 54.5967 174.707 54.5967 174.637 54.5967C174.637 53.138 174.637 51.6617 174.637 50.203C174.987 50.8532 174.759 51.5562 174.795 52.2241C174.83 52.9447 174.812 53.6828 174.83 54.4034C174.882 54.4737 174.882 54.544 174.812 54.5967Z" fill="#FBE5BD"/>
<path d="M199.316 24.0512C200.314 24.0512 201.311 24.0512 202.292 24.0512C202.642 24.4027 202.589 24.8597 202.589 25.2815C202.607 26.9687 202.589 28.6735 202.589 30.3607C202.589 30.7122 202.589 31.0637 202.642 31.4152C202.712 31.9073 202.974 32.206 203.482 32.2763C204.007 32.3466 204.392 32.1533 204.62 31.6612C204.795 31.2746 204.777 30.8703 204.777 30.4485C204.795 28.7262 204.777 27.0038 204.777 25.2815C204.777 24.8421 204.725 24.4027 205.075 24.0512C206.3 24.0864 207.56 23.8403 208.768 24.1918C208.435 24.6664 208.365 25.1936 208.365 25.756C208.365 28.568 208.365 31.3624 208.365 34.1744C208.365 34.6314 208.418 35.1059 208.173 35.5453C208.103 35.6507 207.998 35.6859 207.893 35.6683C202.064 35.6507 196.236 35.6507 190.407 35.6332C189.532 35.6332 188.657 35.6332 187.782 35.6332C187.782 32.6981 187.729 29.7631 187.764 26.8105C187.799 25.176 189.059 24.0512 190.74 24.0512C190.985 24.5258 190.862 25.0354 190.862 25.51C190.88 27.0917 190.862 28.6735 190.862 30.2376C190.862 30.677 190.88 31.1164 191.037 31.5382C191.23 32.0654 191.615 32.3115 192.175 32.2763C192.735 32.2412 192.998 31.8897 193.138 31.4152C193.225 31.0812 193.208 30.7122 193.208 30.3782C193.208 28.691 193.208 26.9863 193.208 25.2991C193.208 24.8597 193.155 24.4203 193.505 24.0512C194.503 24.0512 195.5 24.0512 196.481 24.0512C196.831 24.4027 196.778 24.8597 196.778 25.2815C196.796 26.9687 196.778 28.6735 196.778 30.3607C196.778 30.7122 196.778 31.0637 196.831 31.4152C196.901 31.9073 197.163 32.206 197.671 32.2763C198.196 32.3466 198.581 32.1533 198.809 31.6612C198.984 31.2746 198.966 30.8703 198.966 30.4485C198.984 28.7262 198.966 27.0038 198.966 25.2815C199.019 24.8597 198.966 24.4027 199.316 24.0512Z" fill="#5F5260"/>
<path d="M174.811 54.5964C174.811 54.5261 174.829 54.4734 174.829 54.4031C186.819 54.4031 198.808 54.4207 210.78 54.4207C214.193 54.4207 217.606 54.4207 221.019 54.4207C221.457 54.034 222 54.1395 222.507 54.1043C223.435 54.0692 223.487 54.0165 223.505 53.1201C223.522 52.5402 223.487 51.9602 223.522 51.3802C223.54 51.0111 223.505 50.6245 223.855 50.3433C224.117 51.7141 223.942 53.085 223.942 54.4383C223.942 54.8776 223.855 55.317 223.855 55.7388C223.855 71.3981 223.855 87.0575 223.855 102.734C223.855 103.086 223.837 103.437 223.837 103.789C222.91 103.806 221.965 103.806 221.037 103.824C221.002 103.789 220.949 103.736 220.914 103.701C220.617 103.156 220.704 102.559 220.704 101.979C220.704 86.9344 220.704 71.8902 220.704 56.8285C220.704 54.7195 220.897 54.9128 218.762 54.9128C204.707 54.9128 190.652 54.9128 176.597 54.9128C175.984 54.9304 175.337 55.0534 174.811 54.5964C174.811 54.5964 174.829 54.5964 174.811 54.5964Z" fill="#F8CD84"/>
<path d="M223.855 50.3436C223.838 51.4508 223.803 52.5405 223.82 53.6477C223.838 54.2804 223.61 54.4737 223.015 54.421C222.35 54.3859 221.685 54.4034 221.02 54.4034C221.02 53.2083 221.02 51.9957 221.02 50.8006C221.002 49.6055 220.512 48.674 219.444 48.0764C216.784 46.5826 214.106 45.1063 211.446 43.6124C209.24 42.3822 207.945 40.6247 208.067 37.9708C208.102 37.1975 208.26 36.3891 207.91 35.6334C207.962 35.6158 208.032 35.5982 208.085 35.5806C209.013 35.1588 209.94 35.1237 210.85 35.6158C210.868 36.3715 210.903 37.1448 210.868 37.9005C210.815 39.3593 211.481 40.3259 212.723 41.0113C215.454 42.5052 218.184 44.0342 220.897 45.5808C222.735 46.6177 223.733 48.217 223.855 50.3436Z" fill="#F4A34E"/>
<path d="M210.85 35.6157C209.922 35.5981 208.995 35.5981 208.085 35.5805C208.085 32.0655 208.085 28.5505 208.067 25.0355C208.067 24.4907 208.12 24.0865 208.802 24.1744C210.062 24.561 210.868 25.4925 210.868 26.7579C210.885 29.7281 210.85 32.6631 210.85 35.6157Z" fill="#4D3E4F"/>
<path d="M193.54 24.0513C193.54 26.3184 193.54 28.6032 193.54 30.8704C193.54 32.0479 193.103 32.6103 192.21 32.6279C191.142 32.663 190.635 32.1709 190.582 30.9231C190.53 29.605 190.53 28.3044 190.582 26.9863C190.617 26.0021 190.372 25.0003 190.74 24.0513C191.685 24.0513 192.612 24.0513 193.54 24.0513Z" fill="#4D3E4F"/>
<path d="M199.316 24.0513C199.316 26.3887 199.334 28.7262 199.316 31.0637C199.316 32.1006 198.808 32.6454 197.881 32.6454C196.918 32.6454 196.516 32.2588 196.516 31.2394C196.498 28.8492 196.516 26.4415 196.516 24.0513C197.461 24.0513 198.388 24.0513 199.316 24.0513Z" fill="#4D3E4F"/>
<path d="M205.092 24.0514C205.092 26.3888 205.11 28.7263 205.092 31.0638C205.092 32.1007 204.585 32.6455 203.657 32.6455C202.694 32.6455 202.292 32.2589 202.292 31.2395C202.274 28.8493 202.292 26.4416 202.292 24.0514C203.237 24.0514 204.165 24.0514 205.092 24.0514Z" fill="#4D3E4F"/>
<path d="M174.846 111.188C174.829 108.728 174.829 106.267 174.811 103.807L174.829 103.824C175.319 103.367 175.914 103.49 176.492 103.49C184.036 103.49 191.597 103.49 199.141 103.49C205.897 103.49 212.67 103.49 219.427 103.49C219.969 103.49 220.547 103.402 221.019 103.807V103.842C220.949 105.089 221.107 106.337 220.914 107.603C220.617 109.378 218.621 111.065 216.591 111.065C203.079 110.995 189.566 111.03 176.054 111.03C175.634 111.012 175.214 110.942 174.846 111.188Z" fill="#F6BD57"/>
<path d="M221.019 103.789C213.353 103.789 205.687 103.806 198.003 103.806C190.267 103.806 182.548 103.806 174.811 103.806C174.811 95.7394 174.794 87.6549 174.794 79.588C174.794 71.2575 174.794 62.9093 174.794 54.5788C189.777 54.5788 204.777 54.5788 219.759 54.5788C220.984 54.5788 220.984 54.5788 220.984 55.809C221.019 71.8199 221.019 87.8131 221.019 103.789Z" fill="#FADD94"/>
<path d="M196.513 69.0044C196.527 69.0044 196.541 69.0044 196.559 69.0044C196.638 69.0694 196.684 69.1576 196.73 69.2504C197.6 71.0234 198.295 72.8613 198.795 74.7782C199.193 76.3006 199.461 77.8415 199.623 79.4056C199.739 80.5427 199.743 81.6891 199.725 82.8309C199.693 84.9566 199.443 87.0545 198.808 89.0921C198.559 89.8904 198.239 90.6608 197.716 91.3292C197.471 91.6448 197.161 91.8536 196.79 91.9836C196.758 91.9836 196.73 91.9836 196.698 91.9836C196.573 91.9465 196.453 91.9465 196.328 91.9836C196.295 91.9836 196.267 91.9836 196.235 91.9836C195.675 91.7933 195.319 91.3709 195.022 90.8929C194.462 89.9785 194.152 88.9667 193.912 87.9317C193.634 86.7482 193.476 85.5461 193.384 84.3347C193.301 83.2765 193.268 82.2183 193.305 81.1647C193.407 78.5887 193.814 76.0639 194.583 73.5993C195.046 72.1187 195.61 70.6846 196.295 69.2968C196.351 69.1854 196.397 69.0694 196.513 69.0044Z" fill="#785353"/>
<path d="M196.79 91.9837C196.887 91.8212 197.086 91.8212 197.225 91.7145C197.744 91.3153 198.054 90.7723 198.318 90.1967C198.794 89.1617 199.063 88.0664 199.271 86.9525C199.387 86.3259 199.456 85.6947 199.53 85.0634C199.692 83.6896 199.674 82.3065 199.655 80.928C199.641 80.1065 199.549 79.2896 199.447 78.4727C199.317 77.4099 199.118 76.3656 198.873 75.3259C198.651 74.3884 198.378 73.4694 198.058 72.5597C197.637 71.3762 197.147 70.2205 196.586 69.0926C196.573 69.0648 196.573 69.0323 196.563 69.0044C196.772 68.9812 196.929 69.088 197.082 69.2133C198.276 70.1787 199.373 71.2416 200.373 72.4065C200.442 72.4854 200.493 72.5829 200.595 72.6386C200.72 72.6943 200.785 72.815 200.868 72.9171C201.595 73.8361 202.266 74.7922 202.812 75.8318C202.849 75.9015 202.895 75.9618 202.932 76.0268C203.719 77.5538 204.261 79.155 204.441 80.8677C204.515 81.5592 204.524 82.2554 204.45 82.9516C204.261 85.1748 203.576 87.217 202.21 89.0039C202.081 89.1756 201.942 89.3427 201.794 89.4959C201.719 89.5748 201.641 89.6491 201.618 89.7605C201.456 89.7976 201.335 89.8904 201.215 90.0018C200.178 90.9672 198.984 91.6216 197.577 91.8723C197.364 91.9094 197.137 91.8908 196.934 91.9837C196.883 91.9837 196.836 91.9837 196.79 91.9837Z" fill="#9A7863"/>
<path d="M196.512 69.0045C195.823 70.3551 195.244 71.7475 194.777 73.1863C194.314 74.6158 193.957 76.0686 193.731 77.5538C193.606 78.3753 193.513 79.1968 193.444 80.023C193.36 81.0626 193.333 82.1069 193.374 83.1419C193.416 84.2141 193.508 85.2862 193.68 86.3491C193.837 87.3238 194.032 88.2845 194.346 89.2221C194.578 89.9183 194.846 90.6006 195.309 91.1854C195.536 91.4685 195.786 91.733 196.133 91.8769C196.184 91.9001 196.235 91.914 196.239 91.979C196.179 91.979 196.114 91.979 196.054 91.979C195.744 91.9233 195.429 91.928 195.119 91.8584C193.374 91.4499 192.009 90.466 190.912 89.0828C189.602 87.4398 188.903 85.5322 188.653 83.4576C188.621 83.193 188.644 82.9192 188.598 82.6546C188.598 82.5293 188.598 82.4086 188.598 82.2833C188.635 82.0512 188.635 81.8192 188.598 81.5871C188.598 81.5082 188.598 81.4339 188.598 81.355C188.699 81.1044 188.672 80.8306 188.709 80.5706C189.037 78.1247 190.051 75.9664 191.463 73.9707C192.736 72.1698 194.258 70.6011 195.971 69.2087C196.128 69.0834 196.295 68.9766 196.512 69.0045Z" fill="#9A7863"/>
<path d="M188.598 81.5871C188.672 81.8191 188.672 82.0512 188.598 82.2833C188.598 82.0512 188.598 81.8191 188.598 81.5871Z" fill="#DEC3A0"/>
<path d="M196.327 91.9837C196.452 91.9141 196.573 91.9187 196.698 91.9837C196.573 91.9837 196.452 91.9837 196.327 91.9837Z" fill="#CAA87D"/>
<path d="M201.613 89.7605C201.446 89.6538 201.631 89.5888 201.663 89.547C201.816 89.3428 202.001 89.1711 202.159 88.9669C203.168 87.658 203.802 86.1774 204.154 84.5669C204.269 84.0424 204.334 83.5087 204.385 82.9749C204.524 82.7197 204.746 82.534 204.94 82.3251C206.445 80.6868 207.736 78.8906 208.824 76.9505C209.689 75.4049 210.411 73.7897 210.971 72.1049C211.008 71.9889 211.032 71.8636 211.115 71.7661C211.124 71.7615 211.133 71.7522 211.143 71.7476C211.305 71.8775 211.36 72.0539 211.383 72.2535C211.564 73.9104 211.578 75.5674 211.43 77.229C211.277 78.8952 210.957 80.5289 210.36 82.0977C209.009 85.6344 206.621 88.1268 203.024 89.3985C202.561 89.5563 202.094 89.6956 201.613 89.7605Z" fill="#8C695C"/>
<path d="M202.853 76.0176C202.575 75.5581 202.326 75.0801 202.029 74.6298C201.622 74.0125 201.192 73.4185 200.733 72.8429C200.682 72.778 200.636 72.7037 200.59 72.6387C201.96 72.0864 203.385 71.7522 204.848 71.5619C206.459 71.3484 208.069 71.3206 209.689 71.4273C210.018 71.4505 210.351 71.483 210.68 71.5202C210.856 71.5387 211.022 71.6037 211.143 71.7522L211.134 71.7661C211.078 71.8543 210.985 71.8729 210.897 71.9007C209.597 72.3185 208.343 72.8429 207.121 73.4602C205.727 74.1611 204.404 74.9779 203.145 75.9016C203.052 75.9573 202.983 76.0547 202.853 76.0176Z" fill="#8C695C"/>
<path d="M202.853 76.0175C203.339 75.6787 203.821 75.3306 204.316 75.0104C205.718 74.096 207.181 73.2977 208.727 72.6479C209.514 72.3184 210.31 72.0121 211.125 71.7614C210.893 72.5876 210.574 73.3813 210.25 74.1703C209.935 74.9361 209.569 75.6741 209.181 76.4028C208.477 77.7255 207.686 78.988 206.783 80.1808C206.089 81.1044 205.344 81.9816 204.552 82.8217C204.501 82.8774 204.436 82.9238 204.381 82.9749C204.362 82.65 204.432 82.3297 204.427 82.0049C204.409 80.3386 204.061 78.742 203.4 77.2104C203.228 76.8112 203.039 76.4167 202.853 76.0175Z" fill="#785353"/>
</svg>
