<svg width="245" height="138" viewBox="0 0 245 138" fill="none" xmlns="http://www.w3.org/2000/svg">
<path d="M175.658 95.4582C175.658 93.6838 176.152 92.3023 177.139 91.3138C178.126 90.3253 179.5 89.8311 181.262 89.8311C183.069 89.8311 184.46 90.3179 185.438 91.2916C186.415 92.2603 186.903 93.6195 186.903 95.3692C186.903 96.6395 186.689 97.6823 186.259 98.4979C185.835 99.3085 185.218 99.9411 184.409 100.396C183.604 100.846 182.6 101.07 181.395 101.07C180.172 101.07 179.157 100.875 178.353 100.485C177.553 100.094 176.904 99.4765 176.406 98.6313C175.907 97.7861 175.658 96.7284 175.658 95.4582ZM179.012 95.473C179.012 96.5703 179.214 97.3586 179.619 97.838C180.028 98.3175 180.584 98.5572 181.284 98.5572C182.005 98.5572 182.563 98.3224 182.958 97.8529C183.352 97.3833 183.55 96.5406 183.55 95.3247C183.55 94.3016 183.342 93.5553 182.928 93.0857C182.518 92.6113 181.961 92.374 181.255 92.374C180.579 92.374 180.036 92.6137 179.626 93.0932C179.217 93.5726 179.012 94.3659 179.012 95.473Z" fill="#FA9100"/>
<path d="M161.229 129.176C161.229 127.402 161.723 126.021 162.71 125.032C163.697 124.044 165.071 123.549 166.833 123.549C168.639 123.549 170.031 124.036 171.008 125.01C171.986 125.979 172.474 127.338 172.474 129.087C172.474 130.358 172.259 131.401 171.83 132.216C171.406 133.027 170.789 133.659 169.979 134.114C169.175 134.564 168.171 134.789 166.966 134.789C165.742 134.789 164.728 134.594 163.924 134.203C163.124 133.813 162.475 133.195 161.977 132.35C161.478 131.504 161.229 130.447 161.229 129.176ZM164.583 129.191C164.583 130.289 164.785 131.077 165.19 131.556C165.599 132.036 166.154 132.275 166.855 132.275C167.576 132.275 168.133 132.041 168.528 131.571C168.923 131.102 169.121 130.259 169.121 129.043C169.121 128.02 168.913 127.274 168.499 126.804C168.089 126.33 167.531 126.092 166.826 126.092C166.15 126.092 165.607 126.332 165.197 126.811C164.787 127.291 164.583 128.084 164.583 129.191Z" fill="#FA9100"/>
<path d="M121.147 29.6271C121.147 27.8527 121.641 26.4713 122.628 25.4828C123.615 24.4943 124.989 24 126.751 24C128.557 24 129.949 24.4868 130.926 25.4605C131.903 26.4293 132.392 27.7885 132.392 29.5382C132.392 30.8084 132.177 31.8513 131.748 32.6668C131.324 33.4774 130.707 34.1101 129.897 34.5648C129.093 35.0145 128.088 35.2394 126.884 35.2394C125.66 35.2394 124.646 35.0442 123.842 34.6537C123.042 34.2633 122.393 33.6455 121.895 32.8003C121.396 31.9551 121.147 30.8974 121.147 29.6271ZM124.501 29.642C124.501 30.7392 124.703 31.5276 125.108 32.007C125.517 32.4864 126.072 32.7261 126.773 32.7261C127.494 32.7261 128.051 32.4914 128.446 32.0218C128.841 31.5523 129.039 30.7096 129.039 29.4937C129.039 28.4706 128.831 27.7242 128.417 27.2547C128.007 26.7802 127.449 26.543 126.744 26.543C126.067 26.543 125.525 26.7827 125.115 27.2621C124.705 27.7415 124.501 28.5348 124.501 29.642Z" fill="#FA9100"/>
<path d="M121.147 112.31H124.385L128.611 118.528V112.31H131.88V123.549H128.611L124.408 117.378V123.549H121.147V112.31Z" fill="#FA9100"/>
<path d="M146.799 68.155H149.944L154.047 74.3728V68.155H157.221V79.3945H154.047L149.966 73.2227V79.3945H146.799V68.155Z" fill="#FA9100"/>
<path d="M147.601 105.317L150.792 105.117C150.861 105.636 151.002 106.032 151.214 106.304C151.559 106.743 152.053 106.963 152.694 106.963C153.173 106.963 153.541 106.852 153.797 106.63C154.059 106.402 154.19 106.14 154.19 105.844C154.19 105.562 154.066 105.31 153.82 105.088C153.573 104.865 153 104.655 152.102 104.457C150.631 104.126 149.583 103.686 148.956 103.138C148.324 102.589 148.008 101.89 148.008 101.04C148.008 100.481 148.169 99.9548 148.489 99.4605C148.815 98.9613 149.301 98.5709 149.948 98.2891C150.599 98.0025 151.49 97.8591 152.62 97.8591C154.007 97.8591 155.063 98.1186 155.789 98.6376C156.519 99.1516 156.953 99.9721 157.092 101.099L153.931 101.284C153.847 100.795 153.669 100.439 153.398 100.217C153.131 99.9943 152.761 99.8831 152.287 99.8831C151.897 99.8831 151.604 99.9671 151.406 100.135C151.209 100.298 151.11 100.498 151.11 100.736C151.11 100.909 151.192 101.064 151.354 101.203C151.512 101.346 151.887 101.48 152.48 101.603C153.945 101.919 154.994 102.241 155.626 102.567C156.263 102.888 156.724 103.289 157.01 103.768C157.301 104.247 157.447 104.784 157.447 105.377C157.447 106.074 157.255 106.716 156.87 107.304C156.485 107.893 155.947 108.34 155.256 108.646C154.565 108.948 153.694 109.099 152.642 109.099C150.797 109.099 149.518 108.743 148.808 108.031C148.097 107.319 147.695 106.415 147.601 105.317Z" fill="#FA9100"/>
<path d="M121.147 126.76H124.615V130.694H128.404V126.76H131.888V138H128.404V133.454H124.615V138H121.147V126.76Z" fill="#FA9100"/>
<path d="M204.628 74.7286L206.836 75.3969C206.688 76.017 206.454 76.535 206.136 76.9508C205.817 77.3667 205.42 77.6805 204.945 77.8921C204.475 78.1037 203.874 78.2096 203.144 78.2096C202.257 78.2096 201.533 78.0815 200.969 77.8253C200.409 77.5654 199.925 77.1105 199.518 76.4607C199.11 75.8109 198.906 74.9792 198.906 73.9655C198.906 72.614 199.264 71.5762 199.979 70.8521C200.698 70.1244 201.714 69.7605 203.027 69.7605C204.054 69.7605 204.86 69.9684 205.446 70.3843C206.035 70.8002 206.473 71.4388 206.758 72.3002L204.534 72.7959C204.456 72.5472 204.374 72.3652 204.289 72.2501C204.148 72.057 203.976 71.9085 203.772 71.8045C203.568 71.7006 203.34 71.6486 203.088 71.6486C202.517 71.6486 202.079 71.8788 201.775 72.3392C201.546 72.6808 201.431 73.2174 201.431 73.9488C201.431 74.8548 201.568 75.4768 201.842 75.8146C202.117 76.1488 202.502 76.3159 202.999 76.3159C203.481 76.3159 203.844 76.1804 204.089 75.9093C204.337 75.6383 204.517 75.2447 204.628 74.7286Z" fill="#FA9100"/>
<path d="M208.076 69.8997H210.596V72.7569H213.349V69.8997H215.879V78.0648H213.349V74.762H210.596V78.0648H208.076V69.8997Z" fill="#FA9100"/>
<path d="M218.317 77.4343L217.033 77.2037C217.139 76.7938 217.344 76.4797 217.647 76.2613C217.951 76.043 218.382 75.9338 218.938 75.9338C219.576 75.9338 220.038 76.053 220.323 76.2914C220.607 76.5298 220.75 76.8294 220.75 77.1903C220.75 77.402 220.692 77.5936 220.576 77.7651C220.461 77.9367 220.286 78.087 220.052 78.2163C220.241 78.263 220.386 78.3176 220.486 78.38C220.649 78.4803 220.774 78.6128 220.863 78.7777C220.954 78.9403 221 79.1352 221 79.3625C221 79.6476 220.926 79.9217 220.776 80.1845C220.627 80.4452 220.413 80.6468 220.132 80.7894C219.852 80.9298 219.484 80.9999 219.028 80.9999C218.583 80.9999 218.232 80.9476 217.974 80.8429C217.718 80.7382 217.506 80.5856 217.34 80.3851C217.175 80.1823 217.048 79.9283 216.959 79.6231L218.317 79.4427C218.371 79.7167 218.453 79.9072 218.564 80.0141C218.678 80.1188 218.821 80.1712 218.995 80.1712C219.177 80.1712 219.328 80.1043 219.448 79.9707C219.571 79.837 219.632 79.6588 219.632 79.436C219.632 79.2088 219.573 79.0328 219.455 78.908C219.339 78.7832 219.181 78.7209 218.981 78.7209C218.874 78.7209 218.728 78.7476 218.541 78.8011L218.611 77.8286C218.687 77.8397 218.745 77.8453 218.788 77.8453C218.966 77.8453 219.114 77.7885 219.232 77.6749C219.352 77.5613 219.412 77.4265 219.412 77.2705C219.412 77.1213 219.367 77.0021 219.278 76.913C219.189 76.8239 219.067 76.7793 218.911 76.7793C218.751 76.7793 218.621 76.8283 218.521 76.9263C218.421 77.0221 218.353 77.1914 218.317 77.4343Z" fill="#FA9100"/>
<path d="M175.77 28.9681L177.977 29.6364C177.829 30.2565 177.596 30.7745 177.277 31.1903C176.958 31.6062 176.561 31.92 176.087 32.1316C175.616 32.3432 175.015 32.4491 174.285 32.4491C173.399 32.4491 172.674 32.321 172.11 32.0648C171.55 31.8049 171.066 31.35 170.659 30.7002C170.251 30.0504 170.047 29.2187 170.047 28.205C170.047 26.8535 170.405 25.8157 171.12 25.0916C171.839 24.3639 172.855 24 174.168 24C175.195 24 176.001 24.2079 176.587 24.6238C177.177 25.0397 177.614 25.6783 177.9 26.5397L175.675 27.0354C175.597 26.7867 175.516 26.6047 175.43 26.4896C175.289 26.2965 175.117 26.148 174.913 26.044C174.709 25.9401 174.481 25.8881 174.229 25.8881C173.658 25.8881 173.221 26.1183 172.917 26.5787C172.687 26.9203 172.572 27.4569 172.572 28.1883C172.572 29.0943 172.709 29.7163 172.983 30.0541C173.258 30.3883 173.643 30.5554 174.14 30.5554C174.622 30.5554 174.985 30.4199 175.23 30.1488C175.478 29.8778 175.658 29.4842 175.77 28.9681Z" fill="#FA9100"/>
<path d="M179.218 24.1392H181.737V26.9964H184.49V24.1392H187.02V32.3043H184.49V29.0015H181.737V32.3043H179.218V24.1392Z" fill="#FA9100"/>
<path d="M189.458 31.6738L188.174 31.4432C188.28 31.0333 188.485 30.7192 188.788 30.5008C189.092 30.2825 189.523 30.1733 190.079 30.1733C190.717 30.1733 191.179 30.2925 191.464 30.5309C191.749 30.7693 191.891 31.0689 191.891 31.4298C191.891 31.6415 191.833 31.8331 191.717 32.0046C191.602 32.1762 191.427 32.3265 191.194 32.4558C191.383 32.5025 191.527 32.5571 191.627 32.6195C191.79 32.7198 191.915 32.8523 192.004 33.0172C192.096 33.1798 192.141 33.3747 192.141 33.602C192.141 33.8871 192.067 34.1612 191.918 34.424C191.769 34.6847 191.554 34.8863 191.274 35.0289C190.993 35.1693 190.625 35.2394 190.169 35.2394C189.724 35.2394 189.373 35.1871 189.115 35.0824C188.859 34.9777 188.648 34.8251 188.481 34.6246C188.316 34.4218 188.189 34.1678 188.1 33.8626L189.458 33.6822C189.512 33.9562 189.594 34.1467 189.705 34.2536C189.819 34.3583 189.962 34.4107 190.136 34.4107C190.318 34.4107 190.469 34.3438 190.59 34.2102C190.712 34.0765 190.773 33.8983 190.773 33.6755C190.773 33.4483 190.714 33.2723 190.596 33.1475C190.481 33.0227 190.323 32.9604 190.122 32.9604C190.016 32.9604 189.869 32.9871 189.682 33.0406L189.752 32.0681C189.828 32.0792 189.887 32.0848 189.929 32.0848C190.107 32.0848 190.255 32.028 190.373 31.9144C190.493 31.8008 190.553 31.666 190.553 31.51C190.553 31.3608 190.508 31.2416 190.419 31.1525C190.33 31.0634 190.208 31.0188 190.052 31.0188C189.892 31.0188 189.762 31.0678 189.662 31.1658C189.562 31.2616 189.494 31.4309 189.458 31.6738Z" fill="#FA9100"/>
<path fill-rule="evenodd" clip-rule="evenodd" d="M76.1826 57.9335C75.6866 57.6467 75.0754 57.6467 74.5793 57.9335L49.8016 72.26C49.3056 72.5468 49 73.0769 49 73.6505V102.304C49 102.877 49.3056 103.407 49.8016 103.694L74.5793 118.021C75.0754 118.307 75.6866 118.307 76.1826 118.021L100.96 103.694C101.456 103.407 101.762 102.877 101.762 102.304V73.6505C101.762 73.0769 101.456 72.5468 100.96 72.26L76.1826 57.9335ZM76.1826 61.1454C75.6865 60.8586 75.0754 60.8586 74.5793 61.1454L52.5786 73.8663C52.0825 74.1531 51.7769 74.6832 51.7769 75.2568V100.699C51.7769 101.272 52.0825 101.802 52.5786 102.089L74.5793 114.81C75.0754 115.097 75.6865 115.097 76.1826 114.81L98.1833 102.089C98.6794 101.802 98.985 101.272 98.985 100.699V75.2568C98.985 74.6832 98.6794 74.1531 98.1833 73.8663L76.1826 61.1454Z" fill="#79C800"/>
<path d="M53.8098 77.5881C53.8098 76.8122 54.4379 76.1832 55.2127 76.1832C55.9874 76.1832 56.6155 76.8122 56.6155 77.5881V98.8627C56.6155 99.6387 55.9874 100.268 55.2127 100.268C54.4379 100.268 53.8098 99.6387 53.8098 98.8627V77.5881Z" fill="#79C800"/>
<path d="M121.949 39.0529C121.949 38.277 122.577 37.6479 123.352 37.6479C124.126 37.6479 124.754 38.277 124.754 39.0529V58.7219C124.754 59.4978 124.126 60.1268 123.352 60.1268C122.577 60.1268 121.949 59.4978 121.949 58.7219V39.0529Z" fill="#79C800"/>
<path d="M127.56 39.0529C127.56 38.277 128.188 37.6479 128.963 37.6479C129.738 37.6479 130.366 38.277 130.366 39.0529V58.7219C130.366 59.4978 129.738 60.1268 128.963 60.1268C128.188 60.1268 127.56 59.4978 127.56 58.7219V39.0529Z" fill="#79C800"/>
<path d="M176.46 39.0529C176.46 38.277 177.088 37.6479 177.863 37.6479C178.638 37.6479 179.266 38.277 179.266 39.0529V58.7219C179.266 59.4978 178.638 60.1268 177.863 60.1268C177.088 60.1268 176.46 59.4978 176.46 58.7219V39.0529Z" fill="#79C800"/>
<path d="M94.2644 99.3645C94.9354 98.9765 95.7934 99.2068 96.1808 99.8787C96.5682 100.551 96.3383 101.41 95.6673 101.798L77.27 112.435C76.5991 112.823 75.7411 112.593 75.3537 111.921C74.9663 111.249 75.1962 110.39 75.8672 110.002L94.2644 99.3645Z" fill="#79C800"/>
<path d="M75.8672 66.4741C75.1962 66.0861 74.9664 65.2269 75.3537 64.5549C75.7411 63.883 76.5991 63.6527 77.2701 64.0407L95.6673 74.678C96.3383 75.066 96.5682 75.9252 96.1808 76.5972C95.7934 77.2691 94.9355 77.4994 94.2645 77.1114L75.8672 66.4741Z" fill="#79C800"/>
<path d="M126.757 60.4577C127.428 60.0697 127.658 59.2105 127.271 58.5385C126.884 57.8665 126.026 57.6363 125.355 58.0243L100.718 72.2693C100.047 72.6573 99.8169 73.5165 100.204 74.1885C100.592 74.8604 101.45 75.0907 102.121 74.7027L126.757 60.4577Z" fill="#79C800"/>
<path d="M178.407 60.0516C179.078 59.6636 179.308 58.8044 178.92 58.1324C178.533 57.4604 177.675 57.2302 177.004 57.6181L160.039 67.4273C159.368 67.8153 159.138 68.6745 159.525 69.3465C159.913 70.0185 160.771 70.2487 161.442 69.8607L178.407 60.0516Z" fill="#79C800"/>
<path d="M125.569 60.4577C124.898 60.0697 124.668 59.2105 125.055 58.5385C125.442 57.8665 126.3 57.6363 126.971 58.0243L144.181 67.9746C144.852 68.3625 145.081 69.2218 144.694 69.8938C144.307 70.5657 143.449 70.796 142.778 70.408L125.569 60.4577Z" fill="#79C800"/>
<path d="M177.675 60.0516C177.004 59.6636 176.774 58.8044 177.161 58.1324C177.549 57.4604 178.407 57.2302 179.078 57.6181L196.287 67.5685C196.958 67.9564 197.188 68.8157 196.8 69.4876C196.413 70.1596 195.555 70.3898 194.884 70.0019L177.675 60.0516Z" fill="#79C800"/>
<path d="M119.165 112.555C119.836 112.943 120.066 113.803 119.678 114.474C119.291 115.146 118.433 115.377 117.762 114.989L99.6797 104.534C99.0087 104.146 98.7789 103.286 99.1662 102.614C99.5536 101.943 100.412 101.712 101.083 102.1L119.165 112.555Z" fill="#79C800"/>
<path d="M143.403 106.253C144.074 105.865 144.932 106.095 145.319 106.767C145.707 107.439 145.477 108.298 144.806 108.686L134.988 114.363C134.317 114.751 133.459 114.521 133.071 113.849C132.684 113.177 132.914 112.317 133.585 111.93L143.403 106.253Z" fill="#79C800"/>
<path d="M170.372 94.1903C171.123 93.9997 171.886 94.4549 172.076 95.207C172.267 95.9591 171.812 96.7234 171.061 96.914L160.071 99.7032C159.32 99.8938 158.557 99.4386 158.367 98.6865C158.177 97.9343 158.631 97.1701 159.382 96.9795L170.372 94.1903Z" fill="#79C800"/>
<path d="M166.111 119.431C166.49 120.108 166.248 120.964 165.572 121.343C164.896 121.722 164.041 121.48 163.663 120.803L158.128 110.894C157.75 110.217 157.992 109.361 158.668 108.982C159.344 108.603 160.199 108.845 160.577 109.522L166.111 119.431Z" fill="#79C800"/>
<path d="M171.975 99.0072C172.726 98.8166 173.489 99.2718 173.679 100.024C173.87 100.776 173.415 101.54 172.664 101.731L161.675 104.52C160.924 104.711 160.161 104.256 159.97 103.503C159.78 102.751 160.234 101.987 160.985 101.796L171.975 99.0072Z" fill="#79C800"/>
<path d="M161.881 122.229C162.259 122.906 162.017 123.762 161.341 124.141C160.665 124.52 159.81 124.278 159.432 123.601L153.897 113.692C153.519 113.015 153.761 112.159 154.437 111.78C155.113 111.401 155.968 111.643 156.346 112.32L161.881 122.229Z" fill="#79C800"/>
<path d="M150.808 83.2078C150.808 82.4319 151.436 81.8029 152.21 81.8029C152.985 81.8029 153.613 82.4319 153.613 83.2078V94.5614C153.613 95.3373 152.985 95.9663 152.21 95.9663C151.436 95.9663 150.808 95.3373 150.808 94.5614V83.2078Z" fill="#79C800"/>
</svg>
